<svg width="64" height="64" viewBox="0 0 64 64" fill="none" xmlns="http://www.w3.org/2000/svg">
<g clip-path="url(#clip0_683_13222)">
<path d="M63.5178 24.9804L32.7228 0.259445C32.2972 -0.0822499 31.7028 -0.0822499 31.2773 0.259445L0.581219 24.9008C0.211853 25.1974 0 25.6392 0 26.1128V29.0729C0 29.9764 0.531136 30.7965 1.35301 31.1622C2.84337 31.8253 4.33761 32.4405 5.83398 33.0086V37.033C5.83398 47.3855 13.8882 55.8914 24.0594 56.6157C23.1778 57.5938 22.6401 58.8876 22.6401 60.305V62.5117C22.6401 63.3306 23.3065 63.997 24.1255 63.997H27.4289C29.3328 63.997 31.0145 63.0273 32.0063 61.5559C32.998 63.0273 34.6796 63.997 36.5835 63.997H39.887C40.706 63.997 41.3724 63.3306 41.3724 62.5117V60.305C41.3724 58.8909 40.837 57.5998 39.959 56.6225C50.1805 55.9501 58.2912 47.4216 58.2912 37.0329V32.9764C59.7463 32.4181 61.1983 31.8143 62.6419 31.1674C63.467 30.7975 64.0001 29.9765 64.0001 29.0756V25.9857C64 25.5929 63.8243 25.2267 63.5178 24.9804ZM54.7834 28.1199L49.3541 21.3307C50.982 20.9203 52.6065 20.4533 54.2248 19.9286L61.2768 25.5897C59.1182 26.5375 56.9527 27.3813 54.7834 28.1199ZM2.72705 25.5867L9.79396 19.9136C11.4119 20.4361 13.0349 20.903 14.6602 21.3127L9.22839 28.1049C7.0584 27.3689 4.89028 26.5291 2.72705 25.5867ZM14.0895 16.4654C15.3376 16.7908 16.5869 17.0823 17.8375 17.3397L15.9541 19.6947C14.486 19.3428 13.0193 18.9455 11.5561 18.499L14.0895 16.4654ZM52.4638 18.515C50.9997 18.9631 49.5312 19.3608 48.0604 19.713L46.1765 17.3572C47.4299 17.0999 48.6816 16.8079 49.9312 16.4818L52.4638 18.515ZM28.5674 12.7232C28.0698 12.5759 27.5476 12.8597 27.4003 13.357L26.4138 16.6877C24.6974 16.5441 22.9816 16.3329 21.2672 16.0583L29.7372 5.46701L28.5381 9.51576C28.3909 10.0131 28.6746 10.5356 29.1719 10.6828C29.6694 10.83 30.1917 10.5464 30.339 10.049L32 4.44067L35.6682 16.826C33.225 16.9567 30.7793 16.9543 28.3338 16.8192L29.2012 13.8904C29.3485 13.393 29.0647 12.8705 28.5674 12.7232ZM25.8699 18.5242L25.0573 21.2676C22.7067 21.0203 20.3489 20.6471 17.9924 20.1531L19.9244 17.7373C21.9045 18.0847 23.8868 18.3471 25.8699 18.5242ZM34.2628 5.46676L42.745 16.0736C41.0287 16.3468 39.3097 16.5559 37.5889 16.6971L34.2628 5.46676ZM44.0885 17.7536L46.0219 20.1712C43.6641 20.6641 41.3026 21.035 38.9461 21.2791L38.1332 18.5348C40.121 18.3604 42.1066 18.0996 44.0885 17.7536ZM44.8544 15.7042L37.4888 6.49372L48.093 15.0064C47.0149 15.2653 45.9354 15.4979 44.8544 15.7042ZM19.1591 15.6872C18.0812 15.4806 17.0039 15.2482 15.9277 14.9898L26.5111 6.49384L19.1591 15.6872ZM16.6828 21.7907C19.2941 22.3728 21.9085 22.8088 24.5158 23.0962L22.1014 31.2483C18.4519 30.703 14.7928 29.8619 11.1372 28.7253L16.6828 21.7907ZM26.4201 23.2802C27.6015 23.3778 28.7811 23.4465 29.9575 23.4826C29.9672 23.4828 29.977 23.4829 29.9868 23.4829C30.4921 23.4829 30.9093 23.0813 30.9248 22.5725C30.9407 22.0542 30.5333 21.6211 30.0149 21.6052C29.0007 21.5741 27.9839 21.5165 26.9655 21.4385L27.7857 18.6689C29.2112 18.7568 30.6369 18.8027 32.0622 18.8027C33.4474 18.8027 34.8321 18.7589 36.2162 18.6759L37.0369 21.4472C36.0102 21.5242 34.9847 21.5801 33.9615 21.6092C33.443 21.624 33.0347 22.0562 33.0495 22.5745C33.064 23.0839 33.4815 23.4869 33.9877 23.4869C33.9967 23.4869 34.0058 23.4868 34.0149 23.4866C35.2018 23.4529 36.3916 23.3859 37.5827 23.2896L40.0194 31.5168C37.3617 31.8359 34.7076 31.9976 32.0624 31.9976C32.0587 31.9976 32.0548 31.9976 32.0512 31.9976C29.3725 31.9971 26.6818 31.8309 23.9846 31.5032L26.4201 23.2802ZM41.9034 31.2643L39.4877 23.1083C42.1013 22.8242 44.7195 22.3902 47.3316 21.8089L52.8762 28.7422C49.2228 29.8816 45.5609 30.7223 41.9034 31.2643ZM32.0063 57.227C31.1796 57.227 30.5071 56.5547 30.5069 55.7282C30.5069 55.728 30.5069 55.7278 30.5069 55.7276C30.5069 55.7273 30.5069 55.7272 30.5069 55.727C30.5073 54.9005 31.1796 54.2282 32.0063 54.2282C32.833 54.2282 33.5056 54.9008 33.5056 55.7276C33.5056 56.5543 32.833 57.227 32.0063 57.227ZM27.4289 62.1187H24.5183V60.3048C24.5183 58.2988 26.1504 56.6667 28.1565 56.6667H28.7625C29.0808 57.7641 29.9414 58.6329 31.0343 58.962C30.798 60.7412 29.2718 62.1187 27.4289 62.1187ZM39.4942 62.1187H36.5835C34.7407 62.1187 33.2145 60.7412 32.9781 58.962C34.071 58.6329 34.9316 57.7642 35.2499 56.6667H35.8559C37.862 56.6667 39.4942 58.2988 39.4942 60.3048V62.1187ZM61.8734 29.4535C58.1241 31.1341 54.317 32.5155 50.5581 33.5592C50.0584 33.698 49.7658 34.2156 49.9045 34.7153C50.0432 35.215 50.561 35.5079 51.0605 35.3689C52.8381 34.8753 54.6259 34.3072 56.4128 33.6704V37.0328C56.4128 46.8232 48.4477 54.7884 38.6572 54.7884H35.2498C34.8419 53.3817 33.5426 52.35 32.0061 52.35C30.4696 52.35 29.1703 53.3817 28.7623 54.7884H25.4676C15.6771 54.7884 7.71199 46.8232 7.71199 37.0328V33.6963C13.2292 35.6413 18.7677 36.9365 24.2468 37.5588C26.8333 37.8525 29.4295 37.9991 32.0297 37.9991C37.0654 37.9991 42.1122 37.4487 47.1064 36.3516C47.6129 36.2403 47.9333 35.7395 47.8221 35.2329C47.7108 34.7264 47.2099 34.4059 46.7034 34.5172C39.3329 36.1363 31.8489 36.5319 24.4588 35.6925C17.0606 34.8524 9.54354 32.7508 2.11641 29.4461C1.97166 29.3816 1.87801 29.2351 1.87801 29.0728V27.266C4.30305 28.326 6.73473 29.2581 9.16942 30.0645C9.22576 30.0896 9.28386 30.1087 9.34283 30.122C16.922 32.6138 24.5288 33.8746 32.0508 33.8759H32.0624C39.5791 33.8759 47.1598 32.6179 54.6907 30.1306C54.7363 30.1192 54.781 30.1045 54.8249 30.0859C57.2638 29.2757 59.6973 28.3379 62.1217 27.2705V29.0756C62.1219 29.2377 62.0243 29.3859 61.8734 29.4535Z" fill="#E7B55E"/>
</g>
<defs>
<clipPath id="clip0_683_13222">
<rect width="64" height="64" fill="white"/>
</clipPath>
</defs>
</svg>
