<svg width="64" height="64" viewBox="0 0 64 64" fill="none" xmlns="http://www.w3.org/2000/svg">
<g clip-path="url(#clip0_683_13181)">
<path d="M61.7735 38.5668H36.2331C35.8298 36.3764 34.9885 34.9034 33.7248 34.1884C32.8725 33.706 32.0171 33.6824 31.4055 33.7653C31.1187 32.7134 30.3527 30.9501 28.3503 30.0114C26.5805 29.1816 25.1956 29.6035 24.3421 30.2214C23.3277 28.8678 21.3307 27.2824 18.511 27.703C16.7163 27.9708 15.4468 29.0954 15.1151 30.7115C14.7266 32.6048 15.6558 34.6933 17.4622 36.134C17.005 36.73 16.6398 37.5748 16.7905 38.5668H2.22572C1.40134 38.5668 0.728465 39.2365 0.725715 40.0598C0.716965 42.6455 1.14084 49.1699 5.25422 53.8959C8.08134 57.144 12.0738 58.8595 17.1272 59.003C17.4875 61.5413 19.6738 63.4999 22.3101 63.4999H41.6895C44.3256 63.4999 46.512 61.5413 46.8722 59.003C51.9256 58.8595 55.9181 57.144 58.7452 53.8959C62.8586 49.1699 63.2825 42.6455 63.2737 40.0598C63.271 39.2365 62.598 38.5668 61.7737 38.5668H61.7735ZM19.0557 36.6451C19.2608 36.4995 19.3792 36.2608 19.3711 36.0094C19.363 35.758 19.2293 35.5274 19.0153 35.3953C16.9843 34.1421 16.3316 32.2451 16.5845 31.0129C16.7901 30.011 17.5528 29.3623 18.7322 29.1865C21.9577 28.7041 23.4706 31.6198 23.5323 31.7416C23.6513 31.9814 23.887 32.143 24.1541 32.16C24.421 32.1776 24.675 32.0536 24.8235 31.831C24.9215 31.6909 25.835 30.4888 27.7137 31.3695C29.8271 32.3601 30.0672 34.6484 30.0761 34.742C30.0967 34.9819 30.2282 35.1985 30.4348 35.3224C30.6412 35.4461 30.8918 35.4645 31.1131 35.3698C31.1527 35.3536 32.0947 34.9791 33.0017 35.5026C33.7973 35.9619 34.3787 37.0146 34.705 38.5668H29.6485C28.7617 38.1088 24.2907 35.747 21.511 33.2879C21.2007 33.0133 20.7267 33.0423 20.4523 33.3526C20.1778 33.6629 20.2068 34.1369 20.5171 34.4113C22.3155 36.0023 24.7175 37.5178 26.5293 38.5668H18.3275C18.0141 37.453 18.9411 36.7293 19.0557 36.6451ZM41.6892 61.9999H22.31C20.5068 61.9999 18.9978 60.7158 18.6497 59.014H45.3496C45.0015 60.7158 43.4926 61.9999 41.6893 61.9999H41.6892ZM57.6136 52.911C54.9551 55.9654 51.1066 57.514 46.1752 57.514H17.824C12.8925 57.514 9.04409 55.9654 6.38559 52.911C4.20784 50.409 3.16272 47.2683 2.66559 44.659H48.7822C49.1963 44.659 49.5322 44.3231 49.5322 43.909C49.5322 43.4949 49.1963 43.159 48.7822 43.159H2.42797C2.25309 41.791 2.22359 40.6819 2.22559 40.0668L61.7735 40.0648C61.7756 40.6806 61.746 41.7904 61.571 43.159H54.532C54.1178 43.159 53.782 43.4949 53.782 43.909C53.782 44.3231 54.1178 44.659 54.532 44.659H61.3333C60.8362 47.2685 59.7912 50.4091 57.6136 52.911Z" fill="#E7B55E"/>
<path d="M45.5562 33.6592C45.9685 33.6532 47.5053 33.4256 49.736 32.2452C52.4326 30.7463 53.9922 28.4798 54.2472 25.6904C54.2472 25.6893 54.2475 25.6882 54.2476 25.6871C54.248 25.6832 54.2485 25.6794 54.2488 25.6757C54.7656 19.9157 51.463 16.0686 51.3221 15.9076C51.3192 15.9043 51.3158 15.9014 51.313 15.8983C51.301 15.8852 51.2885 15.8726 51.2756 15.8603C51.1087 15.6982 50.8802 15.6124 50.649 15.6482C50.4145 15.6844 50.218 15.8198 50.1082 16.0257C50.1078 16.0262 50.1076 16.0268 50.1073 16.0273C50.0997 16.0416 50.0915 16.0553 50.0847 16.0703C50.0308 16.1659 49.2877 17.4201 46.2287 19.7363C45.8113 20.0523 45.4277 20.3766 45.0747 20.7077C40.608 19.2174 35.5042 21.5297 35.2817 21.6322C35.0252 21.7491 34.85 22.0169 34.8461 22.2988C34.8441 22.4004 34.8132 24.8179 36.1162 27.4307C37.3245 29.8532 39.9428 32.9002 45.5563 33.6594L45.5562 33.6592ZM40.0101 21.8466L40.4811 24.3294C39.3065 23.6974 38.1352 23.0024 37.2845 22.4827C38.0042 22.2516 38.9542 21.9977 40.0102 21.8467L40.0101 21.8466ZM37.4853 26.8144C36.914 25.6858 36.6292 24.5843 36.487 23.7549C37.9537 24.6524 40.3708 26.0692 42.2163 26.8446C42.2647 28.4364 42.841 30.0999 43.9373 31.8154C40.9341 31.0248 38.768 29.3483 37.4852 26.8144H37.4853ZM49.0448 30.9132C48.394 31.2786 47.7473 31.5454 47.1895 31.7377C47.7575 30.6717 48.2505 29.6112 48.6791 28.5739C49.3548 28.3947 50.804 27.9529 52.426 27.1074C51.891 28.6738 50.76 29.9502 49.0448 30.9132ZM52.7816 25.1788C51.526 25.9607 50.2751 26.4772 49.3628 26.7928C50.5436 23.4694 51.0763 20.5232 51.3152 18.6262C52.0878 20.0839 52.947 22.3769 52.7816 25.1788ZM47.1342 20.9322C48.297 20.0517 49.1528 19.3083 49.782 18.7014C49.3933 21.5359 48.3492 26.5716 45.5757 31.5627C44.158 29.5558 43.5435 27.6744 43.7526 25.9601C43.9727 24.1562 45.1103 22.4646 47.1342 20.9322ZM43.9342 21.9441C43.1102 22.9908 42.5796 24.1006 42.3482 25.2652C42.289 25.2383 42.2301 25.2118 42.17 25.1838L41.5123 21.7166C42.3112 21.6954 43.1333 21.7569 43.9343 21.9441H43.9342Z" fill="#E7B55E"/>
<path d="M6.40092 35.8331C9.4748 35.8331 11.9757 33.3322 11.9757 30.2583C11.9757 27.1845 9.47492 24.6836 6.40092 24.6836C3.32692 24.6836 0.826172 27.1845 0.826172 30.2583C0.826172 33.3322 3.32705 35.8331 6.40092 35.8331ZM6.40092 26.1836C8.6478 26.1836 10.4757 28.0115 10.4757 30.2583C10.4757 32.5052 8.6478 34.3331 6.40092 34.3331C4.15405 34.3331 2.32617 32.5051 2.32617 30.2583C2.32617 28.0116 4.15417 26.1836 6.40092 26.1836Z" fill="#E7B55E"/>
<path d="M6.40039 32.5083C7.64102 32.5083 8.65039 31.4989 8.65039 30.2583C8.65039 29.0177 7.64102 28.0083 6.40039 28.0083C5.15977 28.0083 4.15039 29.0177 4.15039 30.2583C4.15039 31.4989 5.15977 32.5083 6.40039 32.5083ZM6.40039 29.5083C6.81389 29.5083 7.15039 29.8447 7.15039 30.2583C7.15039 30.6719 6.81402 31.0083 6.40039 31.0083C5.98677 31.0083 5.65039 30.6719 5.65039 30.2583C5.65039 29.8447 5.98689 29.5083 6.40039 29.5083Z" fill="#E7B55E"/>
<path d="M27.5938 26.0554C28.8344 26.0554 29.8436 25.046 29.8436 23.8054C29.8436 22.5648 28.8344 21.5554 27.5938 21.5554C26.3531 21.5554 25.3438 22.5648 25.3438 23.8054C25.3438 25.046 26.3531 26.0554 27.5938 26.0554ZM27.5938 23.0554C28.0073 23.0554 28.3436 23.3918 28.3436 23.8054C28.3436 24.219 28.0073 24.5554 27.5938 24.5554C27.1802 24.5554 26.8438 24.219 26.8438 23.8054C26.8438 23.3918 27.1801 23.0554 27.5938 23.0554Z" fill="#E7B55E"/>
<path d="M59.1992 18.7103C57.9586 18.7103 56.9492 19.7197 56.9492 20.9603C56.9492 22.201 57.9586 23.2103 59.1992 23.2103C60.4398 23.2103 61.4491 22.201 61.4491 20.9603C61.4491 19.7197 60.4398 18.7103 59.1992 18.7103ZM59.1992 21.7103C58.7856 21.7103 58.4492 21.374 58.4492 20.9603C58.4492 20.5467 58.7856 20.2103 59.1992 20.2103C59.6128 20.2103 59.9491 20.5467 59.9491 20.9603C59.9491 21.374 59.6127 21.7103 59.1992 21.7103Z" fill="#E7B55E"/>
<path d="M57.6997 14.911C60.7736 14.911 63.2745 12.4102 63.2745 9.33623C63.2745 6.26223 60.7736 3.76147 57.6997 3.76147C54.6259 3.76147 52.125 6.26223 52.125 9.33623C52.125 12.4102 54.6257 14.911 57.6997 14.911ZM57.6997 5.2616C59.9466 5.2616 61.7745 7.08947 61.7745 9.33635C61.7745 11.5832 59.9465 13.4111 57.6997 13.4111C55.453 13.4111 53.625 11.5832 53.625 9.33635C53.625 7.08947 55.4529 5.2616 57.6997 5.2616Z" fill="#E7B55E"/>
<path d="M57.6992 11.5863C58.9398 11.5863 59.9492 10.5769 59.9492 9.3363C59.9492 8.09568 58.9398 7.0863 57.6992 7.0863C56.4586 7.0863 55.4492 8.09568 55.4492 9.3363C55.4492 10.5769 56.4586 11.5863 57.6992 11.5863ZM57.6992 8.5863C58.1127 8.5863 58.4492 8.92268 58.4492 9.3363C58.4492 9.74993 58.1128 10.0863 57.6992 10.0863C57.2856 10.0863 56.9492 9.74993 56.9492 9.3363C56.9492 8.92268 57.2857 8.5863 57.6992 8.5863Z" fill="#E7B55E"/>
<path d="M15.6218 13.1956C13.1197 14.2186 12.314 15.7198 12.0787 16.7989C11.7295 18.3998 12.4239 20.0234 13.2669 20.9224C14.3183 22.0436 15.855 21.7349 16.9189 21.3329C17.0474 22.7501 17.1995 24.9175 19.3018 24.923C20.0215 24.923 20.7238 24.6319 21.2322 24.1219C22.6993 22.6358 21.29 21.0096 20.3972 19.9108C21.4374 19.4524 22.7508 18.5956 22.7154 17.0591C22.687 15.8271 22.0449 14.182 20.6743 13.2844C19.7504 12.6794 18.124 12.1725 15.6218 13.1956ZM19.8525 14.5391C20.7625 15.1351 21.1972 16.2811 21.2158 17.0936C21.2314 17.7709 20.4914 18.3455 18.9534 18.8501C18.9499 18.8513 18.9463 18.8525 18.9428 18.8538C18.942 18.8538 18.9409 18.8544 18.9402 18.8546C18.7632 18.916 18.6235 19.0371 18.5365 19.1879C18.3908 19.4301 18.4043 19.7685 18.5768 20.0015C18.8019 20.329 19.0644 20.6504 19.3184 20.9613C20.3853 22.2669 20.5524 22.6794 20.17 23.0629C19.9384 23.2951 19.6218 23.4243 19.2894 23.4229C18.748 23.4171 18.5783 23.0058 18.4247 21.3268C18.3875 20.9208 18.3492 20.5009 18.2782 20.1041C18.2367 19.872 18.087 19.6735 17.8764 19.5673C17.6658 19.461 17.4162 19.4606 17.2048 19.5651C15.7547 20.2819 14.8244 20.3904 14.361 19.8963C13.8052 19.3034 13.3124 18.1813 13.5442 17.1184C13.775 16.06 14.6649 15.2073 16.1894 14.584C17.7138 13.9606 18.9463 13.9455 19.8525 14.5391Z" fill="#E7B55E"/>
<path d="M40.5848 9.7403C40.5588 9.77542 40.5333 9.81005 40.5069 9.84567C39.6883 10.95 38.451 12.6192 39.9492 13.9863C40.4878 14.4784 41.217 14.7364 41.9434 14.694C43.9682 14.577 44.0599 12.5015 44.1205 11.1282C44.1225 11.0838 44.1245 11.0407 44.1265 10.9969C44.6024 11.1515 45.1684 11.2842 45.739 11.2842C46.4647 11.2842 47.1965 11.07 47.755 10.4152C48.5547 9.47755 49.1718 7.82292 48.7477 6.2403C48.4618 5.17342 47.5862 3.71205 45.0388 2.80805C42.4913 1.90405 40.8903 2.48655 39.9959 3.13467C38.669 4.09592 38.1052 5.7693 38.1349 7.00142C38.172 8.53867 39.5247 9.3318 40.5848 9.7403ZM40.8759 4.3493C41.7532 3.71367 42.985 3.6708 44.5372 4.22155C46.0893 4.77242 47.0184 5.58217 47.2988 6.62855C47.5803 7.6793 47.141 8.82342 46.6138 9.44167C46.1738 9.9573 45.2388 9.89255 43.7549 9.2438C43.3094 9.03567 42.7468 9.3623 42.7085 9.8533C42.6583 10.2472 42.6397 10.6612 42.622 11.0619C42.5477 12.7463 42.3975 13.1653 41.8569 13.1965C41.5293 13.2145 41.2028 13.0995 40.9604 12.8784C40.5605 12.5134 40.708 12.0935 41.7122 10.739C41.9549 10.4115 42.2059 10.0729 42.4174 9.72992C42.6828 9.31367 42.452 8.73667 41.976 8.6128C40.4169 8.1813 39.651 7.6423 39.6347 6.96505C39.615 6.15255 39.9952 4.98755 40.8762 4.3493H40.8759Z" fill="#E7B55E"/>
<path d="M12.6048 9.36801C14.9482 9.38513 17.2303 8.01001 18.2881 5.90501C19.0733 4.38589 19.2199 2.65176 18.7011 1.02226C18.5753 0.62751 18.1536 0.40976 17.7588 0.53526L6.98719 3.96576C6.79769 4.02613 6.63994 4.15926 6.54857 4.33601C6.45732 4.51276 6.43982 4.71851 6.50019 4.90801C7.36657 7.62813 9.89144 9.36801 12.6048 9.36801ZM14.6722 3.09251C14.6548 3.37701 14.5798 3.65763 14.4449 3.91851C14.1903 4.41113 13.7591 4.77514 13.2307 4.94339C12.3921 5.21064 11.5081 4.91338 10.9857 4.26651L14.6722 3.09251ZM9.49882 4.74001C10.1374 5.85651 11.3321 6.54164 12.6029 6.54164C12.9616 6.54164 13.3263 6.48713 13.6858 6.37263C14.5959 6.08276 15.3388 5.45576 15.7774 4.60726C16.0988 3.98539 16.2279 3.29913 16.1603 2.61851L17.4454 2.20926C17.6073 3.23301 17.4404 4.27814 16.9557 5.21614C16.3543 6.37938 15.3361 7.23876 14.0884 7.63614C11.7556 8.37901 9.26944 7.27776 8.21182 5.14989L9.49894 4.74001H9.49882Z" fill="#E7B55E"/>
<path d="M58.6834 28.1612C58.4315 28.0674 58.1488 28.1154 57.9421 28.2873C56.9175 29.1392 56.4194 30.4819 56.6423 31.7913C56.8651 33.1007 57.7793 34.2029 59.028 34.6681C59.1131 34.6997 59.2016 34.7152 59.2896 34.7152C59.4621 34.7152 59.6324 34.6557 59.7693 34.5419C60.794 33.6899 61.2921 32.3473 61.0693 31.0379C60.8464 29.7286 59.9323 28.6263 58.6835 28.1612H58.6834ZM59.135 33.0559C58.6031 32.7194 58.2281 32.1694 58.121 31.5397C58.0139 30.9099 58.1858 30.2669 58.5764 29.7734C59.1083 30.1099 59.4833 30.6599 59.5905 31.2897C59.6976 31.9194 59.5256 32.5624 59.135 33.0559Z" fill="#E7B55E"/>
<path d="M27.5914 15.5739C27.8432 15.6262 28.0972 15.6516 28.3494 15.6516C29.4036 15.6516 30.4275 15.2064 31.1419 14.4073C32.0272 13.4172 32.3197 12.0153 31.9054 10.7486C31.8219 10.4933 31.608 10.302 31.3449 10.2475C30.0397 9.97665 28.6796 10.4239 27.7942 11.4142C26.909 12.4043 26.6165 13.8063 27.0309 15.0728C27.1144 15.3281 27.3282 15.5194 27.5914 15.5739ZM28.9125 12.4139C29.3384 11.9376 29.9484 11.6715 30.5777 11.6695C30.6459 12.2952 30.4495 12.9313 30.0237 13.4074C29.5979 13.8836 28.9879 14.1498 28.3585 14.1518C28.2904 13.5261 28.4867 12.8901 28.9125 12.4139Z" fill="#E7B55E"/>
<path d="M6.41842 20.1935C6.42867 20.1939 6.43892 20.1942 6.44905 20.1942C6.70605 20.1942 6.94617 20.0623 7.0838 19.8435C7.7933 18.7155 7.8498 17.2847 7.23142 16.1092C6.61292 14.9337 5.40167 14.1698 4.07017 14.1154C3.80117 14.104 3.5478 14.238 3.40467 14.4655C2.6953 15.5935 2.6388 17.0245 3.25717 18.1999C3.87555 19.3754 5.08692 20.1393 6.41842 20.1935ZM4.46917 15.681C5.0793 15.8358 5.60655 16.242 5.90392 16.8074C6.2013 17.3728 6.23755 18.0374 6.01942 18.6278C5.40942 18.4732 4.88217 18.0668 4.58467 17.5015C4.28717 16.9362 4.25105 16.2715 4.46905 15.6812L4.46917 15.681Z" fill="#E7B55E"/>
<path d="M59.8916 57.5998C59.5987 57.3069 59.1237 57.3069 58.8309 57.5998C58.5382 57.8927 58.5381 58.3675 58.8309 58.6604L59.7172 59.5467C59.8636 59.693 60.0556 59.7663 60.2476 59.7663C60.4396 59.7663 60.6314 59.693 60.7779 59.5467C61.0708 59.2538 61.0708 58.7789 60.7779 58.486L59.8917 57.5998H59.8916Z" fill="#E7B55E"/>
<path d="M61.6849 54.7976H60.4316C60.0175 54.7976 59.6816 55.1335 59.6816 55.5476C59.6816 55.9617 60.0175 56.2976 60.4316 56.2976H61.6849C62.099 56.2976 62.4349 55.9617 62.4349 55.5476C62.4349 55.1335 62.099 54.7976 61.6849 54.7976Z" fill="#E7B55E"/>
<path d="M56.7139 58.5149C56.2997 58.5149 55.9639 58.8508 55.9639 59.2649V60.5183C55.9639 60.9324 56.2997 61.2683 56.7139 61.2683C57.128 61.2683 57.4639 60.9324 57.4639 60.5183V59.2649C57.4639 58.8508 57.128 58.5149 56.7139 58.5149Z" fill="#E7B55E"/>
<path d="M51.6572 44.6589C52.0714 44.6589 52.4072 44.3231 52.4072 43.9089C52.4072 43.4947 52.0714 43.1589 51.6572 43.1589C51.243 43.1589 50.9072 43.4947 50.9072 43.9089C50.9072 44.3231 51.243 44.6589 51.6572 44.6589Z" fill="#E7B55E"/>
</g>
<defs>
<clipPath id="clip0_683_13181">
<rect width="64" height="64" fill="white"/>
</clipPath>
</defs>
</svg>
