<svg width="492" height="780" viewBox="0 0 492 780" fill="none" xmlns="http://www.w3.org/2000/svg">
<g opacity="0.08">
<path fill-rule="evenodd" clip-rule="evenodd" d="M208.418 373.137C212.218 379.778 215.623 386.776 221.129 392.072C227.627 398.324 233.478 405.579 240.368 411.009C252.555 420.605 264.491 430.697 278.692 437.593C287.955 442.084 297.229 446.876 306.302 451.938C314.873 456.729 324.361 457.785 334.065 456.378C335.881 456.116 337.068 454.762 337.923 453.097C326.346 437.185 311.097 425.806 294.604 416.342C284.712 410.673 274.707 405.088 264.772 399.491C252.09 392.361 239.361 385.336 226.645 378.255C220.769 374.984 213.859 377.075 208.418 373.137Z" fill="#E6B55E"/>
<path fill-rule="evenodd" clip-rule="evenodd" d="M283.736 307.426C280.131 311.869 279.111 324.519 281.689 329.908C285.51 337.919 288.439 346.35 291.778 354.571C295.165 362.914 298.556 371.441 303.712 378.859C305.84 381.917 305.807 385.641 307.68 388.97C312.173 396.943 317.511 404.396 323.032 411.286C331.9 422.352 339.193 435.212 351.487 443.014C353.816 436.682 352.912 430.21 350.948 424.36C346.031 409.692 339.575 395.652 333.918 381.282C327.658 365.365 319.381 350.383 309.798 336.217C302.392 325.241 295.018 314.488 283.736 307.426Z" fill="#E6B55E"/>
<path fill-rule="evenodd" clip-rule="evenodd" d="M139.955 254.763C139.106 264.004 144.626 270.833 149.772 276.234C170.017 297.439 189.651 319.461 213.389 336.653C224.441 344.658 236.206 351.461 248.941 356.222C252.483 357.549 254.938 361.198 259.059 361.023C259.934 360.984 260.809 360.415 261.675 360.085C261.421 350.814 254.782 345.103 249.302 340.126C228.213 320.975 208.548 300.071 185.88 282.829C180.898 279.043 175.619 275.664 170.446 272.148C160.727 265.529 150.532 259.801 139.955 254.763Z" fill="#E6B55E"/>
<path fill-rule="evenodd" clip-rule="evenodd" d="M283.646 307.546C294.902 314.606 302.268 325.366 309.672 336.324C319.242 350.485 327.51 365.471 333.759 381.37C339.409 395.734 345.857 409.768 350.766 424.429C352.718 430.279 353.63 436.747 351.304 443.076C354.342 447.15 356.571 446.7 358.444 441.834C360.586 436.272 363.395 430.945 365.199 425.278C368.504 414.915 363.826 405.796 360.445 396.643C354.999 381.877 346.253 368.911 339.369 354.961C330.524 337.037 317.222 324.501 300.834 314.78C297.393 312.747 294.395 309.923 291.127 307.557C288.716 305.806 286.193 304.669 283.646 307.546Z" fill="#B98650"/>
<path fill-rule="evenodd" clip-rule="evenodd" d="M208.387 373.112C213.827 377.039 220.738 374.959 226.625 378.239C239.332 385.322 252.061 392.346 264.754 399.475C274.686 405.061 284.691 410.646 294.585 416.326C311.089 425.789 326.328 437.17 337.905 453.082C339.541 451.835 339.046 450.355 338.384 448.87C334.107 439.322 329.743 429.821 323.498 421.446C313.234 407.675 299.742 398.147 285.195 390.101C271.061 382.277 257.032 374.166 242.189 367.788C230.933 362.953 219.93 366.704 209.024 370.255C207.609 370.719 207.624 371.936 208.387 373.112Z" fill="#B98650"/>
<path fill-rule="evenodd" clip-rule="evenodd" d="M139.94 254.793C150.515 259.83 160.72 265.556 170.449 272.183C175.621 275.698 180.899 279.077 185.881 282.863C208.546 300.103 228.206 320.994 249.294 340.153C254.773 345.13 261.412 350.84 261.665 360.111C263.125 360.772 264.394 362.892 266.166 361.481C267.846 360.15 266.709 358.235 266.397 356.515C263.139 338.903 255.348 324.462 242.573 312.103C226.46 296.525 209.342 282.37 191.211 269.713C180.137 261.984 168.021 255.111 153.501 255.751C149.558 255.929 145.898 252.634 141.607 253.368C141.427 253.636 141.2 253.717 140.906 253.615C140.577 254.006 140.258 254.394 139.94 254.793Z" fill="#B98650"/>
<path fill-rule="evenodd" clip-rule="evenodd" d="M51.3181 326.028C51.4446 327.916 52.8609 328.913 54.2627 329.283C62.3059 331.38 70.0073 334.436 78.4573 335.446C85.9955 336.348 93.4333 336.449 100.988 336.573C110.02 336.718 118.738 335.113 127.235 332.506C133.506 330.581 140.035 330.816 146.188 328.555C151.86 326.47 155.913 322.52 159.209 317.565C160.123 316.193 160.143 314.921 158.772 313.874C157.541 315.635 156.354 315.333 154.882 314.156C151.831 311.695 148.092 310.903 144.319 310.537C137.464 309.875 130.58 310.351 123.697 310.607C111.59 311.046 99.7036 313.599 87.8078 315.712C75.3866 317.905 62.3274 317.939 51.3181 326.028Z" fill="#E6B55E"/>
<path fill-rule="evenodd" clip-rule="evenodd" d="M51.1418 325.531C62.153 317.431 75.2146 317.396 87.6553 315.177C99.5634 313.059 111.442 310.504 123.551 310.064C130.435 309.808 137.332 309.34 144.177 309.994C147.95 310.361 151.69 311.154 154.742 313.618C156.204 314.798 157.402 315.11 158.632 313.336C158.226 312.711 157.831 312.085 157.426 311.471C157.428 311.481 157.146 311.309 157.146 311.309L156.974 311.033C155.726 310.058 154.476 309.073 153.228 308.099L153.093 308.016C141.115 297.437 127.021 295.063 111.39 296.658C98.78 297.951 86.313 299.68 73.9696 302.755C63.0919 305.465 56.9059 314.005 50.3941 322.202C49.3795 323.519 49.2828 324.838 51.1418 325.531Z" fill="#B98650"/>
<path fill-rule="evenodd" clip-rule="evenodd" d="M189.003 315.058C189.003 315.058 346.923 382.007 409.562 594.431C409.562 594.431 425.256 592.956 418.864 567.757C418.571 566.586 413.366 558.826 413.048 557.627C395.723 492.051 333.247 363.959 191.602 309.286" fill="#B98650"/>
<path fill-rule="evenodd" clip-rule="evenodd" d="M275.462 217.648C275.462 217.648 413.217 323.254 425.058 545.424C425.058 545.424 455.9 339.37 279.324 212.716" fill="#B98650"/>
<path fill-rule="evenodd" clip-rule="evenodd" d="M500.545 299.947C500.545 299.947 497.646 383.73 468.176 468.443C438.706 553.156 410.497 617.238 397.75 647.254C384.993 677.272 368.614 700.382 368.614 700.382C400.13 603.374 400.089 603.587 431.647 513.12C463.567 421.67 479.877 364.549 476.083 315.089C492.852 299.507 500.545 299.947 500.545 299.947Z" fill="#B98650"/>
<path fill-rule="evenodd" clip-rule="evenodd" d="M474.741 765.453C473.79 762.441 471.258 762.03 468.652 761.233C457.985 758.002 447.655 760.358 436.971 762.544C421.873 765.628 406.822 768.682 392.25 774.021C380.772 778.223 370.232 784.305 360.52 791.897C356.05 795.39 351.461 798.768 347.544 802.977C346.574 804.025 345.53 804.833 346.265 806.422C346.688 806.802 347.055 807.37 347.55 807.517C353.365 809.219 359.435 809.038 365.319 808.247C379.343 806.345 392.819 801.445 406.831 799.082C414.492 797.79 422.222 795.276 429.697 792.259C435.462 789.933 441.183 787.435 446.972 785.137C457.68 780.876 467.655 775.268 474.741 765.453Z" fill="#E6B55E"/>
<path fill-rule="evenodd" clip-rule="evenodd" d="M474.947 765.791C467.847 775.648 457.865 781.279 447.159 785.545C441.376 787.851 435.653 790.369 429.873 792.697C422.393 795.726 414.658 798.249 406.992 799.547C392.971 801.92 379.475 806.841 365.453 808.75C359.567 809.554 353.492 809.736 347.672 808.017C347.177 807.869 346.81 807.298 346.386 806.917C342.342 809.338 342.24 809.725 346.108 811.883C355.92 817.354 365.845 822.584 377.189 824.247C379.39 824.568 381.573 824.459 383.789 824.207C401.05 822.211 417.57 817.216 434.009 811.18C444.326 807.392 453.458 802.413 461.354 794.669C464.729 791.359 467.798 787.848 469.539 783.392C471.364 778.71 475.104 775.053 476.32 770.075C476.013 769.272 475.939 768.504 476.709 767.876C476.696 766.654 476.383 765.726 474.947 765.791Z" fill="#B98650"/>
<path fill-rule="evenodd" clip-rule="evenodd" d="M476.247 767.939C475.462 768.582 475.538 769.37 475.85 770.193C476.464 769.525 476.592 768.767 476.247 767.939Z" fill="#E6B55E"/>
<path fill-rule="evenodd" clip-rule="evenodd" d="M476.247 581.494C473.455 582.429 471.682 584.785 469.957 586.959C462 597.026 454.743 607.57 448.838 619.155C438.491 639.467 432.542 661.109 428.589 683.498C427.804 687.94 425.649 692.028 425.925 696.844C426.228 702.154 427.979 707.036 428.89 712.157C429.028 712.924 430.229 713.48 430.943 714.129C434.225 712.678 436.242 709.838 438.47 707.091C443.651 700.686 446.12 692.874 449.393 685.469C452.541 678.355 455.913 671.355 458.426 663.937C465.198 643.944 469.286 623.2 475.182 602.964C477.189 596.096 478.514 588.737 476.247 581.494Z" fill="#E6B55E"/>
<path fill-rule="evenodd" clip-rule="evenodd" d="M546.761 656.006C544.724 654.125 542.803 653.083 539.613 653.007C529.651 652.78 522.04 658.753 513.613 662.65C502.441 667.814 492.54 675.278 482.36 682.155C474.879 687.204 468.321 693.849 462.453 700.85C455.303 709.388 447.805 717.802 443.293 728.378C447.611 729.145 451.877 728.718 456.087 727.452C463.876 725.123 469.998 719.497 477.035 715.704C488.259 709.651 499.842 704.332 510.268 696.704C515.083 693.188 519.163 688.765 523.787 685.055C533.643 677.191 542.205 668.34 546.761 656.006Z" fill="#E6B55E"/>
<path fill-rule="evenodd" clip-rule="evenodd" d="M546.856 656.074C542.287 668.425 533.731 677.284 523.882 685.168C519.255 688.871 515.164 693.312 510.356 696.831C499.923 704.457 488.346 709.792 477.107 715.855C470.065 719.652 463.941 725.285 456.148 727.617C451.935 728.885 447.668 729.312 443.347 728.544C440.695 731.302 442.735 732.755 444.802 733.945C456.315 740.602 467.737 744.672 481.007 737.107C496.669 728.171 511.91 718.66 524.955 705.916C533.746 697.329 539.884 686.607 543.578 674.499C544.953 669.988 546.78 665.605 548.489 661.198C549.357 658.901 548.899 657.247 546.856 656.074Z" fill="#B98650"/>
<path fill-rule="evenodd" clip-rule="evenodd" d="M476.178 581.556C478.444 588.797 477.12 596.155 475.122 603.009C469.231 623.25 465.133 643.98 458.375 663.967C455.863 671.384 452.494 678.393 449.346 685.494C446.073 692.887 443.606 700.697 438.429 707.111C436.212 709.855 434.186 712.697 430.906 714.148C431.391 714.499 431.867 714.852 432.352 715.204C432.779 715.359 433.217 715.513 433.654 715.667C436.731 715.896 438.686 713.435 440.876 711.919C458.377 699.804 469.266 682.978 475.563 662.072C480.518 645.626 486.12 629.429 488.299 612.313C489.777 600.76 484.603 590.923 480.372 580.926C480.152 580.389 478.995 580.292 478.286 579.978C478.296 579.976 478.01 580.013 478.01 580.013C477.074 580.084 476.575 580.753 476.178 581.556Z" fill="#B98650"/>
<path fill-rule="evenodd" clip-rule="evenodd" d="M529.227 465.844C526.607 467.224 525.78 469.975 524.554 472.361C514.641 491.74 506.714 511.828 503.755 533.511C501.352 551.147 499.785 568.878 500.631 586.585C500.953 593.263 503.564 599.625 508.123 604.722C511.645 599.907 515 594.871 516.797 589.172C522.322 571.671 524.993 553.6 526.981 535.472C528.469 521.944 529.034 508.315 530.864 494.826C532.217 484.872 532.009 475.316 529.227 465.844Z" fill="#E6B55E"/>
<path fill-rule="evenodd" clip-rule="evenodd" d="M528.995 465.997C531.771 475.464 531.989 485.013 530.641 494.972C528.814 508.453 528.249 522.065 526.766 535.596C524.784 553.724 522.117 571.775 516.603 589.266C514.81 594.962 511.471 599.983 507.948 604.807C510.993 607.054 512.926 604.699 514.617 602.656C528.819 585.545 538.623 566.766 540.913 543.867C542.487 528.146 545.02 512.509 545.44 496.672C545.664 488.356 543.829 480.924 539.38 474.179L539.402 474.186C538.508 471.883 537.023 470.029 535.281 468.38L535.328 468.415C534.791 467.794 534.251 467.161 533.725 466.548C533.592 466.268 533.47 465.986 533.335 465.696C532.647 464.591 531.865 463.643 530.428 463.685C530.438 463.683 530.164 463.914 530.164 463.914C529.773 464.598 529.384 465.303 528.995 465.997Z" fill="#B98650"/>
<path fill-rule="evenodd" clip-rule="evenodd" d="M477.328 579.957C477.328 579.957 477.611 579.91 477.602 579.922L477.439 579.712L477.328 579.957Z" fill="#E6B55E"/>
<path fill-rule="evenodd" clip-rule="evenodd" d="M405.113 677.373C402.267 677.876 400.688 680.251 398.846 682.154C383.924 697.613 370.653 714.382 361.567 734.21C354.184 750.338 347.537 766.813 343.174 784.025C341.525 790.518 342.115 797.41 344.89 803.71C349.595 800.191 354.192 796.421 357.539 791.521C367.807 776.489 375.563 760.027 382.718 743.292C388.056 730.805 392.56 717.944 398.201 705.609C402.368 696.504 404.953 687.295 405.113 677.373Z" fill="#E6B55E"/>
<path fill-rule="evenodd" clip-rule="evenodd" d="M405.05 677.443C404.89 687.362 402.305 696.569 398.141 705.683C392.503 718.014 388 730.872 382.664 743.356C375.513 760.087 367.758 776.534 357.495 791.573C354.149 796.472 349.554 800.241 344.851 803.758C347.045 806.848 349.547 805.198 351.723 803.766C370.016 791.81 384.678 776.873 393.502 755.683C399.56 741.124 406.493 726.941 411.507 711.927C414.145 704.036 414.587 696.352 412.397 688.51L412.42 688.527C412.251 686.046 411.405 683.811 410.251 681.694L410.289 681.741C409.967 680.978 409.654 680.213 409.331 679.45C409.29 679.145 409.247 678.829 409.215 678.512C408.896 677.241 408.448 676.09 407.087 675.679L406.772 675.82C406.197 676.35 405.624 676.902 405.05 677.443Z" fill="#B98650"/>
<path fill-rule="evenodd" clip-rule="evenodd" d="M140.889 252.768C141.183 252.884 141.408 252.804 141.584 252.525L141.125 252.339L140.889 252.768Z" fill="#E6B55E"/>
<path fill-rule="evenodd" clip-rule="evenodd" d="M498.778 284.885C496.682 283.394 494.53 284.047 492.887 285.353C487.357 289.761 481.922 294.023 479.998 301.914C477.826 310.789 474.005 319.215 471.8 328.084C468.585 341.07 464.776 353.993 464.713 367.665C464.654 381.292 466.1 394.786 468.236 408.218C468.49 409.812 469.212 411.252 470.568 412.218C476.06 407.317 480.645 401.972 482.623 394.246C484.316 387.696 485.822 380.992 488.177 374.699C491.056 366.995 493.13 359.058 495.618 351.246C498.349 342.711 499.296 333.803 500.172 324.982C500.998 316.702 502.373 308.318 501.136 299.906C500.403 294.879 499.559 289.882 498.778 284.885Z" fill="#E6B55E"/>
<path fill-rule="evenodd" clip-rule="evenodd" d="M389.898 291.93C387.245 294.447 388.64 297.866 388.888 300.535C390.081 313.714 392.83 326.676 396.318 339.404C397.764 344.68 400.702 349.5 402.88 354.567C409.369 369.654 420.039 382.035 427.65 396.414C430.004 400.865 433.104 404.91 438.465 406.84C441.829 408.064 444.488 411.489 448.396 412.275C450.617 412.716 452.73 413.575 454.551 411.448C454.047 410.677 453.126 409.909 453.099 409.122C452.742 397.072 448.599 386.231 443.866 375.424C438.78 363.809 433.333 352.449 426.464 341.882C419.779 331.597 413.469 321.077 407.138 310.559C402.706 303.248 397.286 296.491 389.898 291.93Z" fill="#E6B55E"/>
<path fill-rule="evenodd" clip-rule="evenodd" d="M469.569 183.013C468.38 178.775 466.546 174.872 462.053 173.867C457.655 172.878 455.516 176.588 453.398 179.623C450.688 183.516 449.184 187.869 448.393 192.764C445.889 208.373 443.586 223.992 443.218 239.839C442.954 251.113 444.38 262.201 447.31 273.19C449.005 279.546 449.452 286.252 452.654 292.161C453.333 293.425 453.876 294.766 455.173 295.504C459.884 291.634 461.761 286.047 463.093 280.312C465.54 269.758 465.516 258.815 467.198 248.107C470.845 224.733 472.267 201.321 463.265 178.568C462.957 177.784 462.735 176.877 463.364 176.36C464.368 175.53 464.966 176.59 465.61 177.231C467.278 178.905 467.362 181.744 469.569 183.013Z" fill="#E6B55E"/>
<path fill-rule="evenodd" clip-rule="evenodd" d="M368.634 187.985C366.167 193.069 369.496 197.678 370.495 202.158C372.724 212.098 375.842 221.986 379.868 231.299C383.482 239.674 388.195 247.712 393.48 255.08C401.843 266.741 410.946 277.823 419.982 288.938C424.47 294.467 431 296.426 437.386 298.321C438.624 298.687 439.842 298.309 440.244 296.714C439.204 295.675 438.86 294.401 438.531 292.939C437.502 288.475 436.83 283.723 434.834 279.714C425.948 261.759 416.82 243.931 403.99 228.524C400.4 224.209 396.929 219.775 393.929 214.906C390.391 209.173 386.971 203.236 382.274 198.369C378.245 194.192 374.589 189.4 368.634 187.985Z" fill="#E6B55E"/>
<path fill-rule="evenodd" clip-rule="evenodd" d="M387.867 43.069C382.982 45.9679 380.135 53.4029 382.064 60.5412C384.273 68.6971 384.028 77.1317 385.724 85.3079C387.173 92.244 388.559 99.1905 389.905 106.144C392.608 120.135 397.967 133.261 404.184 145.754C408.335 154.108 411.607 163.39 418.57 170.112C418.149 164.351 420.975 159.157 420.469 153.161C419.542 142.152 416.548 131.554 415.306 120.62C413.142 101.413 407.614 83.0387 400.688 65.0492C397.563 56.8939 393.551 49.5272 387.867 43.069Z" fill="#E6B55E"/>
<path fill-rule="evenodd" clip-rule="evenodd" d="M316.508 82.4124C316.091 84.5593 316.544 86.8411 317.58 88.3972C322.234 95.369 324.796 103.493 329.355 110.524C338.155 124.099 349.128 135.697 359.401 147.931C361.541 150.48 363.752 152.801 366.948 153.918C368.192 154.358 369.533 155.268 370.277 156.365C374.468 162.549 380.898 166.031 386.549 170.023C391.394 173.448 397.661 176.73 404.333 173.671C403.816 171.67 403.325 169.709 402.376 167.813C395.676 154.491 385.793 143.716 376.278 132.76C366.675 121.689 355.255 112.546 344.507 102.717C336.993 95.8484 330.691 87.326 321.072 83.2233C319.573 82.5888 318.292 81.063 316.508 82.4124Z" fill="#E6B55E"/>
<path fill-rule="evenodd" clip-rule="evenodd" d="M498.68 284.981C499.461 289.985 500.302 294.97 501.032 299.983C502.269 308.401 500.895 316.769 500.07 325.046C499.195 333.861 498.25 342.765 495.523 351.296C493.04 359.103 490.969 367.036 488.096 374.735C485.744 381.025 484.24 387.714 482.55 394.272C480.566 401.996 475.988 407.337 470.516 412.234C470.39 416.036 472.76 416.007 475.113 415.254C491.02 410.198 502.481 400.969 507.368 382.984C511.265 368.654 514.527 354.258 516.243 339.601C517.775 326.46 514.95 313.595 508.673 301.744C506.525 297.695 504.743 293.432 502.818 289.259C501.921 287.308 500.628 285.802 498.68 284.981Z" fill="#B98650"/>
<path fill-rule="evenodd" clip-rule="evenodd" d="M389.852 291.995C397.229 296.543 402.642 303.297 407.064 310.65C413.387 321.163 419.689 331.68 426.365 341.96C433.226 352.523 438.665 363.878 443.745 375.489C448.472 386.292 452.609 397.128 452.966 409.174C452.993 409.961 453.911 410.717 454.416 411.499C455.455 410.805 456.169 409.872 456.428 408.593C456.144 407.676 456.397 406.951 457.064 406.351C457.414 398.706 460.491 391.48 459.955 383.68C459.151 371.937 457.151 360.665 450.841 350.465C447.276 344.702 444.451 338.424 441.422 332.322C437.359 324.182 431.701 317.166 426.898 309.552C420.87 300.03 412.136 294.94 402.046 291.855C398.824 290.868 395.575 289.917 392.297 289.2C390.339 288.759 388.773 289.261 389.852 291.995Z" fill="#B98650"/>
<path fill-rule="evenodd" clip-rule="evenodd" d="M281.452 -30.7026C279.27 -27.2489 280.952 -23.8382 281.684 -20.452C283.507 -11.9961 289.552 -5.79871 292.903 1.67467C299.018 15.3228 309.582 25.6562 316.133 38.9277C320.018 46.7987 326.036 53.5529 332.831 59.1585C340.718 65.6635 346.839 74.3501 355.799 79.5265C357.35 80.4248 358.375 82.332 360.504 82.0066C359.532 75.1838 357.397 68.8925 353.939 62.8885C350.314 56.5876 346.014 50.8118 342.212 44.6598C337.093 36.368 332.534 27.5381 326.468 20.0663C312.168 2.48668 300.471 -17.6966 281.452 -30.7026Z" fill="#E6B55E"/>
<path fill-rule="evenodd" clip-rule="evenodd" d="M469.449 183.104C467.234 181.837 467.161 178.997 465.494 177.313C464.861 176.67 464.263 175.61 463.251 176.441C462.623 176.959 462.844 177.865 463.152 178.649C472.142 201.395 470.721 224.801 467.08 248.167C465.41 258.871 465.434 269.81 462.98 280.363C461.649 286.096 459.776 291.682 455.071 295.551C454.825 299.702 456.101 300.53 459.852 298.654C464.822 296.161 469.594 293.29 473.934 289.873C479.487 285.493 481.202 278.546 482.535 271.858C485.706 255.892 486.831 239.499 485.384 223.385C484.069 208.746 479.27 194.603 469.449 183.104Z" fill="#B98650"/>
<path fill-rule="evenodd" clip-rule="evenodd" d="M368.597 188.008C374.558 189.411 378.204 194.215 382.229 198.38C386.923 203.235 390.343 209.182 393.879 214.914C396.89 219.791 400.347 224.215 403.936 228.53C416.76 243.934 425.882 261.748 434.765 279.71C436.75 283.721 437.423 288.471 438.461 292.933C438.8 294.393 439.145 295.678 440.173 296.708C440.559 296.188 440.946 295.679 441.341 295.157L441.557 294.764C443.21 281.313 442.458 268.3 437.648 255.296C434.777 247.535 430.676 240.815 426.404 234.059C417.955 220.703 409.354 207.449 398.16 196.353C390.467 188.72 380.627 186.441 370.698 184.492C367.37 183.838 367.338 185.544 368.597 188.008Z" fill="#B98650"/>
<path fill-rule="evenodd" clip-rule="evenodd" d="M387.676 43.195C393.333 49.6522 397.334 57.0262 400.469 65.1746C407.374 83.1563 412.884 101.512 415.042 120.721C416.272 131.663 419.256 142.246 420.19 153.248C420.693 159.231 417.888 164.432 418.297 170.193C419.994 171.83 421.202 170.348 422.212 169.321C429.538 161.954 435.306 153.946 434.3 142.283C432.486 121.41 427.813 101.091 419.877 82.0439C413.806 67.4613 403.793 54.9158 392.085 44.2708C390.942 43.2245 389.749 40.6995 387.676 43.195Z" fill="#B98650"/>
<path fill-rule="evenodd" clip-rule="evenodd" d="M316.489 82.4042C318.274 81.0655 319.553 82.5806 321.054 83.2257C330.683 87.3264 336.974 95.8501 344.487 102.719C355.234 112.547 366.654 121.69 376.256 132.76C385.76 143.717 395.643 154.492 402.352 167.812C403.3 169.697 403.792 171.669 404.309 173.669C406.607 172.515 406.516 170.367 406.054 168.314C402.284 151.514 397.204 135.215 385.29 122.598C376.116 112.894 367.522 102.508 356.813 94.4466C353.302 91.8039 350.158 88.6016 346.924 85.566C338.248 77.4221 327.611 76.7358 316.942 77.3095C311.874 77.5784 315.587 80.5444 316.489 82.4042Z" fill="#B98650"/>
<path fill-rule="evenodd" clip-rule="evenodd" d="M281.427 -30.662C300.438 -17.6686 312.141 2.50983 326.416 20.1007C332.48 27.5714 337.048 36.3982 342.155 44.6904C345.956 50.8415 350.254 56.6163 353.878 62.9163C357.335 68.9193 359.459 75.2114 360.441 82.0314C363.948 85.037 364.517 82.6239 364.615 79.521C365.085 63.9341 361.188 49.9262 352.754 36.7138C344.149 23.2484 334.448 10.7148 324.824 -1.85363C315.122 -14.5388 303.294 -24.8631 287.883 -29.5599C285.744 -30.2074 284.005 -33.0557 281.427 -30.662Z" fill="#B98650"/>
<path fill-rule="evenodd" clip-rule="evenodd" d="M441.589 295.223C441.589 295.223 441.363 295.618 441.374 295.616C441.472 295.654 441.57 295.681 441.679 295.716C441.646 295.559 441.613 295.392 441.589 295.223Z" fill="#E6B55E"/>
<path fill-rule="evenodd" clip-rule="evenodd" d="M220.968 225.588C224.878 232.003 228.414 238.74 233.872 243.98C240.3 250.172 246.16 257.272 252.914 262.726C264.858 272.354 276.602 282.45 290.314 289.66C299.263 294.367 308.229 299.333 317.017 304.566C325.333 309.517 334.31 311.012 343.39 310.227C345.096 310.081 346.146 308.878 346.864 307.37C335.181 291.87 320.265 280.395 304.263 270.652C294.667 264.809 284.969 259.048 275.343 253.287C263.05 245.934 250.709 238.676 238.4 231.359C232.697 227.975 226.283 229.557 220.968 225.588Z" fill="#E6B55E"/>
<path fill-rule="evenodd" clip-rule="evenodd" d="M289.462 168.494C286.309 172.43 285.968 184.145 288.637 189.303C292.593 196.951 295.736 204.958 299.254 212.785C302.82 220.724 306.401 228.846 311.572 236.013C313.708 238.974 313.848 242.432 315.772 245.634C320.355 253.288 325.709 260.513 331.194 267.217C340.013 277.993 347.456 290.34 359.307 298.265C361.176 292.491 360.01 286.426 357.902 280.883C352.609 266.97 345.888 253.571 339.909 239.899C333.287 224.765 324.839 210.373 315.196 196.674C307.748 186.068 300.34 175.662 289.462 168.494Z" fill="#E6B55E"/>
<path fill-rule="evenodd" clip-rule="evenodd" d="M151.286 112.607C150.933 121.18 156.456 127.867 161.563 133.174C181.635 154.06 201.175 175.673 224.331 193.003C235.113 201.068 246.5 208.056 258.708 213.182C262.102 214.612 264.6 218.156 268.465 218.215C269.288 218.223 270.072 217.738 270.889 217.486C270.2 208.82 263.68 203.132 258.286 198.186C237.527 179.163 218.016 158.6 195.859 141.283C190.99 137.481 185.866 134.047 180.825 130.48C171.351 123.78 161.478 117.874 151.286 112.607Z" fill="#E6B55E"/>
<path fill-rule="evenodd" clip-rule="evenodd" d="M289.461 168.494C300.339 175.662 307.747 186.068 315.205 196.672C324.848 210.371 333.295 224.752 339.918 239.897C345.897 253.569 352.618 266.968 357.911 280.881C360.019 286.424 361.187 292.5 359.316 298.263C362.345 302.21 364.421 301.917 365.94 297.495C367.675 292.428 370.045 287.629 371.455 282.452C374.044 272.984 369.222 264.247 365.619 255.553C359.804 241.518 350.998 228.989 343.883 215.632C334.746 198.469 321.695 186.094 305.883 176.168C302.568 174.083 299.627 171.307 296.453 168.917C294.119 167.141 291.705 165.955 289.461 168.494Z" fill="#B98650"/>
<path fill-rule="evenodd" clip-rule="evenodd" d="M220.972 225.589C226.287 229.558 232.692 227.988 238.394 231.361C250.711 238.666 263.043 245.926 275.337 253.289C284.963 259.051 294.661 264.811 304.257 270.654C320.259 280.397 335.173 291.861 346.858 307.372C348.337 306.295 347.795 304.892 347.094 303.461C342.601 294.302 338.033 285.188 331.739 277.016C321.394 263.583 308.226 253.947 294.138 245.634C280.433 237.553 266.834 229.204 252.539 222.447C241.699 217.317 231.518 220.227 221.415 222.961C220.127 223.3 220.199 224.441 220.972 225.589Z" fill="#B98650"/>
<path fill-rule="evenodd" clip-rule="evenodd" d="M151.292 112.606C161.484 117.873 171.357 123.78 180.831 130.479C185.862 134.048 190.996 137.481 195.865 141.282C218.022 158.6 237.533 179.162 258.292 198.186C263.687 203.131 270.217 208.817 270.895 217.485C272.302 218.182 273.595 220.224 275.198 219.007C276.708 217.86 275.555 216.002 275.167 214.39C271.251 197.774 263.225 183.879 250.595 171.642C234.688 156.228 217.905 142.086 200.229 129.297C189.442 121.483 177.704 114.41 164.084 114.233C160.374 114.181 156.785 110.912 152.779 111.365C152.629 111.606 152.412 111.674 152.128 111.557C151.859 111.905 151.571 112.256 151.292 112.606Z" fill="#B98650"/>
<path fill-rule="evenodd" clip-rule="evenodd" d="M573.441 93.7302C573.441 93.7302 609.99 269.482 479.218 443.782C479.218 443.782 631.756 311.52 579.43 92.7607" fill="#B98650"/>
<path fill-rule="evenodd" clip-rule="evenodd" d="M369.813 112.699C369.813 112.699 481.492 248.455 445.651 467.718C445.651 467.718 519.646 274.342 374.629 108.819" fill="#B98650"/>
</g>
</svg>
