<svg width="143" height="160" viewBox="0 0 143 160" fill="none" xmlns="http://www.w3.org/2000/svg">
<g opacity="0.13">
<path fill-rule="evenodd" clip-rule="evenodd" d="M94.0052 76.0732C93.1158 77.6274 92.3189 79.2653 91.0302 80.5049C89.5095 81.9679 88.1401 83.666 86.5275 84.9368C83.6751 87.1829 80.8816 89.5449 77.5579 91.1588C75.3899 92.21 73.2194 93.3314 71.0958 94.5162C69.0899 95.6376 66.8692 95.8847 64.5979 95.5554C64.1731 95.4939 63.8952 95.177 63.6952 94.7874C66.4046 91.0633 69.9736 88.4002 73.8338 86.1849C76.149 84.8582 78.4907 83.551 80.8157 82.241C83.7839 80.5723 86.7632 78.9282 89.7394 77.271C91.1147 76.5054 92.7317 76.9947 94.0052 76.0732Z" fill="#E6B55E"/>
<path fill-rule="evenodd" clip-rule="evenodd" d="M76.3782 60.6934C77.2219 61.7333 77.4604 64.6939 76.8571 65.9553C75.963 67.8301 75.2773 69.8033 74.4959 71.7275C73.7033 73.6803 72.9095 75.676 71.7027 77.4121C71.2048 78.1278 71.2125 78.9995 70.7741 79.7785C69.7225 81.6446 68.4731 83.3888 67.181 85.0015C65.1054 87.5915 63.3985 90.6012 60.5213 92.4274C59.9762 90.9454 60.1876 89.4306 60.6474 88.0614C61.798 84.6285 63.3091 81.3423 64.6332 77.9791C66.0982 74.2539 68.0356 70.7474 70.2784 67.4318C72.0116 64.863 73.7376 62.3462 76.3782 60.6934Z" fill="#E6B55E"/>
<path fill-rule="evenodd" clip-rule="evenodd" d="M110.029 48.368C110.227 50.5309 108.936 52.1291 107.731 53.3931C102.993 58.3562 98.3978 63.5103 92.8418 67.5341C90.2553 69.4075 87.5017 70.9999 84.5212 72.1141C83.6922 72.4246 83.1174 73.2787 82.153 73.2377C81.9481 73.2285 81.7435 73.0954 81.5408 73.0183C81.6002 70.8484 83.154 69.5117 84.4366 68.3469C89.3724 63.8646 93.9749 58.9722 99.2803 54.9366C100.446 54.0506 101.682 53.2597 102.893 52.4368C105.167 50.8877 107.553 49.547 110.029 48.368Z" fill="#E6B55E"/>
<path fill-rule="evenodd" clip-rule="evenodd" d="M76.3989 60.7214C73.7643 62.3739 72.0403 64.8921 70.3074 67.4569C68.0677 70.7711 66.1326 74.2785 64.67 77.9997C63.3477 81.3614 61.8386 84.6462 60.6895 88.0776C60.2328 89.4466 60.0192 90.9605 60.5636 92.4418C59.8528 93.3953 59.331 93.2899 58.8925 92.151C58.3913 90.8493 57.7338 89.6026 57.3116 88.2762C56.5381 85.8509 57.633 83.7166 58.4244 81.5744C59.6988 78.1184 61.746 75.0838 63.3571 71.8187C65.4271 67.6238 68.5404 64.6897 72.3761 62.4147C73.1813 61.9386 73.883 61.2779 74.6479 60.724C75.2122 60.3141 75.8028 60.0481 76.3989 60.7214Z" fill="#B98650"/>
<path fill-rule="evenodd" clip-rule="evenodd" d="M94.0125 76.0672C92.7394 76.9863 91.1219 76.4994 89.744 77.2671C86.77 78.9248 83.7907 80.5689 80.8202 82.2372C78.4954 83.5447 76.1538 84.8519 73.8382 86.1812C69.9756 88.3961 66.4089 91.0596 63.6995 94.7838C63.3163 94.4921 63.4323 94.1456 63.5872 93.7981C64.5883 91.5634 65.6095 89.3397 67.0711 87.3795C69.4736 84.1565 72.6313 81.9264 76.036 80.0434C79.344 78.2123 82.6275 76.3139 86.1014 74.8212C88.7358 73.6895 91.3109 74.5673 93.8634 75.3984C94.1946 75.5071 94.1913 75.7918 94.0125 76.0672Z" fill="#B98650"/>
<path fill-rule="evenodd" clip-rule="evenodd" d="M110.031 48.3754C107.556 49.5543 105.167 50.8944 102.89 52.4454C101.68 53.2682 100.445 54.059 99.2785 54.9449C93.9738 58.9801 89.3724 63.8695 84.4368 68.3536C83.1544 69.5183 81.6008 70.8548 81.5414 73.0245C81.1998 73.1794 80.9028 73.6756 80.488 73.3453C80.0948 73.0338 80.3609 72.5855 80.4339 72.1831C81.1966 68.0609 83.0199 64.6812 86.0099 61.7886C89.7812 58.1426 93.7875 54.8295 98.0311 51.8674C100.623 50.0584 103.458 48.4497 106.857 48.5996C107.78 48.6412 108.636 47.8701 109.641 48.0417C109.683 48.1045 109.736 48.1235 109.805 48.0997C109.882 48.1911 109.956 48.282 110.031 48.3754Z" fill="#B98650"/>
<path fill-rule="evenodd" clip-rule="evenodd" d="M130.771 65.0471C130.741 65.4889 130.41 65.7224 130.082 65.8091C128.199 66.2997 126.397 67.015 124.419 67.2514C122.655 67.4626 120.914 67.4862 119.146 67.5151C117.032 67.5491 114.992 67.1733 113.003 66.5633C111.535 66.1128 110.007 66.1677 108.567 65.6385C107.24 65.1505 106.291 64.226 105.519 63.0664C105.305 62.7454 105.301 62.4475 105.622 62.2025C105.91 62.6147 106.188 62.544 106.532 62.2686C107.246 61.6926 108.121 61.5073 109.004 61.4215C110.609 61.2666 112.22 61.378 113.831 61.4379C116.664 61.5407 119.446 62.1381 122.231 62.6328C125.138 63.1459 128.194 63.154 130.771 65.0471Z" fill="#E6B55E"/>
<path fill-rule="evenodd" clip-rule="evenodd" d="M130.812 64.9308C128.235 63.035 125.178 63.0269 122.266 62.5075C119.479 62.0118 116.699 61.4139 113.865 61.3109C112.254 61.251 110.639 61.1414 109.037 61.2945C108.154 61.3804 107.279 61.566 106.565 62.1428C106.222 62.419 105.942 62.4918 105.654 62.0766C105.749 61.9305 105.842 61.7839 105.936 61.6402C105.936 61.6426 106.002 61.6022 106.002 61.6022L106.042 61.5377C106.334 61.3096 106.627 61.079 106.919 60.8509L106.951 60.8317C109.754 58.3555 113.053 57.8 116.711 58.1734C119.662 58.4758 122.58 58.8807 125.469 59.6002C128.015 60.2344 129.463 62.2333 130.987 64.1517C131.224 64.4601 131.247 64.7687 130.812 64.9308Z" fill="#B98650"/>
<path fill-rule="evenodd" clip-rule="evenodd" d="M98.5484 62.4794C98.5484 62.4794 61.5877 78.1487 46.9274 127.866C46.9274 127.866 43.2542 127.521 44.7502 121.623C44.8188 121.349 46.0371 119.532 46.1114 119.252C50.1663 103.904 64.7887 73.9244 97.94 61.1285" fill="#B98650"/>
<path fill-rule="evenodd" clip-rule="evenodd" d="M78.3125 39.6814C78.3125 39.6814 46.0715 64.398 43.3001 116.396C43.3001 116.396 36.0816 68.1698 77.4086 38.527" fill="#B98650"/>
<path fill-rule="evenodd" clip-rule="evenodd" d="M25.6343 58.9435C25.6343 58.9435 26.3129 78.5526 33.2103 98.3793C40.1077 118.206 46.7099 133.204 49.6933 140.229C52.679 147.255 56.5124 152.664 56.5124 152.664C49.1361 129.959 49.1457 130.009 41.7597 108.836C34.2891 87.4323 30.4716 74.0634 31.3598 62.4873C27.435 58.8405 25.6343 58.9435 25.6343 58.9435Z" fill="#B98650"/>
<path fill-rule="evenodd" clip-rule="evenodd" d="M31.322 124.838C31.9755 125.057 32.3904 125.608 32.7941 126.117C34.6565 128.473 36.3549 130.941 37.737 133.652C40.1586 138.407 41.5511 143.472 42.4762 148.712C42.6599 149.751 43.1643 150.708 43.0998 151.835C43.0289 153.078 42.619 154.221 42.4057 155.419C42.3734 155.599 42.0924 155.729 41.9252 155.881C41.1571 155.541 40.685 154.877 40.1636 154.234C38.9509 152.735 38.3732 150.906 37.607 149.173C36.8702 147.508 36.081 145.87 35.4929 144.134C33.9079 139.454 32.9511 134.599 31.5712 129.863C31.1014 128.256 30.7913 126.533 31.322 124.838Z" fill="#E6B55E"/>
<path fill-rule="evenodd" clip-rule="evenodd" d="M14.8168 142.278C15.2938 141.837 15.7433 141.594 16.4899 141.576C18.8215 141.523 20.6028 142.92 22.5752 143.833C25.1898 145.041 27.5072 146.788 29.8896 148.398C31.6407 149.579 33.1755 151.135 34.5488 152.773C36.2223 154.771 37.9772 156.741 39.0333 159.216C38.0226 159.396 37.0242 159.296 36.0387 158.999C34.2158 158.454 32.7831 157.137 31.1359 156.25C28.5092 154.833 25.7981 153.588 23.358 151.803C22.2309 150.98 21.276 149.945 20.1939 149.076C17.8872 147.236 15.8832 145.164 14.8168 142.278Z" fill="#E6B55E"/>
<path fill-rule="evenodd" clip-rule="evenodd" d="M0.644967 107.619C1.29425 106.539 2.13027 107.389 2.82611 107.507C4.64887 107.811 5.40472 109.638 6.66162 110.754C8.97892 112.813 10.7136 115.439 12.7618 117.762C16.1621 121.612 18.2495 126.265 20.1272 131.031C20.2614 131.372 20.5444 131.758 20.1364 132.114C18.8639 132.155 17.9326 131.397 17.099 130.547C15.7628 129.183 14.4534 127.783 13.2128 126.324C11.462 124.266 9.27735 122.646 7.77434 120.339C6.80604 118.855 5.68907 117.465 4.81322 115.926C3.71262 113.983 2.30825 112.221 1.64421 109.995C1.41248 109.206 1.24189 108.291 0.644967 107.619Z" fill="#E6B55E"/>
<path fill-rule="evenodd" clip-rule="evenodd" d="M2.79178 74.0304C3.4789 73.8923 3.81682 74.4055 4.19811 74.8525C5.55144 76.4392 6.41817 78.2992 7.14413 80.2598C8.86542 84.9237 10.6643 89.5727 11.855 94.4061C12.7713 98.1307 13.0985 101.972 13.0595 105.818C13.0532 106.387 12.8331 106.951 12.7128 107.517C11.7231 106.696 11.1795 105.56 10.6244 104.42C9.29525 101.698 8.80941 98.6799 7.65774 95.8743C6.42784 92.878 5.47362 89.7226 4.83435 86.5111C4.05224 82.5934 2.64643 78.7611 3.09406 74.6594C3.11352 74.4674 2.89889 74.2412 2.79178 74.0304Z" fill="#E6B55E"/>
<path fill-rule="evenodd" clip-rule="evenodd" d="M14.7954 142.294C15.8647 145.184 17.8673 147.258 20.1725 149.103C21.2555 149.97 22.2129 151.009 23.3382 151.833C25.7798 153.618 28.4896 154.866 31.12 156.285C32.768 157.174 34.2014 158.492 36.0253 159.038C37.0112 159.335 38.0101 159.435 39.0214 159.255C39.6421 159.901 39.1645 160.241 38.6809 160.519C35.9862 162.077 33.313 163.03 30.2071 161.259C26.5415 159.168 22.9744 156.942 19.9213 153.959C17.8639 151.949 16.4272 149.44 15.5627 146.606C15.2408 145.55 14.8133 144.524 14.4131 143.493C14.2101 142.955 14.3172 142.568 14.7954 142.294Z" fill="#B98650"/>
<path fill-rule="evenodd" clip-rule="evenodd" d="M31.3363 124.853C30.8058 126.547 31.1158 128.27 31.5833 129.874C32.9621 134.611 33.9212 139.463 35.503 144.141C36.0908 145.877 36.8793 147.517 37.616 149.179C38.3822 150.909 38.9596 152.737 40.1713 154.239C40.6901 154.881 41.1643 155.546 41.932 155.885C41.8183 155.968 41.7071 156.05 41.5935 156.132C41.4935 156.169 41.3912 156.205 41.2888 156.241C40.5685 156.295 40.1111 155.718 39.5986 155.364C35.5025 152.528 32.954 148.59 31.48 143.697C30.3205 139.848 29.0093 136.057 28.4992 132.051C28.1533 129.347 29.3644 127.045 30.3545 124.705C30.406 124.58 30.6768 124.557 30.8428 124.483C30.8404 124.483 30.9073 124.492 30.9073 124.492C31.1264 124.508 31.2433 124.665 31.3363 124.853Z" fill="#B98650"/>
<path fill-rule="evenodd" clip-rule="evenodd" d="M0.633016 107.626C1.23008 108.297 1.4007 109.213 1.63687 110.005C2.30106 112.232 3.70574 113.994 4.80659 115.938C5.67992 117.479 6.79749 118.867 7.76837 120.352C9.27172 122.659 11.4545 124.28 13.208 126.338C14.4489 127.798 15.7586 129.198 17.0951 130.563C17.9289 131.413 18.8604 132.171 20.1332 132.13C20.7069 133.144 20.5967 133.396 19.5226 133.576C16.4646 134.084 13.9078 133.219 11.72 130.764C8.83867 127.53 6.01118 124.258 3.81095 120.482C2.26233 117.821 1.24129 114.921 0.946716 111.796C0.833153 110.61 0.338541 109.481 0.413823 108.261C0.426176 108.015 0.417529 107.781 0.633016 107.626Z" fill="#B98650"/>
<path fill-rule="evenodd" clip-rule="evenodd" d="M18.9188 97.7712C19.5318 98.0942 19.7255 98.7381 20.0123 99.2965C22.3325 103.832 24.1877 108.534 24.8802 113.608C25.4428 117.736 25.8096 121.886 25.6114 126.03C25.5362 127.593 24.9251 129.082 23.8579 130.275C23.0336 129.148 22.2485 127.97 21.8279 126.636C20.5347 122.54 19.9095 118.31 19.4442 114.067C19.0962 110.901 18.9638 107.711 18.5355 104.554C18.2189 102.225 18.2676 99.9881 18.9188 97.7712Z" fill="#E6B55E"/>
<path fill-rule="evenodd" clip-rule="evenodd" d="M18.9734 97.807C18.3236 100.023 18.2726 102.258 18.5882 104.588C19.0156 107.744 19.148 110.929 19.495 114.096C19.959 118.339 20.5832 122.564 21.8736 126.658C22.2932 127.991 23.0747 129.166 23.8993 130.295C23.1866 130.821 22.7342 130.27 22.3385 129.791C19.0144 125.787 16.7199 121.392 16.1839 116.032C15.8156 112.353 15.2228 108.693 15.1245 104.986C15.072 103.04 15.5016 101.301 16.5428 99.722L16.5376 99.7236C16.7467 99.1847 17.0944 98.7506 17.502 98.3647L17.491 98.373C17.6169 98.2274 17.7431 98.0794 17.8662 97.936C17.8973 97.8704 17.926 97.8044 17.9575 97.7364C18.1185 97.4779 18.3016 97.2561 18.638 97.2658C18.6356 97.2653 18.6997 97.3194 18.6997 97.3194C18.7913 97.4795 18.8822 97.6445 18.9734 97.807Z" fill="#B98650"/>
<path fill-rule="evenodd" clip-rule="evenodd" d="M2.79303 74.0355C2.89773 74.2459 3.11469 74.4725 3.09285 74.6641C2.64567 78.7629 4.05081 82.5974 4.83273 86.5147C5.47424 89.7264 6.42585 92.8811 7.65546 95.8771C8.80686 98.6825 9.29259 101.701 10.6215 104.422C11.1764 105.562 11.7222 106.699 12.7094 107.519C12.8796 107.819 12.9745 108.152 12.6372 108.351C12.3214 108.536 12.0862 108.248 11.8378 108.054C8.96884 105.84 6.72236 103.234 5.50875 99.5813C3.839 94.5511 2.17704 89.535 1.45409 84.2683C0.997568 80.9533 1.40149 77.6891 2.39831 74.5246C2.42695 74.4939 2.44404 74.4587 2.4455 74.4133C2.56316 74.286 2.67809 74.1608 2.79303 74.0355Z" fill="#B98650"/>
<path fill-rule="evenodd" clip-rule="evenodd" d="M31.0675 124.479C31.0675 124.479 31.0012 124.467 31.0033 124.47L31.0416 124.421L31.0675 124.479Z" fill="#E6B55E"/>
<path fill-rule="evenodd" clip-rule="evenodd" d="M47.9668 147.278C48.6329 147.396 49.0026 147.952 49.4337 148.397C52.926 152.015 56.0321 155.94 58.1586 160.581C59.8866 164.355 61.4422 168.211 62.4636 172.24C62.8493 173.759 62.7114 175.373 62.0618 176.847C60.9608 176.023 59.8848 175.141 59.1014 173.994C56.6981 170.476 54.8829 166.623 53.2084 162.706C51.959 159.784 50.9049 156.774 49.5847 153.887C48.6094 151.756 48.0042 149.6 47.9668 147.278Z" fill="#E6B55E"/>
<path fill-rule="evenodd" clip-rule="evenodd" d="M47.982 147.295C48.0194 149.616 48.6244 151.771 49.5989 153.904C50.9186 156.79 51.9723 159.799 53.2212 162.721C54.8951 166.637 56.7099 170.486 59.112 174.006C59.8951 175.153 60.9706 176.035 62.0712 176.858C61.5578 177.581 60.9723 177.195 60.4629 176.86C56.1816 174.062 52.7499 170.566 50.6847 165.606C49.267 162.199 47.6443 158.879 46.4707 155.365C45.8533 153.518 45.7499 151.72 46.2625 149.885L46.2571 149.889C46.2967 149.308 46.4946 148.785 46.7646 148.289L46.7557 148.3C46.8312 148.122 46.9044 147.943 46.9799 147.764C46.9896 147.693 46.9996 147.619 47.0072 147.545C47.0817 147.247 47.1866 146.978 47.5051 146.882L47.5789 146.915C47.7136 147.039 47.8476 147.168 47.982 147.295Z" fill="#B98650"/>
<path fill-rule="evenodd" clip-rule="evenodd" d="M109.808 47.9001C109.74 47.9269 109.687 47.9083 109.647 47.8438L109.753 47.8005L109.808 47.9001Z" fill="#E6B55E"/>
<path fill-rule="evenodd" clip-rule="evenodd" d="M26.0479 55.4179C26.5386 55.0689 27.0422 55.2219 27.4268 55.5275C28.721 56.5592 29.9931 57.5567 30.4433 59.4034C30.9518 61.4807 31.8461 63.4527 32.362 65.5286C33.1146 68.5679 34.006 71.5925 34.0208 74.7922C34.0346 77.9816 33.6962 81.1398 33.1963 84.2836C33.1369 84.6568 32.9677 84.9938 32.6505 85.2197C31.3651 84.0727 30.292 82.8218 29.829 81.0136C29.4326 79.4804 29.0803 77.9115 28.529 76.4386C27.8553 74.6356 27.3699 72.7779 26.7876 70.9496C26.1484 68.9519 25.9268 66.867 25.7217 64.8026C25.5284 62.8645 25.2065 60.9023 25.496 58.9336C25.6676 57.7571 25.8651 56.5875 26.0479 55.4179Z" fill="#E6B55E"/>
<path fill-rule="evenodd" clip-rule="evenodd" d="M51.5282 57.0671C52.1493 57.656 51.8226 58.4563 51.7647 59.081C51.4854 62.1655 50.8421 65.1991 50.0256 68.1782C49.6872 69.413 48.9998 70.5411 48.4899 71.7269C46.9712 75.2581 44.4738 78.1557 42.6925 81.521C42.1417 82.5629 41.4161 83.5095 40.1613 83.9612C39.374 84.2478 38.7517 85.0493 37.8371 85.2334C37.3172 85.3365 36.8227 85.5377 36.3965 85.0399C36.5145 84.8592 36.7301 84.6797 36.7362 84.4955C36.8199 81.675 37.7896 79.1378 38.8973 76.6084C40.0876 73.89 41.3624 71.2313 42.9702 68.758C44.5347 66.351 46.0116 63.8887 47.4932 61.4271C48.5307 59.7158 49.7991 58.1346 51.5282 57.0671Z" fill="#E6B55E"/>
<path fill-rule="evenodd" clip-rule="evenodd" d="M32.8814 31.5756C33.1598 30.5836 33.5889 29.6702 34.6407 29.4349C35.6699 29.2035 36.1705 30.0719 36.6662 30.7821C37.3004 31.6933 37.6526 32.7121 37.8376 33.8578C38.4236 37.511 38.9628 41.1665 39.0487 44.8756C39.1106 47.5141 38.7768 50.1093 38.0912 52.6811C37.6944 54.1688 37.5899 55.7384 36.8404 57.1212C36.6814 57.4171 36.5543 57.731 36.2509 57.9037C35.1481 56.9979 34.709 55.6903 34.3972 54.3481C33.8244 51.8779 33.8301 49.3167 33.4363 46.8105C32.5829 41.3401 32.25 35.8604 34.3569 30.5352C34.4291 30.3517 34.4808 30.1395 34.3337 30.0184C34.0988 29.8241 33.9588 30.0724 33.808 30.2224C33.4176 30.6141 33.3981 31.2787 32.8814 31.5756Z" fill="#E6B55E"/>
<path fill-rule="evenodd" clip-rule="evenodd" d="M56.507 32.7391C57.0843 33.929 56.3052 35.0077 56.0713 36.0562C55.5496 38.3826 54.82 40.6969 53.8777 42.8766C53.0317 44.8366 51.9288 46.7179 50.6917 48.4423C48.7346 51.1716 46.6039 53.7653 44.4892 56.3667C43.4388 57.6609 41.9104 58.1192 40.4157 58.5628C40.1259 58.6486 39.841 58.5601 39.7468 58.1867C39.9903 57.9436 40.0709 57.6453 40.1478 57.3032C40.3885 56.2583 40.546 55.1462 41.0131 54.2078C43.0927 50.0055 45.2291 45.8331 48.232 42.2271C49.0722 41.2171 49.8845 40.1795 50.5868 39.0397C51.4148 37.698 52.2153 36.3085 53.3146 35.1695C54.2575 34.1919 55.1132 33.0703 56.507 32.7391Z" fill="#E6B55E"/>
<path fill-rule="evenodd" clip-rule="evenodd" d="M52.0052 -1.17815C53.1484 -0.499677 53.8148 1.24045 53.3633 2.91116C52.8463 4.82001 52.9037 6.7941 52.5067 8.70771C52.1677 10.3311 51.8431 11.9569 51.5282 13.5843C50.8955 16.8589 49.6413 19.9309 48.1862 22.855C47.2146 24.8101 46.4488 26.9824 44.8192 28.5559C44.9176 27.2076 44.2563 25.9918 44.3748 24.5884C44.5916 22.0119 45.2924 19.5314 45.5832 16.9723C46.0895 12.4771 47.3834 8.17661 49.0045 3.96624C49.7357 2.05751 50.6749 0.333379 52.0052 -1.17815Z" fill="#E6B55E"/>
<path fill-rule="evenodd" clip-rule="evenodd" d="M68.7065 8.03015C68.8041 8.53263 68.6983 9.06667 68.4557 9.43088C67.3665 11.0626 66.7667 12.964 65.6998 14.6097C63.6403 17.7868 61.072 20.5011 58.6675 23.3645C58.1668 23.9612 57.6492 24.5044 56.9013 24.7659C56.6101 24.8687 56.2963 25.0817 56.1222 25.3385C55.1412 26.7859 53.6362 27.6009 52.3138 28.5351C51.1798 29.3366 49.713 30.1048 48.1515 29.3889C48.2725 28.9207 48.3874 28.4616 48.6095 28.018C50.1775 24.8998 52.4908 22.378 54.7176 19.8138C56.9652 17.2227 59.638 15.0829 62.1536 12.7825C63.9121 11.1748 65.387 9.18015 67.6383 8.21994C67.9892 8.07143 68.2891 7.71433 68.7065 8.03015Z" fill="#E6B55E"/>
<path fill-rule="evenodd" clip-rule="evenodd" d="M26.0699 55.4406C25.887 56.612 25.6902 57.7785 25.5193 58.9519C25.2299 60.922 25.5516 62.8807 25.7446 64.8177C25.9493 66.881 26.1706 68.9648 26.8087 70.9614C27.39 72.7887 27.8746 74.6453 28.5471 76.4474C29.0975 77.9195 29.4496 79.4851 29.8449 81.0199C30.3095 82.8276 31.3808 84.0778 32.6616 85.2237C32.6911 86.1138 32.1363 86.1068 31.5856 85.9306C27.8626 84.7472 25.1802 82.5872 24.0365 78.3779C23.1245 75.0241 22.3609 71.6547 21.9593 68.2243C21.6009 65.1487 22.262 62.1378 23.7311 59.3641C24.2338 58.4164 24.6508 57.4187 25.1015 56.442C25.3114 55.9852 25.6141 55.6328 26.0699 55.4406Z" fill="#B98650"/>
<path fill-rule="evenodd" clip-rule="evenodd" d="M51.5407 57.0825C49.8142 58.1471 48.5474 59.7277 47.5123 61.4487C46.0325 63.9092 44.5575 66.3706 42.9951 68.7766C41.3893 71.249 40.1162 73.9066 38.9274 76.624C37.8211 79.1523 36.8527 81.6886 36.7691 84.5079C36.7629 84.6921 36.548 84.869 36.4298 85.0521C36.1866 84.8895 36.0196 84.6712 35.9589 84.3719C36.0254 84.1573 35.9662 83.9875 35.8101 83.8472C35.7281 82.0578 35.0079 80.3667 35.1333 78.5411C35.3216 75.7927 35.7896 73.1546 37.2665 70.7671C38.101 69.4183 38.762 67.9491 39.4709 66.5208C40.422 64.6158 41.7462 62.9738 42.8703 61.1916C44.2811 58.963 46.3253 57.7717 48.6869 57.0497C49.441 56.8187 50.2013 56.5963 50.9686 56.4284C51.4268 56.3252 51.7934 56.4426 51.5407 57.0825Z" fill="#B98650"/>
<path fill-rule="evenodd" clip-rule="evenodd" d="M76.9108 -18.4439C77.4215 -17.6356 77.0278 -16.8373 76.8565 -16.0448C76.4298 -14.0657 75.0151 -12.6153 74.2308 -10.8661C72.7995 -7.67184 70.3271 -5.25336 68.7937 -2.14721C67.8845 -0.305024 66.476 1.27578 64.8858 2.58775C63.0398 4.11022 61.6073 6.14328 59.51 7.3548C59.1471 7.56504 58.9072 8.01142 58.4089 7.93526C58.6363 6.33841 59.1361 4.86595 59.9455 3.46074C60.7938 1.98603 61.8003 0.634234 62.6901 -0.805635C63.8882 -2.74629 64.9553 -4.81289 66.3751 -6.56165C69.7217 -10.6761 72.4594 -15.3999 76.9108 -18.4439Z" fill="#E6B55E"/>
<path fill-rule="evenodd" clip-rule="evenodd" d="M32.9111 31.5963C33.4294 31.2999 33.4465 30.6351 33.8367 30.241C33.9849 30.0907 34.1248 29.8425 34.3617 30.037C34.5087 30.1581 34.457 30.3703 34.3849 30.5537C32.2809 35.8773 32.6133 41.3554 33.4655 46.8242C33.8565 49.3293 33.8507 51.8898 34.4251 54.3596C34.7365 55.7014 35.175 57.0086 36.2763 57.9141C36.3337 58.8859 36.0351 59.0795 35.1573 58.6405C33.9939 58.0571 32.8771 57.3851 31.8614 56.5853C30.5617 55.5602 30.1604 53.9342 29.8484 52.3689C29.1062 48.6322 28.8428 44.7954 29.1816 41.024C29.4894 37.5977 30.6124 34.2878 32.9111 31.5963Z" fill="#B98650"/>
<path fill-rule="evenodd" clip-rule="evenodd" d="M56.5133 32.7447C55.1182 33.073 54.2649 34.1973 53.3228 35.1723C52.2242 36.3085 51.4238 37.7003 50.5962 39.0418C49.8915 40.1834 49.0823 41.2187 48.2425 42.2286C45.2409 45.8339 43.1059 50.0032 41.0268 54.2072C40.5623 55.1458 40.4049 56.2577 40.1619 57.302C40.0827 57.6436 40.0018 57.9444 39.7611 58.1854C39.6709 58.0638 39.5804 57.9446 39.4878 57.8225L39.4373 57.7304C39.0504 54.5824 39.2264 51.5366 40.3521 48.4932C41.0242 46.6768 41.9839 45.1039 42.9837 43.5226C44.9612 40.3967 46.9743 37.2947 49.5941 34.6977C51.3947 32.9112 53.6976 32.3779 56.0215 31.9217C56.8004 31.7687 56.808 32.168 56.5133 32.7447Z" fill="#B98650"/>
<path fill-rule="evenodd" clip-rule="evenodd" d="M52.05 -1.14859C50.7262 0.362691 49.7895 2.08856 49.0558 3.99567C47.4397 8.20423 46.1501 12.5004 45.6451 16.9962C45.3572 19.557 44.659 22.034 44.4403 24.6089C44.3226 26.0093 44.9791 27.2266 44.8834 28.5748C44.486 28.958 44.2033 28.611 43.967 28.3708C42.2523 26.6465 40.9024 24.7722 41.1378 22.0426C41.5624 17.1573 42.6562 12.4017 44.5134 7.94385C45.9345 4.53086 48.278 1.59463 51.0181 -0.896797C51.2856 -1.14169 51.5648 -1.73265 52.05 -1.14859Z" fill="#B98650"/>
<path fill-rule="evenodd" clip-rule="evenodd" d="M68.7101 8.02833C68.2923 7.715 67.9928 8.06961 67.6416 8.22059C65.388 9.18035 63.9156 11.1753 62.1572 12.7829C59.6418 15.0832 56.9691 17.223 54.7217 19.8139C52.4974 22.3785 50.1843 24.9002 48.614 28.0177C48.3923 28.4589 48.2771 28.9204 48.156 29.3886C47.6181 29.1183 47.6395 28.6157 47.7477 28.1352C48.6301 24.2032 49.819 20.3886 52.6074 17.4355C54.7545 15.1643 56.7659 12.7335 59.2722 10.8468C60.0941 10.2283 60.8298 9.47879 61.5868 8.76833C63.6174 6.86229 66.107 6.70166 68.604 6.83593C69.79 6.89887 68.9212 7.59304 68.7101 8.02833Z" fill="#B98650"/>
<path fill-rule="evenodd" clip-rule="evenodd" d="M76.9151 -18.4344C72.4656 -15.3934 69.7266 -10.6707 66.3855 -6.55361C64.9663 -4.80512 63.8971 -2.73924 62.7018 -0.798492C61.8124 0.641154 60.8063 1.99274 59.9583 3.46722C59.1492 4.87221 58.6519 6.34484 58.4222 7.94104C57.6013 8.64449 57.4683 8.07971 57.4453 7.35349C57.3353 3.70545 58.2473 0.426937 60.2213 -2.66539C62.2351 -5.8169 64.5058 -8.75035 66.7582 -11.6919C69.029 -14.6609 71.7972 -17.0772 75.4042 -18.1765C75.9048 -18.3281 76.3117 -18.9947 76.9151 -18.4344Z" fill="#B98650"/>
<path fill-rule="evenodd" clip-rule="evenodd" d="M39.431 57.8373C39.431 57.8373 39.4833 57.9289 39.4809 57.9285C39.458 57.9372 39.4355 57.9435 39.4102 57.9518C39.4177 57.9154 39.4255 57.8765 39.431 57.8373Z" fill="#E6B55E"/>
<path fill-rule="evenodd" clip-rule="evenodd" d="M12.7966 26.9593C13.7755 28.5045 14.8669 29.9975 15.399 31.7778C16.0282 33.879 16.9301 35.9395 17.3535 38.0418C18.1024 41.7552 18.9789 45.4671 18.9752 49.3439C18.974 51.8728 19.0295 54.434 19.1633 56.9779C19.2917 59.3863 18.5634 61.598 17.3132 63.6029C17.0791 63.9801 16.6853 64.0995 16.2623 64.1125C14.1651 59.8661 13.354 55.2841 13.0602 50.6287C12.8827 47.8363 12.7368 45.0288 12.5836 42.2379C12.387 38.6729 12.2173 35.1073 12.0326 31.5442C11.9479 29.8922 13.0599 28.5777 12.7966 26.9593Z" fill="#E6B55E"/>
<path fill-rule="evenodd" clip-rule="evenodd" d="M-7.843 37.1095C-6.598 36.7834 -3.95902 37.8823 -3.1272 39.0104C-1.89111 40.6818 -0.481774 42.2054 0.845524 43.7961C2.19173 45.4076 3.57579 47.0432 4.56166 48.9454C4.96847 49.7316 5.7203 50.1109 6.20839 50.8703C7.37312 52.6889 8.35043 54.6351 9.19717 56.5618C10.5572 59.6591 12.4313 62.5978 12.8013 66.1046C11.3004 65.953 10.0894 65.0769 9.10441 64.0392C6.63643 61.4326 4.44415 58.5515 2.10842 55.813C-0.479819 52.7818 -2.68528 49.4032 -4.59895 45.826C-6.07674 43.0525 -7.52076 40.3151 -7.843 37.1095Z" fill="#E6B55E"/>
<path fill-rule="evenodd" clip-rule="evenodd" d="M-3.86523 -0.329239C-1.90539 0.45391 -1.06345 2.39395 -0.47691 4.10085C1.82761 10.8073 4.36016 17.4708 5.50517 24.5305C6.03968 27.8168 6.25761 31.1337 5.96549 34.4512C5.88554 35.3739 6.38308 36.3022 5.94135 37.1946C5.84658 37.3842 5.64528 37.5153 5.49367 37.675C3.6369 36.6428 3.13254 34.5743 2.66224 32.8387C0.856468 26.1602 -1.44293 19.6094 -2.70597 12.7835C-2.98222 11.2835 -3.1453 9.75928 -3.35133 8.24565C-3.73004 5.39904 -3.88725 2.53888 -3.86523 -0.329239Z" fill="#E6B55E"/>
<path fill-rule="evenodd" clip-rule="evenodd" d="M-7.85012 37.1156C-7.53019 40.3214 -6.08592 43.0593 -4.60482 45.8287C-2.69083 49.4064 -0.484653 52.7832 2.10368 55.8174C4.44217 58.5567 6.63246 61.4379 9.10086 64.045C10.0856 65.0853 11.2972 65.9591 12.7983 66.1108C13.3207 67.1997 13.0138 67.6459 11.852 67.5464C10.5248 67.4341 9.17862 67.493 7.86307 67.2968C5.45768 66.9373 4.0802 64.9563 2.5708 63.2614C0.1328 60.523 -1.62039 57.2528 -3.75499 54.2849C-6.49706 50.4742 -7.71957 46.247 -8.07448 41.6376C-8.14862 40.6722 -8.42315 39.7186 -8.57988 38.7544C-8.69213 38.0455 -8.67617 37.3733 -7.85012 37.1156Z" fill="#B98650"/>
<path fill-rule="evenodd" clip-rule="evenodd" d="M12.8414 26.9855C13.1041 28.606 11.9936 29.9177 12.0782 31.5693C12.26 35.1336 12.4322 38.6963 12.6286 42.2605C12.784 45.0511 12.9298 47.8579 13.1046 50.6493C13.3979 55.3061 14.2084 59.8845 16.3032 64.1299C15.8867 64.3622 15.6352 64.0967 15.3967 63.7901C13.8747 61.8342 12.3714 59.8661 11.2818 57.5993C9.49391 53.87 8.88813 49.8741 8.68933 45.8018C8.49679 41.8423 8.23424 37.876 8.40411 33.9137C8.53304 30.9092 10.3917 28.8649 12.1961 26.824C12.429 26.5584 12.677 26.6914 12.8414 26.9855Z" fill="#B98650"/>
<path fill-rule="evenodd" clip-rule="evenodd" d="M-3.85734 -0.31885C-3.87935 2.54898 -3.72218 5.40886 -3.34121 8.25558C-3.13763 9.76865 -2.97461 11.2927 -2.69606 12.793C-1.43341 19.6181 0.865254 26.1683 2.67046 32.8461C3.14061 34.5815 3.64242 36.6495 5.50099 37.682C5.49029 38.0734 5.79579 38.5762 5.33477 38.821C4.90002 39.0524 4.62167 38.5998 4.30508 38.3513C1.05155 35.7781 -1.1086 32.5362 -2.35714 28.4074C-3.92939 23.207 -5.11285 17.9298 -5.88949 12.5865C-6.36395 9.3258 -6.56459 5.92085 -4.99906 2.77698C-4.57492 1.92231 -4.88211 0.767262 -4.30671 -0.105127C-4.23448 -0.115828 -4.19454 -0.157318 -4.18859 -0.234956C-4.07784 -0.259482 -3.96878 -0.289366 -3.85734 -0.31885Z" fill="#B98650"/>
<path fill-rule="evenodd" clip-rule="evenodd" d="M19.5439 -12.7069C19.9303 -12.4709 20.0005 -12.0463 19.9403 -11.6947C19.5943 -9.67876 19.4824 -7.62764 18.8675 -5.64282C18.3203 -3.86653 17.6142 -2.20618 16.8988 -0.514505C16.0449 1.50768 14.8527 3.26664 13.4728 4.86678C12.4528 6.04793 11.8629 7.52327 10.7826 8.64091C9.78798 9.67203 8.55823 10.1337 7.19104 10.3212C6.81473 10.3729 6.54268 10.2375 6.45705 9.81782C6.94766 9.74024 7.00318 9.44101 6.89788 8.98503C6.67756 8.03596 6.87635 7.1185 7.16834 6.23985C7.70053 4.64575 8.47553 3.16682 9.20169 1.66683C10.4819 -0.972979 12.1815 -3.33056 13.7921 -5.7389C15.4745 -8.25891 16.7602 -11.1559 19.5439 -12.7069Z" fill="#E6B55E"/>
<path fill-rule="evenodd" clip-rule="evenodd" d="M19.5584 -12.6869C16.7799 -11.1369 15.4966 -8.24174 13.8176 -5.72582C12.2101 -3.31902 10.5133 -0.960482 9.23578 1.67516C8.51096 3.17419 7.73741 4.65217 7.2062 6.24525C6.91236 7.12293 6.71634 8.04022 6.93625 8.98867C7.04136 9.44436 6.98834 9.74381 6.49624 9.82094C6.40462 9.66351 6.31301 9.50608 6.22139 9.34866L6.215 9.26915L6.17265 9.20115C6.08728 8.81715 6.00464 8.4311 5.92167 8.04752L5.91711 8.00879C4.86459 4.18519 5.74338 0.795413 7.60636 -2.49568C9.10766 -5.15095 10.6915 -7.72625 12.5442 -10.1288C14.1758 -12.2431 16.5738 -12.6749 18.9327 -13.2171C19.3076 -13.2992 19.5931 -13.1767 19.5584 -12.6869Z" fill="#B98650"/>
<path fill-rule="evenodd" clip-rule="evenodd" d="M91.0659 41.5398C90.1507 43.0412 89.3232 44.6179 88.0459 45.8442C86.5413 47.2935 85.1697 48.9552 83.5891 50.2317C80.7937 52.4851 78.045 54.8479 74.8357 56.5354C72.7413 57.6371 70.6429 58.7993 68.5859 60.0242C66.6397 61.183 64.5385 61.5327 62.4135 61.3491C62.0141 61.315 61.7684 61.0334 61.6005 60.6804C64.3349 57.0526 67.8258 54.3671 71.5709 52.0867C73.817 50.7193 76.0867 49.371 78.3396 48.0225C81.2168 46.3017 84.1052 44.603 86.986 42.8903C88.3208 42.0984 89.822 42.4687 91.0659 41.5398Z" fill="#E6B55E"/>
<path fill-rule="evenodd" clip-rule="evenodd" d="M75.0367 28.1769C75.7746 29.0982 75.8543 31.84 75.2296 33.0473C74.3039 34.8372 73.5682 36.7113 72.7447 38.5432C71.9103 40.4013 71.072 42.302 69.8618 43.9797C69.362 44.6726 69.3291 45.4819 68.8789 46.2312C67.8062 48.0227 66.553 49.7138 65.2694 51.2828C63.2053 53.8048 61.4634 56.6946 58.6896 58.5493C58.2522 57.1981 58.525 55.7785 59.0183 54.4812C60.2573 51.2249 61.8303 48.0888 63.2296 44.889C64.7794 41.347 66.7567 37.9785 69.0136 34.7724C70.7567 32.2901 72.4906 29.8547 75.0367 28.1769Z" fill="#E6B55E"/>
<path fill-rule="evenodd" clip-rule="evenodd" d="M107.376 15.0966C107.458 17.1032 106.166 18.6682 104.97 19.9104C100.273 24.7985 95.6994 29.8571 90.2798 33.913C87.7563 35.8006 85.0912 37.4362 82.2341 38.6359C81.4396 38.9706 80.855 39.8 79.9505 39.8139C79.7577 39.8158 79.5744 39.7021 79.3831 39.6432C79.5443 37.615 81.0703 36.2837 82.3328 35.1263C87.1913 30.674 91.7578 25.8613 96.9436 21.8082C98.0832 20.9185 99.2825 20.1148 100.462 19.2799C102.68 17.7118 104.99 16.3295 107.376 15.0966Z" fill="#E6B55E"/>
<path fill-rule="evenodd" clip-rule="evenodd" d="M75.0361 28.1769C72.4901 29.8546 70.7562 32.2901 69.0108 34.772C66.7538 37.9781 64.7769 41.3441 63.2267 44.8886C61.8274 48.0884 60.2545 51.2245 59.0155 54.4808C58.5221 55.7781 58.2489 57.2001 58.6867 58.5489C57.9778 59.4727 57.4919 59.4043 57.1363 58.3692C56.7303 57.1834 56.1756 56.0601 55.8456 54.8484C55.2396 52.6324 56.3683 50.5877 57.2115 48.5528C58.5725 45.2679 60.6334 42.3356 62.2988 39.2093C64.4373 35.1924 67.4918 32.2962 71.1926 29.973C71.9684 29.4851 72.6568 28.8354 73.3997 28.276C73.946 27.8604 74.5108 27.5827 75.0361 28.1769Z" fill="#B98650"/>
<path fill-rule="evenodd" clip-rule="evenodd" d="M91.0676 41.5399C89.8237 42.4688 88.3245 42.1014 86.99 42.8908C84.1072 44.6006 81.2212 46.2997 78.3436 48.0231C76.0907 49.3715 73.821 50.7198 71.575 52.0872C67.8298 54.3676 64.3393 57.0507 61.6045 60.6809C61.2583 60.4288 61.3853 60.1006 61.5493 59.7657C62.6007 57.622 63.67 55.4888 65.1429 53.5762C67.5641 50.4324 70.6462 48.177 73.9434 46.2314C77.151 44.34 80.3338 42.386 83.6794 40.8046C86.2166 39.604 88.5994 40.285 90.964 40.925C91.2654 41.0043 91.2484 41.2714 91.0676 41.5399Z" fill="#B98650"/>
<path fill-rule="evenodd" clip-rule="evenodd" d="M107.375 15.0968C104.99 16.3296 102.679 17.712 100.462 19.28C99.2844 20.1153 98.0828 20.9186 96.9432 21.8084C91.7574 25.8614 87.1909 30.6741 82.3324 35.1264C81.0698 36.2839 79.5415 37.6147 79.3827 39.6433C79.0535 39.8064 78.7508 40.2843 78.3757 39.9996C78.0222 39.7311 78.2922 39.2962 78.3829 38.9189C79.2994 35.03 81.178 31.7779 84.1339 28.9141C87.8569 25.3064 91.7848 21.9966 95.9219 19.0032C98.4465 17.1744 101.194 15.519 104.382 15.4776C105.25 15.4654 106.09 14.7003 107.027 14.8063C107.063 14.8629 107.113 14.8787 107.18 14.8513C107.243 14.9327 107.31 15.0149 107.375 15.0968Z" fill="#B98650"/>
<path fill-rule="evenodd" clip-rule="evenodd" d="M8.57242 10.6789C8.57242 10.6789 0.0181853 51.813 30.625 92.6073C30.625 92.6073 -5.07587 61.6518 7.17084 10.452" fill="#B98650"/>
<path fill-rule="evenodd" clip-rule="evenodd" d="M56.2296 15.1181C56.2296 15.1181 30.0914 46.8914 38.4798 98.2092C38.4798 98.2092 21.1617 52.9502 55.1023 14.2101" fill="#B98650"/>
</g>
</svg>
