<svg width="133" height="160" viewBox="0 0 133 160" fill="none" xmlns="http://www.w3.org/2000/svg">
<g opacity="0.13">
<path fill-rule="evenodd" clip-rule="evenodd" d="M48.777 76.0732C49.6664 77.6274 50.4633 79.2653 51.752 80.5049C53.2727 81.9679 54.6421 83.666 56.2548 84.9368C59.1072 87.1829 61.9006 89.5449 65.2243 91.1588C67.3923 92.21 69.5628 93.3314 71.6864 94.5162C73.6923 95.6376 75.913 95.8847 78.1843 95.5554C78.6091 95.4939 78.887 95.177 79.0871 94.7874C76.3776 91.0633 72.8086 88.4002 68.9485 86.1849C66.6332 84.8582 64.2916 83.551 61.9665 82.241C58.9983 80.5723 56.0191 78.9282 53.0428 77.271C51.6676 76.5054 50.0505 76.9947 48.777 76.0732Z" fill="#E6B55E"/>
<path fill-rule="evenodd" clip-rule="evenodd" d="M66.4041 60.6934C65.5604 61.7333 65.3218 64.6939 65.9251 65.9553C66.8193 67.8301 67.5049 69.8033 68.2863 71.7275C69.079 73.6803 69.8727 75.676 71.0795 77.4121C71.5774 78.1278 71.5697 78.9995 72.0081 79.7785C73.0597 81.6446 74.3091 83.3888 75.6012 85.0015C77.6768 87.5915 79.3837 90.6012 82.261 92.4274C82.8061 90.9454 82.5946 89.4306 82.1349 88.0614C80.9842 84.6285 79.4731 81.3423 78.149 77.9791C76.6841 74.2539 74.7467 70.7474 72.5039 67.4318C70.7706 64.863 69.0447 62.3462 66.4041 60.6934Z" fill="#E6B55E"/>
<path fill-rule="evenodd" clip-rule="evenodd" d="M32.7534 48.368C32.5548 50.5309 33.8467 52.1291 35.0509 53.3931C39.7893 58.3562 44.3845 63.5103 49.9404 67.5341C52.527 69.4075 55.2805 70.9999 58.261 72.1141C59.09 72.4246 59.6648 73.2787 60.6292 73.2377C60.8341 73.2285 61.0387 73.0954 61.2414 73.0183C61.182 70.8484 59.6282 69.5117 58.3456 68.3469C53.4098 63.8646 48.8074 58.9722 43.502 54.9366C42.3358 54.0506 41.1004 53.2597 39.8897 52.4368C37.6151 50.8877 35.2288 49.547 32.7534 48.368Z" fill="#E6B55E"/>
<path fill-rule="evenodd" clip-rule="evenodd" d="M66.3833 60.7214C69.0179 62.3739 70.7419 64.8921 72.4748 67.4569C74.7146 70.7711 76.6497 74.2785 78.1123 77.9997C79.4345 81.3614 80.9436 84.6462 82.0927 88.0776C82.5494 89.4466 82.763 90.9605 82.2186 92.4418C82.9295 93.3953 83.4512 93.2899 83.8897 92.151C84.3909 90.8493 85.0485 89.6026 85.4706 88.2762C86.2442 85.8509 85.1492 83.7166 84.3579 81.5744C83.0834 78.1184 81.0363 75.0838 79.4251 71.8187C77.3551 67.6238 74.2419 64.6897 70.4061 62.4147C69.6009 61.9386 68.8992 61.2779 68.1344 60.724C67.57 60.3141 66.9794 60.0481 66.3833 60.7214Z" fill="#B98650"/>
<path fill-rule="evenodd" clip-rule="evenodd" d="M48.7697 76.0672C50.0429 76.9863 51.6603 76.4994 53.0383 77.2671C56.0122 78.9248 58.9915 80.5689 61.962 82.2372C64.2868 83.5447 66.6284 84.8519 68.9441 86.1812C72.8067 88.3961 76.3733 91.0596 79.0828 94.7838C79.4659 94.4921 79.3499 94.1456 79.195 93.7981C78.194 91.5634 77.1727 89.3397 75.7111 87.3795C73.3086 84.1565 70.151 81.9264 66.7462 80.0434C63.4382 78.2123 60.1548 76.3139 56.6808 74.8212C54.0464 73.6895 51.4713 74.5673 48.9188 75.3984C48.5877 75.5071 48.591 75.7918 48.7697 76.0672Z" fill="#B98650"/>
<path fill-rule="evenodd" clip-rule="evenodd" d="M32.7515 48.3754C35.2265 49.5543 37.6149 50.8944 39.8919 52.4454C41.1025 53.2682 42.3377 54.059 43.5037 54.9449C48.8084 58.9801 53.4099 63.8695 58.3454 68.3536C59.6278 69.5183 61.1814 70.8548 61.2408 73.0245C61.5825 73.1794 61.8795 73.6756 62.2942 73.3453C62.6874 73.0338 62.4213 72.5855 62.3484 72.1831C61.5857 68.0609 59.7623 64.6812 56.7724 61.7886C53.0011 58.1426 48.9948 54.8295 44.7512 51.8674C42.1594 50.0584 39.3238 48.4497 35.9255 48.5996C35.0025 48.6412 34.1459 47.8701 33.1416 48.0417C33.0994 48.1045 33.0462 48.1235 32.9775 48.0997C32.9004 48.1911 32.8258 48.282 32.7515 48.3754Z" fill="#B98650"/>
<path fill-rule="evenodd" clip-rule="evenodd" d="M12.0113 65.0471C12.0409 65.4889 12.3724 65.7224 12.7005 65.8091C14.583 66.2997 16.3855 67.015 18.3632 67.2514C20.1274 67.4626 21.8683 67.4862 23.6363 67.5151C25.7502 67.5491 27.7906 67.1733 29.7794 66.5633C31.2472 66.1128 32.7751 66.1677 34.2152 65.6385C35.5427 65.1505 36.4914 64.226 37.2629 63.0664C37.4768 62.7454 37.4815 62.4475 37.1605 62.2025C36.8723 62.6147 36.5947 62.544 36.2502 62.2686C35.536 61.6926 34.661 61.5073 33.7779 61.4215C32.1735 61.2666 30.5623 61.378 28.9513 61.4379C26.1179 61.5407 23.3358 62.1381 20.5516 62.6328C17.6445 63.1459 14.588 63.154 12.0113 65.0471Z" fill="#E6B55E"/>
<path fill-rule="evenodd" clip-rule="evenodd" d="M11.9703 64.9308C14.5474 63.035 17.6045 63.0269 20.5162 62.5075C23.3032 62.0118 26.0834 61.4139 28.9174 61.3109C30.5287 61.251 32.1428 61.1414 33.7449 61.2945C34.628 61.3804 35.5032 61.566 36.2176 62.1428C36.5598 62.419 36.8401 62.4918 37.128 62.0766C37.0331 61.9305 36.9405 61.7839 36.8458 61.6402C36.8462 61.6426 36.7802 61.6022 36.7802 61.6022L36.74 61.5377C36.4479 61.3096 36.1554 61.079 35.8633 60.8509L35.8316 60.8317C33.0283 58.3555 29.7295 57.8 26.0711 58.1734C23.1199 58.4758 20.202 58.8807 17.3131 59.6002C14.7672 60.2344 13.3194 62.2333 11.7953 64.1517C11.5578 64.4601 11.5352 64.7687 11.9703 64.9308Z" fill="#B98650"/>
<path fill-rule="evenodd" clip-rule="evenodd" d="M44.2339 62.4794C44.2339 62.4794 81.1945 78.1487 95.8548 127.866C95.8548 127.866 99.5281 127.521 98.032 121.623C97.9635 121.349 96.7451 119.532 96.6708 119.252C92.6159 103.904 77.9936 73.9244 44.8422 61.1285" fill="#B98650"/>
<path fill-rule="evenodd" clip-rule="evenodd" d="M64.4697 39.6814C64.4697 39.6814 96.7107 64.398 99.4821 116.396C99.4821 116.396 106.701 68.1698 65.3737 38.527" fill="#B98650"/>
<path fill-rule="evenodd" clip-rule="evenodd" d="M117.148 58.9435C117.148 58.9435 116.469 78.5526 109.572 98.3793C102.674 118.206 96.0724 133.204 93.089 140.229C90.1032 147.255 86.2698 152.664 86.2698 152.664C93.6461 129.959 93.6365 130.009 101.023 108.836C108.493 87.4323 112.311 74.0634 111.422 62.4873C115.347 58.8405 117.148 58.9435 117.148 58.9435Z" fill="#B98650"/>
<path fill-rule="evenodd" clip-rule="evenodd" d="M111.46 124.838C110.807 125.057 110.392 125.608 109.988 126.117C108.126 128.473 106.427 130.941 105.045 133.652C102.624 138.407 101.231 143.472 100.306 148.712C100.122 149.751 99.6179 150.708 99.6824 151.835C99.7534 153.078 100.163 154.221 100.377 155.419C100.409 155.599 100.69 155.729 100.857 155.881C101.625 155.541 102.097 154.877 102.619 154.234C103.831 152.735 104.409 150.906 105.175 149.173C105.912 147.508 106.701 145.87 107.289 144.134C108.874 139.454 109.831 134.599 111.211 129.863C111.681 128.256 111.991 126.533 111.46 124.838Z" fill="#E6B55E"/>
<path fill-rule="evenodd" clip-rule="evenodd" d="M127.965 142.278C127.488 141.837 127.039 141.594 126.292 141.576C123.961 141.523 122.179 142.92 120.207 143.833C117.592 145.041 115.275 146.788 112.893 148.398C111.141 149.579 109.607 151.135 108.233 152.773C106.56 154.771 104.805 156.741 103.749 159.216C104.76 159.396 105.758 159.296 106.743 158.999C108.566 158.454 109.999 157.137 111.646 156.25C114.273 154.833 116.984 153.588 119.424 151.803C120.551 150.98 121.506 149.945 122.588 149.076C124.895 147.236 126.899 145.164 127.965 142.278Z" fill="#E6B55E"/>
<path fill-rule="evenodd" clip-rule="evenodd" d="M142.137 107.619C141.488 106.539 140.652 107.389 139.956 107.507C138.133 107.811 137.378 109.638 136.121 110.754C133.803 112.813 132.069 115.439 130.02 117.762C126.62 121.612 124.533 126.265 122.655 131.031C122.521 131.372 122.238 131.758 122.646 132.114C123.918 132.155 124.85 131.397 125.683 130.547C127.019 129.183 128.329 127.783 129.569 126.324C131.32 124.266 133.505 122.646 135.008 120.339C135.976 118.855 137.093 117.465 137.969 115.926C139.07 113.983 140.474 112.221 141.138 109.995C141.37 109.206 141.54 108.291 142.137 107.619Z" fill="#E6B55E"/>
<path fill-rule="evenodd" clip-rule="evenodd" d="M139.99 74.0304C139.303 73.8923 138.965 74.4055 138.584 74.8525C137.231 76.4392 136.364 78.2992 135.638 80.2598C133.917 84.9237 132.118 89.5727 130.927 94.4061C130.011 98.1307 129.684 101.972 129.723 105.818C129.729 106.387 129.949 106.951 130.069 107.517C131.059 106.696 131.603 105.56 132.158 104.42C133.487 101.698 133.973 98.6799 135.124 95.8743C136.354 92.878 137.309 89.7226 137.948 86.5111C138.73 82.5934 140.136 78.7611 139.688 74.6594C139.669 74.4674 139.883 74.2412 139.99 74.0304Z" fill="#E6B55E"/>
<path fill-rule="evenodd" clip-rule="evenodd" d="M127.987 142.294C126.918 145.184 124.915 147.258 122.61 149.103C121.527 149.97 120.569 151.009 119.444 151.833C117.002 153.618 114.293 154.866 111.662 156.285C110.014 157.174 108.581 158.492 106.757 159.038C105.771 159.335 104.772 159.435 103.761 159.255C103.14 159.901 103.618 160.241 104.101 160.519C106.796 162.077 109.469 163.03 112.575 161.259C116.241 159.168 119.808 156.942 122.861 153.959C124.918 151.949 126.355 149.44 127.22 146.606C127.541 145.55 127.969 144.524 128.369 143.493C128.572 142.955 128.465 142.568 127.987 142.294Z" fill="#B98650"/>
<path fill-rule="evenodd" clip-rule="evenodd" d="M111.446 124.853C111.976 126.547 111.666 128.27 111.199 129.874C109.82 134.611 108.861 139.463 107.279 144.141C106.691 145.877 105.903 147.517 105.166 149.179C104.4 150.909 103.823 152.737 102.611 154.239C102.092 154.881 101.618 155.546 100.85 155.885C100.964 155.968 101.075 156.05 101.189 156.132C101.289 156.169 101.391 156.205 101.493 156.241C102.214 156.295 102.671 155.718 103.184 155.364C107.28 152.528 109.828 148.59 111.302 143.697C112.462 139.848 113.773 136.057 114.283 132.051C114.629 129.347 113.418 127.045 112.428 124.705C112.376 124.58 112.105 124.557 111.939 124.483C111.942 124.483 111.875 124.492 111.875 124.492C111.656 124.508 111.539 124.665 111.446 124.853Z" fill="#B98650"/>
<path fill-rule="evenodd" clip-rule="evenodd" d="M142.149 107.626C141.552 108.297 141.382 109.213 141.145 110.005C140.481 112.232 139.076 113.994 137.976 115.938C137.102 117.479 135.985 118.867 135.014 120.352C133.511 122.659 131.328 124.28 129.574 126.338C128.333 127.798 127.024 129.198 125.687 130.563C124.853 131.413 123.922 132.171 122.649 132.13C122.075 133.144 122.185 133.396 123.26 133.576C126.318 134.084 128.874 133.219 131.062 130.764C133.944 127.53 136.771 124.258 138.971 120.482C140.52 117.821 141.541 114.921 141.836 111.796C141.949 110.61 142.444 109.481 142.368 108.261C142.356 108.015 142.365 107.781 142.149 107.626Z" fill="#B98650"/>
<path fill-rule="evenodd" clip-rule="evenodd" d="M123.863 97.7712C123.25 98.0942 123.057 98.7381 122.77 99.2965C120.45 103.832 118.595 108.534 117.902 113.608C117.339 117.736 116.973 121.886 117.171 126.03C117.246 127.593 117.857 129.082 118.924 130.275C119.749 129.148 120.534 127.97 120.954 126.636C122.247 122.54 122.873 118.31 123.338 114.067C123.686 110.901 123.818 107.711 124.247 104.554C124.563 102.225 124.515 99.9881 123.863 97.7712Z" fill="#E6B55E"/>
<path fill-rule="evenodd" clip-rule="evenodd" d="M123.809 97.807C124.459 100.023 124.51 102.258 124.194 104.588C123.767 107.744 123.634 110.929 123.287 114.096C122.823 118.339 122.199 122.564 120.909 126.658C120.489 127.991 119.708 129.166 118.883 130.295C119.596 130.821 120.048 130.27 120.444 129.791C123.768 125.787 126.062 121.392 126.598 116.032C126.967 112.353 127.559 108.693 127.658 104.986C127.71 103.04 127.281 101.301 126.239 99.722L126.245 99.7236C126.035 99.1847 125.688 98.7506 125.28 98.3647L125.291 98.373C125.165 98.2274 125.039 98.0794 124.916 97.936C124.885 97.8704 124.856 97.8044 124.825 97.7364C124.664 97.4779 124.481 97.2561 124.144 97.2658C124.147 97.2653 124.082 97.3194 124.082 97.3194C123.991 97.4795 123.9 97.6445 123.809 97.807Z" fill="#B98650"/>
<path fill-rule="evenodd" clip-rule="evenodd" d="M139.989 74.0355C139.884 74.2459 139.668 74.4725 139.689 74.6641C140.137 78.7629 138.731 82.5974 137.949 86.5147C137.308 89.7264 136.356 92.8811 135.127 95.8771C133.975 98.6825 133.49 101.701 132.161 104.422C131.606 105.562 131.06 106.699 130.073 107.519C129.903 107.819 129.808 108.152 130.145 108.351C130.461 108.536 130.696 108.248 130.944 108.054C133.813 105.84 136.06 103.234 137.273 99.5813C138.943 94.5511 140.605 89.535 141.328 84.2683C141.785 80.9533 141.381 77.6891 140.384 74.5246C140.355 74.4939 140.338 74.4587 140.337 74.4133C140.219 74.286 140.104 74.1608 139.989 74.0355Z" fill="#B98650"/>
<path fill-rule="evenodd" clip-rule="evenodd" d="M111.715 124.479C111.715 124.479 111.781 124.467 111.779 124.47L111.741 124.421L111.715 124.479Z" fill="#E6B55E"/>
<path fill-rule="evenodd" clip-rule="evenodd" d="M94.8154 147.278C94.1493 147.396 93.7796 147.952 93.3486 148.397C89.8562 152.015 86.7501 155.94 84.6236 160.581C82.8956 164.355 81.34 168.211 80.3187 172.24C79.9329 173.759 80.0708 175.373 80.7204 176.847C81.8215 176.023 82.8974 175.141 83.6808 173.994C86.0841 170.476 87.8993 166.623 89.5738 162.706C90.8232 159.784 91.8774 156.774 93.1976 153.887C94.1728 151.756 94.778 149.6 94.8154 147.278Z" fill="#E6B55E"/>
<path fill-rule="evenodd" clip-rule="evenodd" d="M94.8003 147.295C94.7628 149.616 94.1579 151.771 93.1834 153.904C91.8637 156.79 90.8099 159.799 89.561 162.721C87.8871 166.637 86.0723 170.486 83.6703 174.006C82.8872 175.153 81.8116 176.035 80.711 176.858C81.2244 177.581 81.81 177.195 82.3193 176.86C86.6006 174.062 90.0323 170.566 92.0976 165.606C93.5153 162.199 95.138 158.879 96.3115 155.365C96.9289 153.518 97.0323 151.72 96.5197 149.885L96.5251 149.889C96.4856 149.308 96.2876 148.785 96.0177 148.289L96.0265 148.3C95.951 148.122 95.8778 147.943 95.8023 147.764C95.7927 147.693 95.7826 147.619 95.775 147.545C95.7005 147.247 95.5956 146.978 95.2771 146.882L95.2033 146.915C95.0687 147.039 94.9346 147.168 94.8003 147.295Z" fill="#B98650"/>
<path fill-rule="evenodd" clip-rule="evenodd" d="M32.9744 47.9001C33.0426 47.9269 33.0948 47.9083 33.1355 47.8438L33.0291 47.8005L32.9744 47.9001Z" fill="#E6B55E"/>
<path fill-rule="evenodd" clip-rule="evenodd" d="M116.734 55.4179C116.244 55.0689 115.74 55.2219 115.355 55.5275C114.061 56.5592 112.789 57.5567 112.339 59.4034C111.83 61.4807 110.936 63.4527 110.42 65.5286C109.668 68.5679 108.776 71.5925 108.761 74.7922C108.748 77.9816 109.086 81.1398 109.586 84.2836C109.645 84.6568 109.815 84.9938 110.132 85.2197C111.417 84.0727 112.49 82.8218 112.953 81.0136C113.35 79.4804 113.702 77.9115 114.253 76.4386C114.927 74.6356 115.412 72.7779 115.995 70.9496C116.634 68.9519 116.855 66.867 117.06 64.8026C117.254 62.8645 117.576 60.9023 117.286 58.9336C117.115 57.7571 116.917 56.5875 116.734 55.4179Z" fill="#E6B55E"/>
<path fill-rule="evenodd" clip-rule="evenodd" d="M91.2541 57.0671C90.633 57.656 90.9596 58.4563 91.0175 59.081C91.2968 62.1655 91.9401 65.1991 92.7566 68.1782C93.095 69.413 93.7825 70.5411 94.2924 71.7269C95.811 75.2581 98.3084 78.1557 100.09 81.521C100.641 82.5629 101.366 83.5095 102.621 83.9612C103.408 84.2478 104.03 85.0493 104.945 85.2334C105.465 85.3365 105.96 85.5377 106.386 85.0399C106.268 84.8592 106.052 84.6797 106.046 84.4955C105.962 81.675 104.993 79.1378 103.885 76.6084C102.695 73.89 101.42 71.2313 99.812 68.758C98.2476 66.351 96.7707 63.8887 95.289 61.4271C94.2515 59.7158 92.9831 58.1346 91.2541 57.0671Z" fill="#E6B55E"/>
<path fill-rule="evenodd" clip-rule="evenodd" d="M109.901 31.5756C109.622 30.5836 109.193 29.6702 108.142 29.4349C107.112 29.2035 106.612 30.0719 106.116 30.7821C105.482 31.6933 105.13 32.7121 104.945 33.8578C104.359 37.511 103.819 41.1665 103.733 44.8756C103.672 47.5141 104.005 50.1093 104.691 52.6811C105.088 54.1688 105.192 55.7384 105.942 57.1212C106.101 57.4171 106.228 57.731 106.531 57.9037C107.634 56.9979 108.073 55.6903 108.385 54.3481C108.958 51.8779 108.952 49.3167 109.346 46.8105C110.199 41.3401 110.532 35.8604 108.425 30.5352C108.353 30.3517 108.301 30.1395 108.449 30.0184C108.683 29.8241 108.823 30.0724 108.974 30.2224C109.365 30.6141 109.384 31.2787 109.901 31.5756Z" fill="#E6B55E"/>
<path fill-rule="evenodd" clip-rule="evenodd" d="M86.2753 32.7391C85.6979 33.929 86.477 35.0077 86.7109 36.0562C87.2326 38.3826 87.9622 40.6969 88.9046 42.8766C89.7505 44.8366 90.8535 46.7179 92.0905 48.4423C94.0476 51.1716 96.1783 53.7653 98.2931 56.3667C99.3435 57.6609 100.872 58.1192 102.367 58.5628C102.656 58.6486 102.941 58.5601 103.035 58.1867C102.792 57.9436 102.711 57.6453 102.634 57.3032C102.394 56.2583 102.236 55.1462 101.769 54.2078C99.6895 50.0055 97.5531 45.8331 94.5502 42.2271C93.71 41.2171 92.8977 40.1795 92.1954 39.0397C91.3675 37.698 90.567 36.3085 89.4676 35.1695C88.5247 34.1919 87.669 33.0703 86.2753 32.7391Z" fill="#E6B55E"/>
<path fill-rule="evenodd" clip-rule="evenodd" d="M90.777 -1.17815C89.6338 -0.499677 88.9674 1.24045 89.4189 2.91116C89.9359 4.82001 89.8785 6.7941 90.2756 8.70771C90.6146 10.3311 90.9391 11.9569 91.2541 13.5843C91.8867 16.8589 93.1409 19.9309 94.596 22.855C95.5676 24.8101 96.3334 26.9824 97.963 28.5559C97.8646 27.2076 98.526 25.9918 98.4075 24.5884C98.1906 22.0119 97.4898 19.5314 97.199 16.9723C96.6927 12.4771 95.3988 8.17661 93.7777 3.96624C93.0465 2.05751 92.1073 0.333379 90.777 -1.17815Z" fill="#E6B55E"/>
<path fill-rule="evenodd" clip-rule="evenodd" d="M74.0757 8.03015C73.9781 8.53263 74.084 9.06667 74.3265 9.43088C75.4157 11.0626 76.0155 12.964 77.0824 14.6097C79.142 17.7868 81.7102 20.5011 84.1147 23.3645C84.6154 23.9612 85.133 24.5044 85.881 24.7659C86.1721 24.8687 86.4859 25.0817 86.6601 25.3385C87.6411 26.7859 89.146 27.6009 90.4684 28.5351C91.6024 29.3366 93.0693 30.1048 94.6307 29.3889C94.5097 28.9207 94.3948 28.4616 94.1728 28.018C92.6047 24.8998 90.2915 22.378 88.0646 19.8138C85.8171 17.2227 83.1442 15.0829 80.6287 12.7825C78.8701 11.1748 77.3952 9.18015 75.1439 8.21994C74.793 8.07143 74.4932 7.71433 74.0757 8.03015Z" fill="#E6B55E"/>
<path fill-rule="evenodd" clip-rule="evenodd" d="M116.712 55.4406C116.895 56.612 117.092 57.7785 117.263 58.9519C117.552 60.922 117.231 62.8807 117.038 64.8177C116.833 66.881 116.612 68.9648 115.974 70.9614C115.392 72.7887 114.908 74.6453 114.235 76.4474C113.685 77.9195 113.333 79.4851 112.937 81.0199C112.473 82.8276 111.401 84.0778 110.121 85.2237C110.091 86.1138 110.646 86.1068 111.197 85.9306C114.92 84.7472 117.602 82.5872 118.746 78.3779C119.658 75.0241 120.421 71.6547 120.823 68.2243C121.181 65.1487 120.52 62.1378 119.051 59.3641C118.548 58.4164 118.131 57.4187 117.681 56.442C117.471 55.9852 117.168 55.6328 116.712 55.4406Z" fill="#B98650"/>
<path fill-rule="evenodd" clip-rule="evenodd" d="M91.2415 57.0825C92.968 58.1471 94.2348 59.7277 95.27 61.4487C96.7497 63.9092 98.2247 66.3706 99.7871 68.7766C101.393 71.249 102.666 73.9066 103.855 76.624C104.961 79.1523 105.93 81.6886 106.013 84.5079C106.019 84.6921 106.234 84.869 106.352 85.0521C106.596 84.8895 106.763 84.6712 106.823 84.3719C106.757 84.1573 106.816 83.9875 106.972 83.8472C107.054 82.0578 107.774 80.3667 107.649 78.5411C107.461 75.7927 106.993 73.1546 105.516 70.7671C104.681 69.4183 104.02 67.9491 103.311 66.5208C102.36 64.6158 101.036 62.9738 99.9119 61.1916C98.5011 58.963 96.4569 57.7717 94.0954 57.0497C93.3412 56.8187 92.581 56.5963 91.8137 56.4284C91.3554 56.3252 90.9889 56.4426 91.2415 57.0825Z" fill="#B98650"/>
<path fill-rule="evenodd" clip-rule="evenodd" d="M65.8714 -18.4439C65.3607 -17.6356 65.7544 -16.8373 65.9257 -16.0448C66.3525 -14.0657 67.7672 -12.6153 68.5514 -10.8661C69.9827 -7.67184 72.4551 -5.25336 73.9885 -2.14721C74.8978 -0.305024 76.3063 1.27578 77.8964 2.58775C79.7424 4.11022 81.175 6.14328 83.2722 7.3548C83.6351 7.56504 83.875 8.01142 84.3733 7.93526C84.1459 6.33841 83.6461 4.86595 82.8367 3.46074C81.9884 1.98603 80.9819 0.634234 80.0922 -0.805635C78.8941 -2.74629 77.8269 -4.81289 76.4072 -6.56165C73.0605 -10.6761 70.3229 -15.3999 65.8714 -18.4439Z" fill="#E6B55E"/>
<path fill-rule="evenodd" clip-rule="evenodd" d="M109.871 31.5963C109.353 31.2999 109.336 30.6351 108.946 30.241C108.797 30.0907 108.657 29.8425 108.42 30.037C108.274 30.1581 108.325 30.3703 108.397 30.5537C110.501 35.8773 110.169 41.3554 109.317 46.8242C108.926 49.3293 108.931 51.8898 108.357 54.3596C108.046 55.7014 107.607 57.0086 106.506 57.9141C106.449 58.8859 106.747 59.0795 107.625 58.6405C108.788 58.0571 109.905 57.3851 110.921 56.5853C112.221 55.5602 112.622 53.9342 112.934 52.3689C113.676 48.6322 113.939 44.7954 113.601 41.024C113.293 37.5977 112.17 34.2878 109.871 31.5963Z" fill="#B98650"/>
<path fill-rule="evenodd" clip-rule="evenodd" d="M86.2689 32.7447C87.664 33.073 88.5173 34.1973 89.4594 35.1723C90.558 36.3085 91.3584 37.7003 92.186 39.0418C92.8907 40.1834 93.7 41.2187 94.5398 42.2286C97.5413 45.8339 99.6764 50.0032 101.755 54.2072C102.22 55.1458 102.377 56.2577 102.62 57.302C102.7 57.6436 102.78 57.9444 103.021 58.1854C103.111 58.0638 103.202 57.9446 103.294 57.8225L103.345 57.7304C103.732 54.5824 103.556 51.5366 102.43 48.4932C101.758 46.6768 100.798 45.1039 99.7985 43.5226C97.821 40.3967 95.8079 37.2947 93.1881 34.6977C91.3876 32.9112 89.0846 32.3779 86.7607 31.9217C85.9819 31.7687 85.9742 32.168 86.2689 32.7447Z" fill="#B98650"/>
<path fill-rule="evenodd" clip-rule="evenodd" d="M90.7322 -1.14859C92.0561 0.362691 92.9927 2.08856 93.7264 3.99567C95.3425 8.20423 96.6321 12.5004 97.1372 16.9962C97.425 19.557 98.1233 22.034 98.3419 24.6089C98.4596 26.0093 97.8031 27.2266 97.8988 28.5748C98.2962 28.958 98.5789 28.611 98.8153 28.3708C100.53 26.6465 101.88 24.7722 101.644 22.0426C101.22 17.1573 100.126 12.4017 98.2688 7.94385C96.8477 4.53086 94.5043 1.59463 91.7641 -0.896797C91.4966 -1.14169 91.2174 -1.73265 90.7322 -1.14859Z" fill="#B98650"/>
<path fill-rule="evenodd" clip-rule="evenodd" d="M74.0722 8.02833C74.4899 7.715 74.7894 8.06961 75.1407 8.22059C77.3942 9.18035 78.8666 11.1753 80.625 12.7829C83.1404 15.0832 85.8131 17.223 88.0605 19.8139C90.2848 22.3785 92.5979 24.9002 94.1683 28.0177C94.3899 28.4589 94.5052 28.9204 94.6262 29.3886C95.1641 29.1183 95.1427 28.6157 95.0345 28.1352C94.1522 24.2032 92.9632 20.3886 90.1748 17.4355C88.0278 15.1643 86.0163 12.7335 83.51 10.8468C82.6881 10.2283 81.9524 9.47879 81.1955 8.76833C79.1648 6.86229 76.6752 6.70166 74.1782 6.83593C72.9922 6.89887 73.861 7.59304 74.0722 8.02833Z" fill="#B98650"/>
<path fill-rule="evenodd" clip-rule="evenodd" d="M65.8671 -18.4344C70.3166 -15.3934 73.0557 -10.6707 76.3967 -6.55361C77.8159 -4.80512 78.8851 -2.73924 80.0804 -0.798492C80.9698 0.641154 81.9759 1.99274 82.8239 3.46722C83.6331 4.87221 84.1303 6.34484 84.36 7.94104C85.1809 8.64449 85.314 8.07971 85.3369 7.35349C85.4469 3.70545 84.535 0.426937 82.561 -2.66539C80.5471 -5.8169 78.2764 -8.75035 76.024 -11.6919C73.7532 -14.6609 70.985 -17.0772 67.378 -18.1765C66.8774 -18.3281 66.4706 -18.9947 65.8671 -18.4344Z" fill="#B98650"/>
<path fill-rule="evenodd" clip-rule="evenodd" d="M103.351 57.8373C103.351 57.8373 103.299 57.9289 103.301 57.9285C103.324 57.9372 103.347 57.9435 103.372 57.9518C103.365 57.9154 103.357 57.8765 103.351 57.8373Z" fill="#E6B55E"/>
<path fill-rule="evenodd" clip-rule="evenodd" d="M129.986 26.9593C129.007 28.5045 127.915 29.9975 127.383 31.7778C126.754 33.879 125.852 35.9395 125.429 38.0418C124.68 41.7552 123.803 45.4671 123.807 49.3439C123.808 51.8728 123.753 54.434 123.619 56.9779C123.491 59.3863 124.219 61.598 125.469 63.6029C125.703 63.9801 126.097 64.0995 126.52 64.1125C128.617 59.8661 129.428 55.2841 129.722 50.6287C129.899 47.8363 130.045 45.0288 130.199 42.2379C130.395 38.6729 130.565 35.1073 130.75 31.5442C130.834 29.8922 129.722 28.5777 129.986 26.9593Z" fill="#E6B55E"/>
<path fill-rule="evenodd" clip-rule="evenodd" d="M150.625 37.1095C149.38 36.7834 146.741 37.8823 145.909 39.0104C144.673 40.6818 143.264 42.2054 141.937 43.7961C140.59 45.4076 139.206 47.0432 138.221 48.9454C137.814 49.7316 137.062 50.1109 136.574 50.8703C135.409 52.6889 134.432 54.6351 133.585 56.5618C132.225 59.6591 130.351 62.5978 129.981 66.1046C131.482 65.953 132.693 65.0769 133.678 64.0392C136.146 61.4326 138.338 58.5515 140.674 55.813C143.262 52.7818 145.468 49.4032 147.381 45.826C148.859 43.0525 150.303 40.3151 150.625 37.1095Z" fill="#E6B55E"/>
<path fill-rule="evenodd" clip-rule="evenodd" d="M146.647 -0.329239C144.688 0.45391 143.846 2.39395 143.259 4.10085C140.955 10.8073 138.422 17.4708 137.277 24.5305C136.743 27.8168 136.525 31.1337 136.817 34.4512C136.897 35.3739 136.399 36.3022 136.841 37.1946C136.936 37.3842 137.137 37.5153 137.289 37.675C139.145 36.6428 139.65 34.5743 140.12 32.8387C141.926 26.1602 144.225 19.6094 145.488 12.7835C145.764 11.2835 145.928 9.75928 146.134 8.24565C146.512 5.39904 146.669 2.53888 146.647 -0.329239Z" fill="#E6B55E"/>
<path fill-rule="evenodd" clip-rule="evenodd" d="M150.632 37.1156C150.312 40.3214 148.868 43.0593 147.387 45.8287C145.473 49.4064 143.267 52.7832 140.679 55.8174C138.34 58.5567 136.15 61.4379 133.681 64.045C132.697 65.0853 131.485 65.9591 129.984 66.1108C129.462 67.1997 129.768 67.6459 130.93 67.5464C132.257 67.4341 133.604 67.493 134.919 67.2968C137.325 66.9373 138.702 64.9563 140.211 63.2614C142.649 60.523 144.403 57.2528 146.537 54.2849C149.279 50.4742 150.502 46.247 150.857 41.6376C150.931 40.6722 151.205 39.7186 151.362 38.7544C151.474 38.0455 151.458 37.3733 150.632 37.1156Z" fill="#B98650"/>
<path fill-rule="evenodd" clip-rule="evenodd" d="M129.941 26.9855C129.678 28.606 130.789 29.9177 130.704 31.5693C130.522 35.1336 130.35 38.6963 130.154 42.2605C129.998 45.0511 129.852 47.8579 129.678 50.6493C129.384 55.3061 128.574 59.8845 126.479 64.1299C126.896 64.3622 127.147 64.0967 127.385 63.7901C128.908 61.8342 130.411 59.8661 131.5 57.5993C133.288 53.87 133.894 49.8741 134.093 45.8018C134.285 41.8423 134.548 37.876 134.378 33.9137C134.249 30.9092 132.39 28.8649 130.586 26.824C130.353 26.5584 130.105 26.6914 129.941 26.9855Z" fill="#B98650"/>
<path fill-rule="evenodd" clip-rule="evenodd" d="M146.64 -0.31885C146.662 2.54898 146.504 5.40886 146.123 8.25558C145.92 9.76865 145.757 11.2927 145.478 12.793C144.216 19.6181 141.917 26.1683 140.112 32.8461C139.642 34.5815 139.14 36.6495 137.281 37.682C137.292 38.0734 136.986 38.5762 137.447 38.821C137.882 39.0524 138.161 38.5998 138.477 38.3513C141.731 35.7781 143.891 32.5362 145.139 28.4074C146.712 23.207 147.895 17.9298 148.672 12.5865C149.146 9.3258 149.347 5.92085 147.781 2.77698C147.357 1.92231 147.664 0.767262 147.089 -0.105127C147.017 -0.115828 146.977 -0.157318 146.971 -0.234956C146.86 -0.259482 146.751 -0.289366 146.64 -0.31885Z" fill="#B98650"/>
<path fill-rule="evenodd" clip-rule="evenodd" d="M123.238 -12.7069C122.852 -12.4709 122.782 -12.0463 122.842 -11.6947C123.188 -9.67876 123.3 -7.62764 123.915 -5.64282C124.462 -3.86653 125.168 -2.20618 125.883 -0.514505C126.737 1.50768 127.93 3.26664 129.309 4.86678C130.329 6.04793 130.919 7.52327 132 8.64091C132.994 9.67203 134.224 10.1337 135.591 10.3212C135.967 10.3729 136.24 10.2375 136.325 9.81782C135.835 9.74024 135.779 9.44101 135.884 8.98503C136.105 8.03596 135.906 7.1185 135.614 6.23985C135.082 4.64575 134.307 3.16682 133.581 1.66683C132.3 -0.972979 130.601 -3.33056 128.99 -5.7389C127.308 -8.25891 126.022 -11.1559 123.238 -12.7069Z" fill="#E6B55E"/>
<path fill-rule="evenodd" clip-rule="evenodd" d="M123.224 -12.6869C126.002 -11.1369 127.286 -8.24174 128.965 -5.72582C130.572 -3.31902 132.269 -0.960482 133.546 1.67516C134.271 3.17419 135.045 4.65217 135.576 6.24525C135.87 7.12293 136.066 8.04022 135.846 8.98867C135.741 9.44436 135.794 9.74381 136.286 9.82094C136.378 9.66351 136.469 9.50608 136.561 9.34866L136.567 9.26915L136.61 9.20115C136.695 8.81715 136.778 8.4311 136.861 8.04752L136.865 8.00879C137.918 4.18519 137.039 0.795413 135.176 -2.49568C133.675 -5.15095 132.091 -7.72625 130.238 -10.1288C128.606 -12.2431 126.208 -12.6749 123.85 -13.2171C123.475 -13.2992 123.189 -13.1767 123.224 -12.6869Z" fill="#B98650"/>
<path fill-rule="evenodd" clip-rule="evenodd" d="M51.7163 41.5398C52.6315 43.0412 53.459 44.6179 54.7363 45.8442C56.2409 47.2935 57.6125 48.9552 59.1932 50.2317C61.9886 52.4851 64.7372 54.8479 67.9465 56.5354C70.041 57.6371 72.1394 58.7993 74.1963 60.0242C76.1426 61.183 78.2437 61.5327 80.3687 61.3491C80.7681 61.315 81.0138 61.0334 81.1817 60.6804C78.4474 57.0526 74.9564 54.3671 71.2113 52.0867C68.9653 50.7193 66.6955 49.371 64.4426 48.0225C61.5655 46.3017 58.677 44.603 55.7962 42.8903C54.4614 42.0984 52.9602 42.4687 51.7163 41.5398Z" fill="#E6B55E"/>
<path fill-rule="evenodd" clip-rule="evenodd" d="M67.7456 28.1769C67.0076 29.0982 66.9279 31.84 67.5527 33.0473C68.4783 34.8372 69.214 36.7113 70.0375 38.5432C70.872 40.4013 71.7102 42.302 72.9205 43.9797C73.4203 44.6726 73.4531 45.4819 73.9033 46.2312C74.9761 48.0227 76.2292 49.7138 77.5128 51.2828C79.5769 53.8048 81.3188 56.6946 84.0926 58.5493C84.5301 57.1981 84.2573 55.7785 83.7639 54.4812C82.5249 51.2249 80.9519 48.0888 79.5527 44.889C78.0028 41.347 76.0256 37.9785 73.7686 34.7724C72.0255 32.2901 70.2916 29.8547 67.7456 28.1769Z" fill="#E6B55E"/>
<path fill-rule="evenodd" clip-rule="evenodd" d="M35.4065 15.0966C35.3238 17.1032 36.6165 18.6682 37.8119 19.9104C42.5096 24.7985 47.0828 29.8571 52.5025 33.913C55.0259 35.8006 57.691 37.4362 60.5481 38.6359C61.3427 38.9706 61.9272 39.8 62.8317 39.8139C63.0245 39.8158 63.2079 39.7021 63.3991 39.6432C63.2379 37.615 61.712 36.2837 60.4494 35.1263C55.5909 30.674 51.0244 25.8613 45.8386 21.8082C44.699 20.9185 43.4997 20.1148 42.3199 19.2799C40.1026 17.7118 37.7919 16.3295 35.4065 15.0966Z" fill="#E6B55E"/>
<path fill-rule="evenodd" clip-rule="evenodd" d="M67.7461 28.1769C70.2921 29.8546 72.026 32.2901 73.7715 34.772C76.0285 37.9781 78.0053 41.3441 79.5556 44.8886C80.9548 48.0884 82.5278 51.2245 83.7668 54.4808C84.2601 55.7781 84.5333 57.2001 84.0955 58.5489C84.8044 59.4727 85.2903 59.4043 85.6459 58.3692C86.0519 57.1834 86.6066 56.0601 86.9367 54.8484C87.5426 52.6324 86.414 50.5877 85.5708 48.5528C84.2097 45.2679 82.1488 42.3356 80.4834 39.2093C78.3449 35.1924 75.2905 32.2962 71.5896 29.973C70.8139 29.4851 70.1254 28.8354 69.3826 28.276C68.8363 27.8604 68.2714 27.5827 67.7461 28.1769Z" fill="#B98650"/>
<path fill-rule="evenodd" clip-rule="evenodd" d="M51.7146 41.5399C52.9586 42.4688 54.4577 42.1014 55.7922 42.8908C58.675 44.6006 61.5611 46.2997 64.4386 48.0231C66.6915 49.3715 68.9612 50.7198 71.2072 52.0872C74.9524 54.3676 78.443 57.0507 81.1777 60.6809C81.5239 60.4288 81.397 60.1006 81.233 59.7657C80.1815 57.622 79.1123 55.4888 77.6393 53.5762C75.2181 50.4324 72.136 48.177 68.8388 46.2314C65.6313 44.34 62.4484 42.386 59.1028 40.8046C56.5657 39.604 54.1829 40.285 51.8182 40.925C51.5168 41.0043 51.5338 41.2714 51.7146 41.5399Z" fill="#B98650"/>
<path fill-rule="evenodd" clip-rule="evenodd" d="M35.4069 15.0968C37.7923 16.3296 40.1031 17.712 42.3204 19.28C43.4978 20.1153 44.6995 20.9186 45.8391 21.8084C51.0249 25.8614 55.5913 30.6741 60.4498 35.1264C61.7124 36.2839 63.2407 37.6147 63.3995 39.6433C63.7288 39.8064 64.0314 40.2843 64.4065 39.9996C64.76 39.7311 64.4901 39.2962 64.3994 38.9189C63.4828 35.03 61.6043 31.7779 58.6483 28.9141C54.9253 25.3064 50.9975 21.9966 46.8603 19.0032C44.3357 17.1744 41.5884 15.519 38.4007 15.4776C37.5325 15.4654 36.6925 14.7003 35.7548 14.8063C35.7197 14.8629 35.669 14.8787 35.6025 14.8513C35.5396 14.9327 35.4721 15.0149 35.4069 15.0968Z" fill="#B98650"/>
<path fill-rule="evenodd" clip-rule="evenodd" d="M134.21 10.6789C134.21 10.6789 142.764 51.813 112.157 92.6073C112.157 92.6073 147.858 61.6518 135.611 10.452" fill="#B98650"/>
<path fill-rule="evenodd" clip-rule="evenodd" d="M86.5526 15.1181C86.5526 15.1181 112.691 46.8914 104.302 98.2092C104.302 98.2092 121.621 52.9502 87.6799 14.2101" fill="#B98650"/>
</g>
</svg>
