<svg width="794" height="849" viewBox="0 0 794 849" fill="none" xmlns="http://www.w3.org/2000/svg">
<g opacity="0.06">
<path fill-rule="evenodd" clip-rule="evenodd" d="M432.067 473.293C435.625 479.381 438.785 485.818 444.062 490.583C450.288 496.207 455.85 502.796 462.487 507.636C474.225 516.189 485.701 525.216 499.498 531.163C508.498 535.036 517.5 539.19 526.297 543.606C534.606 547.786 543.923 548.43 553.52 546.757C555.316 546.444 556.523 545.132 557.411 543.54C546.45 529.043 531.745 518.931 515.762 510.658C506.175 505.704 496.475 500.832 486.845 495.947C474.551 489.725 462.207 483.603 449.878 477.427C444.181 474.575 437.317 476.787 432.067 473.293Z" fill="#E6B55E"/>
<path fill-rule="evenodd" clip-rule="evenodd" d="M505.236 407.867C501.439 412.263 500.039 424.435 502.508 429.509C506.167 437.05 508.908 445.028 512.071 452.79C515.279 460.667 518.487 468.72 523.523 475.643C525.601 478.497 525.461 482.071 527.272 485.194C531.617 492.674 536.838 499.624 542.26 506.027C550.97 516.312 558.025 528.375 570.316 535.401C572.868 529.24 572.134 523.065 570.302 517.527C565.718 503.641 559.548 490.413 554.202 476.84C548.286 461.806 540.29 447.744 530.941 434.512C523.717 424.26 516.519 414.22 505.236 407.867Z" fill="#E6B55E"/>
<path fill-rule="evenodd" clip-rule="evenodd" d="M365.85 358.527C364.75 367.292 370.032 373.543 374.983 378.458C394.464 397.755 413.315 417.846 436.372 433.222C447.105 440.38 458.58 446.378 471.074 450.409C474.549 451.533 476.882 454.892 480.972 454.575C481.841 454.505 482.724 453.936 483.592 453.593C483.599 444.84 477.176 439.686 471.882 435.184C451.507 417.86 432.594 398.827 410.6 383.364C405.765 379.969 400.626 376.969 395.595 373.837C386.144 367.938 376.195 362.899 365.85 358.527Z" fill="#E6B55E"/>
<path fill-rule="evenodd" clip-rule="evenodd" d="M504.813 408.497C516.009 414.838 523.16 424.864 530.344 435.081C539.629 448.282 547.573 462.321 553.447 477.311C558.757 490.852 564.885 504.049 569.438 517.903C571.246 523.431 571.986 529.589 569.45 535.735C572.409 539.523 574.679 539.009 576.715 534.28C579.042 528.876 582.038 523.671 584.026 518.178C587.668 508.134 583.191 499.577 580.029 490.94C574.937 477.006 566.451 464.918 559.879 451.818C551.436 434.987 538.326 423.48 522.01 414.783C518.584 412.964 515.629 410.373 512.388 408.229C509.997 406.642 507.474 405.648 504.813 408.497Z" fill="#B98650"/>
<path fill-rule="evenodd" clip-rule="evenodd" d="M431.937 473.162C437.186 476.646 444.052 474.444 449.76 477.304C462.08 483.482 474.425 489.604 486.729 495.825C496.359 500.701 506.059 505.573 515.647 510.538C531.642 518.809 546.337 528.924 557.299 543.422C558.946 542.194 558.499 540.824 557.888 539.455C553.94 530.659 549.905 521.91 543.986 514.284C534.257 501.747 521.232 493.305 507.125 486.292C493.419 479.471 479.825 472.377 465.381 466.938C454.427 462.815 443.485 466.733 432.644 470.46C431.237 470.947 431.217 472.087 431.937 473.162Z" fill="#B98650"/>
<path fill-rule="evenodd" clip-rule="evenodd" d="M365.796 358.687C376.135 363.056 386.088 368.09 395.544 373.992C400.571 377.123 405.707 380.121 410.539 383.514C432.518 398.967 451.418 417.978 471.781 435.301C477.072 439.801 483.491 444.951 483.484 453.698C484.912 454.27 486.11 456.226 487.906 454.828C489.607 453.509 488.534 451.741 488.273 450.129C485.536 433.611 478.218 420.257 465.904 409.052C450.37 394.929 433.802 382.186 416.188 370.897C405.429 364.003 393.615 357.955 379.208 359.093C375.295 359.406 371.76 356.428 367.487 357.279C367.301 357.538 367.074 357.624 366.785 357.538C366.448 357.919 366.122 358.298 365.796 358.687Z" fill="#B98650"/>
<path fill-rule="evenodd" clip-rule="evenodd" d="M279.911 426.926C279.957 428.488 281.29 429.238 282.634 429.468C290.347 430.763 297.69 432.874 305.842 433.243C313.114 433.574 320.321 433.244 327.64 432.926C336.391 432.544 344.908 430.725 353.252 428.085C359.41 426.137 365.729 425.969 371.786 423.747C377.37 421.698 381.459 418.19 384.855 413.888C385.797 412.697 385.868 411.638 384.581 410.845C383.316 412.377 382.178 412.192 380.798 411.296C377.939 409.42 374.347 408.97 370.704 408.875C364.084 408.707 357.391 409.486 350.707 410.082C338.952 411.121 327.324 413.903 315.706 416.322C303.574 418.835 290.912 419.591 279.911 426.926Z" fill="#E6B55E"/>
<path fill-rule="evenodd" clip-rule="evenodd" d="M279.163 424.505C290.173 417.118 302.846 416.357 315.005 413.806C326.643 411.369 338.27 408.568 350.034 407.523C356.724 406.923 363.433 406.146 370.047 406.309C373.693 406.405 377.289 406.859 380.15 408.748C381.52 409.653 382.67 409.846 383.935 408.294C383.567 407.795 383.208 407.293 382.841 406.803C382.842 406.811 382.576 406.683 382.576 406.683L382.42 406.462C381.248 405.717 380.076 404.963 378.905 404.218L378.777 404.157C367.585 395.983 354.008 394.788 338.779 396.997C326.494 398.783 314.33 400.927 302.231 404.188C291.568 407.062 285.221 414.548 278.572 421.765C277.535 422.923 277.388 424.031 279.163 424.505Z" fill="#B98650"/>
<path fill-rule="evenodd" clip-rule="evenodd" d="M413.283 413.449C413.283 413.449 566.051 478.257 626.646 683.884C626.646 683.884 641.829 682.456 635.645 658.063C635.362 656.93 630.326 649.418 630.019 648.257C613.259 584.779 552.821 460.785 415.798 407.862" fill="#B98650"/>
<path fill-rule="evenodd" clip-rule="evenodd" d="M496.924 319.156C496.924 319.156 630.185 421.383 641.64 636.445C641.64 636.445 671.476 436.983 500.661 314.382" fill="#B98650"/>
<path fill-rule="evenodd" clip-rule="evenodd" d="M714.662 398.822C714.662 398.822 711.857 479.924 683.349 561.927C654.84 643.929 627.551 705.961 615.22 735.017C602.879 764.074 587.035 786.445 587.035 786.445C617.523 692.541 617.483 692.747 648.012 605.174C678.89 516.65 694.669 461.357 690.998 413.479C707.219 398.396 714.662 398.822 714.662 398.822Z" fill="#B98650"/>
<path fill-rule="evenodd" clip-rule="evenodd" d="M690.661 848.152C689.86 845.679 687.419 845.478 684.922 844.957C674.701 842.85 664.579 845.41 654.12 847.847C639.34 851.287 624.608 854.7 610.248 860.001C598.936 864.174 588.459 869.871 578.724 876.787C574.243 879.969 569.652 883.061 565.679 886.813C564.695 887.747 563.649 888.483 564.297 889.774C564.693 890.069 565.026 890.525 565.5 890.62C571.075 891.719 576.974 891.224 582.717 890.228C596.405 887.84 609.685 882.969 623.38 880.195C630.869 878.678 638.473 876.133 645.851 873.18C651.541 870.903 657.196 868.485 662.908 866.23C673.474 862.051 683.384 856.785 690.661 848.152Z" fill="#E6B55E"/>
<path fill-rule="evenodd" clip-rule="evenodd" d="M693.95 671.372C691.116 672.368 689.267 674.683 687.47 676.822C679.183 686.727 671.587 697.061 665.32 708.338C654.34 728.112 647.744 748.99 643.134 770.508C642.219 774.778 639.936 778.76 640.077 783.347C640.231 788.404 641.854 792.999 642.625 797.853C642.742 798.581 643.934 799.067 644.634 799.66C647.975 798.153 650.084 795.367 652.402 792.662C657.794 786.356 660.498 778.808 664 771.617C667.367 764.71 670.956 757.903 673.694 750.729C681.07 731.393 685.769 711.441 692.271 691.906C694.484 685.276 696.025 678.202 693.95 671.372Z" fill="#E6B55E"/>
<path fill-rule="evenodd" clip-rule="evenodd" d="M760.817 743.253C758.878 741.593 757.031 740.703 753.917 740.747C744.191 740.894 736.592 746.668 728.253 750.56C717.198 755.717 707.32 762.947 697.187 769.646C689.74 774.564 683.151 780.919 677.227 787.578C670.007 795.699 662.451 803.717 657.752 813.62C661.949 814.172 666.128 813.627 670.276 812.31C677.949 809.885 684.083 804.484 691.062 800.738C702.192 794.761 713.654 789.446 724.048 782.047C728.849 778.636 732.957 774.415 737.575 770.833C747.419 763.236 756.027 754.777 760.817 743.253Z" fill="#E6B55E"/>
<path fill-rule="evenodd" clip-rule="evenodd" d="M820.181 600.047C817.572 595.811 813.947 599.356 810.999 599.935C803.279 601.442 799.876 608.896 794.445 613.572C784.432 622.203 776.807 633.017 767.897 642.662C753.106 658.654 743.755 677.661 735.273 697.092C734.667 698.481 733.428 700.076 735.105 701.44C740.465 701.405 744.481 698.217 748.096 694.673C753.891 688.988 759.577 683.163 764.98 677.11C772.605 668.575 782.006 661.727 788.616 652.232C792.874 646.123 797.748 640.366 801.623 634.05C806.493 626.076 812.623 618.782 815.686 609.742C816.757 606.537 817.585 602.836 820.181 600.047Z" fill="#E6B55E"/>
<path fill-rule="evenodd" clip-rule="evenodd" d="M812.052 461.215C809.1 460.76 807.578 462.912 805.877 464.8C799.837 471.502 795.866 479.244 792.491 487.376C784.488 506.717 776.15 526.01 770.418 545.96C766.007 561.334 764.126 577.091 763.826 592.808C763.784 595.135 764.666 597.407 765.117 599.7C769.492 596.188 771.979 591.456 774.516 586.704C780.589 575.367 783.055 562.95 788.372 551.296C794.05 538.85 798.556 525.798 801.709 512.567C805.565 496.425 812.104 480.533 810.67 463.835C810.609 463.053 811.564 462.094 812.052 461.215Z" fill="#E6B55E"/>
<path fill-rule="evenodd" clip-rule="evenodd" d="M761.266 743.601C756.454 755.203 747.835 763.715 737.977 771.37C733.346 774.966 729.22 779.226 724.417 782.657C713.996 790.095 702.518 795.452 691.35 801.471C684.354 805.241 678.204 810.678 670.513 813.118C666.355 814.443 662.166 814.992 657.958 814.436C655.286 817.086 657.244 818.358 659.233 819.386C670.318 825.136 681.385 828.494 694.582 821.01C710.157 812.171 725.337 802.816 738.456 790.545C747.296 782.276 753.6 772.126 757.549 760.782C759.019 756.554 760.928 752.429 762.723 748.287C763.636 746.129 763.233 744.613 761.266 743.601Z" fill="#B98650"/>
<path fill-rule="evenodd" clip-rule="evenodd" d="M693.615 671.701C695.685 678.522 694.148 685.587 691.95 692.196C685.465 711.716 680.766 731.635 673.418 750.943C670.688 758.109 667.109 764.917 663.748 771.805C660.254 778.976 657.557 786.515 652.18 792.823C649.878 795.521 647.764 798.306 644.431 799.811C644.908 800.128 645.375 800.447 645.853 800.764C646.277 800.897 646.711 801.027 647.146 801.158C650.228 801.262 652.259 798.843 654.5 797.316C672.407 785.116 683.811 768.667 690.722 748.499C696.16 732.634 702.24 716.981 704.911 700.579C706.721 689.509 701.806 680.32 697.843 670.945C697.637 670.441 696.479 670.391 695.776 670.118C695.786 670.116 695.498 670.162 695.498 670.162C694.557 670.264 694.037 670.92 693.615 671.701Z" fill="#B98650"/>
<path fill-rule="evenodd" clip-rule="evenodd" d="M820.419 600.189C817.82 602.982 816.992 606.688 815.901 609.911C812.834 618.964 806.698 626.268 801.822 634.253C797.954 640.586 793.074 646.34 788.801 652.46C782.184 661.969 772.782 668.824 765.139 677.373C759.73 683.433 754.038 689.267 748.237 694.96C744.618 698.508 740.598 701.701 735.233 701.736C732.692 705.9 733.127 706.895 737.637 707.452C750.479 709.017 761.369 705.14 770.891 694.93C783.432 681.481 795.751 667.884 805.483 652.362C812.333 641.425 816.986 629.607 818.6 617.003C819.22 612.217 821.441 607.601 821.268 602.708C821.246 601.723 821.31 600.781 820.419 600.189Z" fill="#B98650"/>
<path fill-rule="evenodd" clip-rule="evenodd" d="M746.729 559.453C743.897 560.947 742.897 563.63 741.492 565.991C730.13 585.165 720.835 604.884 716.721 625.793C713.377 642.8 710.914 659.842 711.004 676.698C711.041 683.056 713.512 688.958 718.102 693.521C722.045 688.686 725.821 683.651 727.98 678.087C734.618 661.001 738.264 643.56 741.19 626.111C743.377 613.09 744.595 600.034 747.143 587.026C749.026 577.428 749.241 568.314 746.729 559.453Z" fill="#E6B55E"/>
<path fill-rule="evenodd" clip-rule="evenodd" d="M745.598 560.317C748.084 569.15 747.881 578.233 746.018 587.81C743.495 600.775 742.288 613.78 740.123 626.769C737.227 644.172 733.616 661.546 727.044 678.577C724.907 684.123 721.179 689.129 717.267 693.961C720.359 695.898 722.492 693.525 724.358 691.466C740.024 674.216 751.153 655.672 754.587 633.704C756.946 618.622 760.308 603.556 761.462 588.441C762.072 580.504 760.483 573.547 756.121 567.418L756.144 567.423C755.311 565.289 753.837 563.622 752.084 562.167L752.132 562.198C751.596 561.641 751.059 561.075 750.535 560.526C750.408 560.268 750.292 560.008 750.164 559.74C749.493 558.734 748.715 557.883 747.206 558.018C747.216 558.016 746.919 558.254 746.919 558.254C746.478 558.932 746.039 559.63 745.598 560.317Z" fill="#B98650"/>
<path fill-rule="evenodd" clip-rule="evenodd" d="M812.012 461.346C811.535 462.223 810.571 463.183 810.642 463.963C812.074 480.643 805.543 496.537 801.692 512.671C798.532 525.899 794.042 538.943 788.37 551.382C783.06 563.03 780.596 575.442 774.53 586.774C771.996 591.523 769.502 596.255 765.142 599.763C764.371 601.016 763.921 602.392 765.352 603.153C766.693 603.86 767.743 602.646 768.838 601.814C781.49 592.31 791.503 581.3 797.185 566.18C805.003 545.357 812.786 524.592 816.547 502.953C818.921 489.333 817.574 476.057 813.657 463.282C813.537 463.161 813.467 463.02 813.466 462.835C812.974 462.333 812.493 461.84 812.012 461.346Z" fill="#B98650"/>
<path fill-rule="evenodd" clip-rule="evenodd" d="M692.197 669.874C692.197 669.874 692.477 669.819 692.468 669.83L692.313 669.64L692.197 669.874Z" fill="#E6B55E"/>
<path fill-rule="evenodd" clip-rule="evenodd" d="M626.635 764.172C623.722 764.835 622.012 767.162 620.057 769.066C604.217 784.531 589.994 801.109 579.885 820.267C571.671 835.849 564.189 851.706 558.992 868.098C557.03 874.281 557.322 880.688 559.861 886.392C564.795 882.784 569.632 878.949 573.249 874.14C584.345 859.388 592.953 843.469 600.962 827.335C606.938 815.296 612.084 802.964 618.36 791.047C622.996 782.25 626.032 773.462 626.635 764.172Z" fill="#E6B55E"/>
<path fill-rule="evenodd" clip-rule="evenodd" d="M626.343 764.554C625.741 773.831 622.711 782.606 618.085 791.401C611.819 803.3 606.683 815.615 600.718 827.636C592.723 843.748 584.129 859.635 573.054 874.375C569.443 879.177 564.616 883.007 559.691 886.61C561.778 889.349 564.389 887.639 566.659 886.154C585.741 873.754 601.273 858.812 611.162 838.422C617.951 824.413 625.611 810.697 631.362 796.333C634.387 788.784 635.176 781.577 633.303 774.398L633.326 774.413C633.264 772.106 632.506 770.075 631.43 768.175L631.466 768.217C631.173 767.526 630.89 766.832 630.596 766.141C630.568 765.859 630.539 765.566 630.52 765.272C630.253 764.107 629.85 763.062 628.488 762.769L628.162 762.922C627.555 763.456 626.949 764.01 626.343 764.554Z" fill="#B98650"/>
<path fill-rule="evenodd" clip-rule="evenodd" d="M366.738 353.153C367.023 353.264 367.241 353.187 367.411 352.917L366.966 352.737L366.738 353.153Z" fill="#E6B55E"/>
<path fill-rule="evenodd" clip-rule="evenodd" d="M715.525 384.232C713.433 382.88 711.224 383.587 709.513 384.901C703.756 389.336 698.1 393.627 695.915 401.269C693.448 409.864 689.316 418.089 686.817 426.68C683.17 439.258 678.922 451.797 678.465 464.914C678.014 477.989 679.099 490.88 680.889 503.686C681.102 505.206 681.796 506.56 683.149 507.435C688.881 502.529 693.703 497.231 695.939 489.746C697.851 483.399 699.576 476.912 702.155 470.787C705.307 463.289 707.646 455.598 710.404 448.011C713.429 439.721 714.649 431.14 715.794 422.646C716.873 414.671 718.513 406.578 717.495 398.554C716.893 393.759 716.177 388.997 715.525 384.232Z" fill="#E6B55E"/>
<path fill-rule="evenodd" clip-rule="evenodd" d="M607.762 392.742C604.986 395.256 606.31 398.484 606.485 401.036C607.323 413.636 609.751 425.969 612.939 438.052C614.261 443.06 617.115 447.575 619.188 452.355C625.366 466.589 635.88 478.069 643.22 491.581C645.49 495.764 648.532 499.529 653.938 501.181C657.33 502.23 659.94 505.417 663.898 506.025C666.149 506.365 668.276 507.111 670.192 505.003C669.701 504.281 668.785 503.579 668.78 502.825C668.762 491.276 664.853 481.029 660.342 470.837C655.494 459.883 650.272 449.187 643.577 439.304C637.063 429.686 630.936 419.828 624.789 409.973C620.483 403.123 615.157 396.843 607.762 392.742Z" fill="#E6B55E"/>
<path fill-rule="evenodd" clip-rule="evenodd" d="M686.871 285.514C685.768 281.48 683.992 277.792 679.389 276.993C674.886 276.206 672.573 279.857 670.302 282.857C667.396 286.705 665.719 290.951 664.762 295.692C661.728 310.808 658.9 325.926 658.062 341.192C657.462 352.052 658.61 362.67 661.31 373.137C662.873 379.191 663.139 385.628 666.267 391.195C666.931 392.386 667.452 393.657 668.767 394.318C673.735 390.417 675.831 384.97 677.371 379.401C680.199 369.151 680.492 358.62 682.537 348.251C686.974 325.62 689.12 303.033 680.502 281.472C680.207 280.729 680.005 279.864 680.669 279.343C681.727 278.507 682.313 279.505 682.958 280.098C684.629 281.646 684.632 284.376 686.871 285.514Z" fill="#E6B55E"/>
<path fill-rule="evenodd" clip-rule="evenodd" d="M587.127 292.386C584.491 297.34 587.722 301.625 588.604 305.873C590.573 315.297 593.44 324.639 597.242 333.396C600.654 341.272 605.185 348.785 610.314 355.636C618.428 366.478 627.308 376.739 636.118 387.034C640.493 392.156 647.033 393.786 653.43 395.362C654.67 395.666 655.91 395.259 656.362 393.718C655.341 392.764 655.029 391.557 654.739 390.171C653.827 385.94 653.283 381.42 651.381 377.659C642.917 360.816 634.205 344.105 621.685 329.845C618.182 325.851 614.802 321.74 611.91 317.194C608.5 311.842 605.214 306.291 600.608 301.811C596.658 297.966 593.102 293.518 587.127 292.386Z" fill="#E6B55E"/>
<path fill-rule="evenodd" clip-rule="evenodd" d="M606.406 150.791C601.176 153.775 597.957 161.065 599.777 167.888C601.861 175.684 601.353 183.842 602.897 191.676C604.216 198.323 605.471 204.981 606.681 211.648C609.113 225.063 614.367 237.541 620.543 249.378C624.668 257.291 627.838 266.135 634.971 272.368C634.699 266.819 637.829 261.694 637.474 255.92C636.825 245.321 633.986 235.195 633.002 224.678C631.293 206.205 626.016 188.662 619.256 171.544C616.208 163.782 612.2 156.817 606.406 150.791Z" fill="#E6B55E"/>
<path fill-rule="evenodd" clip-rule="evenodd" d="M536.641 190.717C536.165 192.77 536.552 194.919 537.541 196.358C541.983 202.805 544.309 210.422 548.654 216.928C557.043 229.49 567.653 240.094 577.548 251.328C579.609 253.669 581.748 255.791 584.901 256.733C586.128 257.105 587.439 257.919 588.15 258.933C592.153 264.649 598.464 267.717 603.983 271.298C608.715 274.37 614.869 277.254 621.603 274.104C621.144 272.224 620.71 270.38 619.818 268.616C613.515 256.217 603.968 246.353 594.793 236.304C585.534 226.149 574.409 217.892 563.974 208.958C556.679 202.715 550.638 194.858 541.167 191.318C539.69 190.771 538.456 189.37 536.641 190.717Z" fill="#E6B55E"/>
<path fill-rule="evenodd" clip-rule="evenodd" d="M715.054 384.746C715.702 389.506 716.41 394.245 717.006 399.016C718.017 407.025 716.388 415.085 715.318 423.036C714.183 431.505 712.973 440.061 709.972 448.326C707.238 455.89 704.918 463.559 701.792 471.034C699.235 477.141 697.523 483.598 695.627 489.937C693.4 497.402 688.618 502.684 682.944 507.573C682.708 511.217 685.107 511.101 687.508 510.293C703.74 504.862 715.594 495.604 721.049 478.21C725.398 464.352 729.108 450.454 731.261 436.364C733.184 423.731 730.694 411.525 724.683 400.417C722.626 396.622 720.946 392.609 719.117 388.686C718.266 386.852 717.001 385.459 715.054 384.746Z" fill="#B98650"/>
<path fill-rule="evenodd" clip-rule="evenodd" d="M607.531 393.083C614.877 397.165 620.17 403.432 624.443 410.309C630.551 420.143 636.637 429.981 643.11 439.579C649.762 449.44 654.951 460.113 659.767 471.045C664.249 481.215 668.133 491.44 668.151 502.964C668.155 503.717 669.065 504.407 669.554 505.137C670.627 504.433 671.377 503.513 671.676 502.278C671.415 501.411 671.692 500.707 672.385 500.107C672.958 492.772 676.283 485.737 675.963 478.286C675.483 467.069 673.778 456.348 667.674 446.813C664.225 441.426 661.542 435.518 658.646 429.786C654.76 422.142 649.226 415.633 644.575 408.519C638.738 399.624 630.031 395.074 619.893 392.495C616.656 391.669 613.39 390.88 610.088 390.315C608.116 389.966 606.515 390.505 607.531 393.083Z" fill="#B98650"/>
<path fill-rule="evenodd" clip-rule="evenodd" d="M502.794 80.9155C500.499 84.2952 502.096 87.4904 502.737 90.6975C504.333 98.7062 510.244 104.401 513.406 111.415C519.176 124.223 529.519 133.701 535.74 146.133C539.428 153.507 545.296 159.735 551.978 164.837C559.735 170.757 565.652 178.826 574.528 183.438C576.063 184.238 577.042 186.022 579.194 185.632C578.41 179.151 576.438 173.221 573.126 167.615C569.655 161.732 565.489 156.375 561.836 150.64C556.917 142.91 552.576 134.646 546.68 127.735C532.781 111.475 521.576 92.6316 502.794 80.9155Z" fill="#E6B55E"/>
<path fill-rule="evenodd" clip-rule="evenodd" d="M686.274 285.992C684.04 284.857 684.047 282.13 682.387 280.574C681.756 279.98 681.174 278.983 680.113 279.82C679.454 280.341 679.654 281.204 679.947 281.946C688.505 303.472 686.374 326.022 681.966 348.617C679.945 358.967 679.654 369.481 676.834 379.716C675.305 385.276 673.223 390.714 668.288 394.609C667.917 398.609 669.201 399.356 673.099 397.413C678.267 394.831 683.24 391.893 687.787 388.447C693.606 384.029 695.564 377.288 697.124 370.81C700.835 355.346 702.462 339.547 701.444 324.113C700.519 310.092 696.009 296.678 686.274 285.992Z" fill="#B98650"/>
<path fill-rule="evenodd" clip-rule="evenodd" d="M586.964 292.51C592.935 293.629 596.474 298.084 600.414 301.916C605.008 306.381 608.288 311.937 611.69 317.284C614.587 321.834 617.947 325.933 621.442 329.924C633.935 344.169 642.626 360.855 651.072 377.692C652.959 381.451 653.502 385.966 654.422 390.192C654.722 391.574 655.034 392.79 656.042 393.736C656.445 393.225 656.85 392.724 657.263 392.211L657.492 391.826C659.541 378.91 659.152 366.501 654.672 354.252C651.997 346.942 648.054 340.671 643.939 334.373C635.8 321.922 627.504 309.575 616.534 299.386C608.994 292.377 599.138 290.565 589.183 289.071C585.846 288.57 585.765 290.202 586.964 292.51Z" fill="#B98650"/>
<path fill-rule="evenodd" clip-rule="evenodd" d="M605.461 151.467C611.154 157.481 615.1 164.44 618.122 172.179C624.776 189.258 629.968 206.75 631.65 225.189C632.608 235.693 635.401 245.785 636.05 256.358C636.398 262.108 633.328 267.228 633.585 272.766C635.302 274.281 636.602 272.806 637.682 271.779C645.517 264.401 651.75 256.464 651.046 245.256C649.77 225.199 645.505 205.783 637.811 187.717C631.924 173.884 621.878 162.164 610.015 152.339C608.857 151.373 607.69 148.983 605.461 151.467Z" fill="#B98650"/>
<path fill-rule="evenodd" clip-rule="evenodd" d="M536.545 190.678C538.361 189.341 539.594 190.732 541.071 191.289C550.549 194.826 556.578 202.683 563.871 208.925C574.303 217.857 585.424 226.112 594.681 236.264C603.842 246.313 613.386 256.174 619.697 268.569C620.588 270.323 621.023 272.176 621.482 274.056C623.805 272.875 623.774 270.84 623.371 268.909C620.086 253.103 615.482 237.822 603.966 226.286C595.099 217.415 586.828 207.875 576.384 200.619C572.96 198.241 569.918 195.317 566.781 192.556C558.365 185.147 547.786 184.888 537.14 185.826C532.083 186.268 535.699 188.946 536.545 190.678Z" fill="#B98650"/>
<path fill-rule="evenodd" clip-rule="evenodd" d="M502.681 81.1264C521.428 92.8227 532.624 111.648 546.479 127.908C552.364 134.814 556.707 143.069 561.607 150.794C565.254 156.524 569.413 161.877 572.877 167.755C576.183 173.357 578.141 179.284 578.935 185.757C582.376 188.495 583.016 186.171 583.203 183.206C584.117 168.311 580.596 155.086 572.49 142.788C564.22 130.255 554.82 118.652 545.499 107.013C536.103 95.2652 524.503 85.8498 509.141 81.9387C507.008 81.4001 505.341 78.7461 502.681 81.1264Z" fill="#B98650"/>
<path fill-rule="evenodd" clip-rule="evenodd" d="M657.644 394.249C657.644 394.249 657.406 394.634 657.416 394.632C657.514 394.664 657.611 394.686 657.719 394.716C657.692 394.568 657.662 394.409 657.644 394.249Z" fill="#E6B55E"/>
<path fill-rule="evenodd" clip-rule="evenodd" d="M770.771 266.568C766.271 273.078 761.282 279.392 758.719 286.796C755.689 295.537 751.464 304.153 749.34 312.865C745.583 328.253 741.265 343.655 740.8 359.594C740.492 369.992 739.93 380.532 739.026 391.013C738.162 400.936 741.093 409.914 746.348 417.957C747.331 419.471 749.05 419.899 750.91 419.885C760.667 402.09 764.805 383.12 766.676 363.932C767.803 352.422 768.793 340.855 769.813 329.355C771.121 314.665 772.31 299.978 773.565 285.298C774.142 278.492 769.411 273.265 770.771 266.568Z" fill="#E6B55E"/>
<path fill-rule="evenodd" clip-rule="evenodd" d="M855.69 308.496C850.469 307.378 839.191 312.215 835.543 316.886C830.123 323.807 823.989 330.161 818.193 336.772C812.314 343.47 806.273 350.271 801.883 358.082C800.071 361.31 796.85 362.955 794.698 366.088C789.561 373.591 785.201 381.578 781.395 389.467C775.282 402.147 767.016 414.27 765.036 428.445C771.393 427.599 776.613 423.883 780.897 419.552C791.632 408.673 801.236 396.732 811.428 385.343C822.722 372.736 832.44 358.79 840.949 344.091C847.521 332.696 853.947 321.45 855.69 308.496Z" fill="#E6B55E"/>
<path fill-rule="evenodd" clip-rule="evenodd" d="M839.932 153.675C831.334 157.194 827.444 165.273 824.691 172.356C813.874 200.185 802.073 227.874 796.243 256.966C793.523 270.508 792.172 284.125 793.034 297.663C793.268 301.429 790.996 305.309 792.803 308.893C793.191 309.655 794.048 310.159 794.686 310.789C802.868 306.267 805.308 297.716 807.561 290.534C816.211 262.899 826.986 235.708 833.3 207.555C834.682 201.369 835.575 195.102 836.654 188.871C838.645 177.154 839.677 165.417 839.932 153.675Z" fill="#E6B55E"/>
<path fill-rule="evenodd" clip-rule="evenodd" d="M855.852 308.632C854.118 321.596 847.688 332.852 841.097 344.241C832.581 358.953 822.854 372.902 811.552 385.531C801.341 396.932 791.74 408.882 780.996 419.771C776.71 424.116 771.484 427.826 765.121 428.672C762.784 433.141 764.028 434.89 768.95 434.307C774.574 433.647 780.257 433.674 785.841 432.677C796.051 430.852 802.109 422.656 808.691 415.592C819.322 404.178 827.122 390.73 836.498 378.44C848.542 362.659 854.213 345.438 856.262 326.814C856.691 322.913 857.965 319.028 858.742 315.12C859.301 312.246 859.313 309.541 855.852 308.632Z" fill="#B98650"/>
<path fill-rule="evenodd" clip-rule="evenodd" d="M769.801 267.166C768.45 273.864 773.155 279.074 772.58 285.872C771.343 300.54 770.149 315.201 768.848 329.871C767.823 341.358 766.837 352.91 765.727 364.403C763.867 383.577 759.75 402.511 750.046 420.283C751.842 421.17 752.977 420.04 754.06 418.742C760.971 410.466 767.802 402.142 772.857 392.658C781.151 377.055 784.299 360.546 785.673 343.788C787.006 327.494 788.646 311.161 788.391 294.914C788.196 282.594 780.304 274.494 772.649 266.4C771.661 265.346 770.558 265.932 769.801 267.166Z" fill="#B98650"/>
<path fill-rule="evenodd" clip-rule="evenodd" d="M839.758 153.911C839.504 165.646 838.474 177.376 836.476 189.089C835.409 195.314 834.516 201.578 833.126 207.763C826.823 235.9 816.064 263.076 807.427 290.696C805.178 297.874 802.751 306.418 794.573 310.94C794.571 312.54 793.186 314.647 795.154 315.576C797.009 316.453 798.271 314.557 799.673 313.489C814.083 302.439 823.838 288.826 829.752 271.728C837.199 250.192 842.971 228.404 846.988 206.41C849.442 192.988 850.727 179.02 844.327 166.401C842.594 162.97 844.066 158.193 841.679 154.714C841.368 154.682 841.2 154.518 841.183 154.202C840.707 154.119 840.238 154.014 839.758 153.911Z" fill="#B98650"/>
<path fill-rule="evenodd" clip-rule="evenodd" d="M740.033 105.169C738.266 106.239 737.871 107.983 738.071 109.393C739.224 117.479 739.327 125.774 741.685 133.656C743.78 140.71 746.606 147.248 749.467 153.911C752.882 161.875 757.855 168.674 763.695 174.774C768.012 179.276 770.356 185.096 774.954 189.323C779.187 193.223 784.577 194.744 790.633 195.112C792.299 195.213 793.538 194.585 794 192.857C791.829 192.683 791.639 191.484 792.196 189.602C793.361 185.686 792.652 182.018 791.521 178.534C789.457 172.215 786.289 166.434 783.343 160.553C778.147 150.203 771.029 141.12 764.317 131.805C757.307 122.058 752.137 110.666 740.033 105.169Z" fill="#E6B55E"/>
<path fill-rule="evenodd" clip-rule="evenodd" d="M739.706 105.644C751.703 111.12 756.826 122.471 763.773 132.173C770.424 141.454 777.48 150.514 782.627 160.816C785.547 166.675 788.687 172.436 790.732 178.732C791.864 182.2 792.556 185.857 791.401 189.759C790.849 191.633 791.026 192.83 793.189 193.001C793.624 192.338 794.06 191.674 794.495 191.011L794.539 190.687L794.739 190.4C795.19 188.821 795.63 187.235 796.07 185.658L796.098 185.5C801.487 169.722 798.248 156.253 790.635 143.466C784.501 133.149 777.987 123.179 770.25 113.986C763.436 105.896 752.909 104.836 742.576 103.318C740.933 103.093 739.646 103.671 739.706 105.644Z" fill="#B98650"/>
<path fill-rule="evenodd" clip-rule="evenodd" d="M444.208 326.842C447.99 333.052 451.41 339.573 456.69 344.645C462.909 350.639 468.578 357.512 475.111 362.792C486.665 372.112 498.026 381.884 511.291 388.863C519.948 393.42 528.621 398.227 537.123 403.293C545.168 408.086 553.852 409.532 562.636 408.773C564.286 408.632 565.302 407.467 565.996 406.007C554.694 391.003 540.265 379.895 524.785 370.464C515.502 364.808 506.121 359.232 496.809 353.655C484.917 346.537 472.978 339.511 461.071 332.428C455.554 329.152 449.349 330.684 444.208 326.842Z" fill="#E6B55E"/>
<path fill-rule="evenodd" clip-rule="evenodd" d="M510.466 271.574C507.416 275.385 507.087 286.725 509.669 291.718C513.495 299.121 516.536 306.872 519.939 314.449C523.388 322.134 526.853 329.995 531.856 336.934C533.921 339.8 534.057 343.147 535.918 346.246C540.352 353.656 545.531 360.65 550.837 367.139C559.368 377.57 566.568 389.522 578.033 397.193C579.841 391.604 578.713 385.733 576.674 380.368C571.553 366.9 565.052 353.929 559.268 340.695C552.862 326.045 544.69 312.113 535.361 298.853C528.156 288.586 520.99 278.513 510.466 271.574Z" fill="#E6B55E"/>
<path fill-rule="evenodd" clip-rule="evenodd" d="M376.8 217.475C376.458 225.774 381.801 232.247 386.742 237.385C406.159 257.602 425.061 278.523 447.462 295.299C457.892 303.106 468.908 309.87 480.717 314.832C484.001 316.217 486.417 319.647 490.155 319.705C490.952 319.712 491.71 319.242 492.5 318.998C491.834 310.61 485.527 305.104 480.309 300.317C460.227 281.902 441.353 261.997 419.918 245.234C415.208 241.554 410.251 238.23 405.375 234.777C396.21 228.291 386.659 222.574 376.8 217.475Z" fill="#E6B55E"/>
<path fill-rule="evenodd" clip-rule="evenodd" d="M510.466 271.574C520.989 278.513 528.156 288.586 535.37 298.851C544.699 312.111 552.87 326.033 559.277 340.693C565.061 353.927 571.562 366.898 576.683 380.366C578.723 385.731 579.852 391.613 578.042 397.191C580.972 401.012 582.981 400.729 584.451 396.448C586.129 391.544 588.421 386.898 589.786 381.886C592.29 372.721 587.625 364.264 584.14 355.848C578.514 342.262 569.996 330.134 563.112 317.204C554.274 300.59 541.649 288.611 526.352 279.003C523.146 276.985 520.3 274.298 517.23 271.984C514.972 270.265 512.637 269.117 510.466 271.574Z" fill="#B98650"/>
<path fill-rule="evenodd" clip-rule="evenodd" d="M444.211 326.843C449.352 330.684 455.549 329.165 461.064 332.43C472.98 339.502 484.909 346.529 496.802 353.657C506.114 359.234 515.495 364.81 524.779 370.466C540.258 379.897 554.686 390.994 565.989 406.009C567.42 404.966 566.896 403.609 566.218 402.224C561.872 393.357 557.452 384.535 551.364 376.624C541.357 363.621 528.617 354.293 514.989 346.246C501.732 338.424 488.576 330.342 474.748 323.802C464.261 318.836 454.412 321.653 444.639 324.299C443.393 324.627 443.463 325.732 444.211 326.843Z" fill="#B98650"/>
<path fill-rule="evenodd" clip-rule="evenodd" d="M376.804 217.474C386.664 222.573 396.215 228.291 405.379 234.776C410.246 238.231 415.213 241.553 419.923 245.233C441.357 261.997 460.232 281.902 480.313 300.316C485.532 305.103 491.849 310.608 492.505 318.998C493.866 319.672 495.117 321.649 496.667 320.471C498.128 319.361 497.013 317.562 496.638 316.001C492.849 299.917 485.085 286.467 472.867 274.622C457.479 259.701 441.244 246.012 424.144 233.631C413.709 226.067 402.354 219.221 389.178 219.05C385.59 218.999 382.118 215.835 378.242 216.273C378.097 216.507 377.887 216.572 377.612 216.459C377.353 216.796 377.074 217.136 376.804 217.474Z" fill="#B98650"/>
<path fill-rule="evenodd" clip-rule="evenodd" d="M785.182 199.203C785.182 199.203 820.539 369.332 694.033 538.055C694.033 538.055 841.594 410.024 790.975 198.264" fill="#B98650"/>
<path fill-rule="evenodd" clip-rule="evenodd" d="M588.194 217.565C588.194 217.565 696.23 348.977 661.559 561.225C661.559 561.225 733.139 374.036 592.854 213.809" fill="#B98650"/>
</g>
</svg>
