<svg width="488" height="608" viewBox="0 0 488 608" fill="none" xmlns="http://www.w3.org/2000/svg">
<g opacity="0.2" clip-path="url(#clip0_558_7558)">
<path fill-rule="evenodd" clip-rule="evenodd" d="M4.38763 186.886C11.3341 211.134 32.9493 224.266 58.2924 220.606C65.7483 219.529 70.9581 216.577 76.0754 211.261C101.337 185.01 126.773 158.875 154.096 134.766C176.753 114.779 186.779 88.7359 193.158 60.4928C194.872 52.9197 195.937 45.2654 195.497 37.1133C226.664 81.6259 271.387 104.728 320.8 120.221C403.44 146.137 486.323 171.3 569.044 196.995C582.671 201.233 594.885 196.625 607.134 192.329C615.03 189.561 622.741 185.948 628.842 179.846C630.857 181.189 629.71 182.903 629.282 183.875C621.791 201.28 611.684 216.6 595.221 226.998C590.22 230.16 585.427 230.889 579.638 229.303C462.335 197.076 344.974 165.162 227.763 132.623C216.383 129.462 208.846 130.574 199.954 138.992C164.759 172.342 128.371 204.418 91.8207 236.309C84.3301 242.851 76.4227 248.954 69.3257 255.902C63.6875 261.425 57.2041 261.715 50.5355 260.348C24.5903 255.045 1.56273 227.751 0.0113447 200.967C-0.208627 196.96 1.64377 191.02 4.38763 186.886Z" fill="#007258"/>
<path fill-rule="evenodd" clip-rule="evenodd" d="M106.582 336.114C106.582 308.589 106.594 281.933 106.571 255.288C106.571 254.002 106.432 252.752 107.67 251.872C114.339 247.124 121.008 242.353 127.827 237.489C129.691 241.172 128.811 244.611 128.811 247.911C128.811 266.566 128.707 285.21 128.487 303.853C128.44 308.184 128.498 310.326 133.72 307.281C165.465 288.765 197.35 270.503 229.269 252.277C232.14 250.633 233.425 249.023 233.437 245.491C233.564 217.943 233.958 190.406 234.293 162.858C234.409 154.034 234.814 153.86 243.312 157.033C248.638 159.013 253.975 161.19 259.509 162.371C263.735 163.275 264.812 165.012 264.777 169.123C264.615 191.159 264.024 213.184 263.619 235.22C263.353 250.019 261.466 246.591 275.254 248.919C327.307 257.743 379.417 266.207 431.203 276.548C450.456 280.393 469.744 284.098 488.963 288.139C492.969 288.985 493.467 287.757 493.536 284.225C493.779 268.755 494.323 253.296 494.717 237.837C494.844 232.522 502.069 226.327 507.418 227.021C515.939 228.133 517.513 229.882 517.328 238.497C516.819 264.135 516.112 289.761 515.811 315.398C515.742 321.2 513.82 322.427 508.286 321.57C458.375 313.8 408.395 306.54 358.52 298.55C326.809 293.478 295.202 287.688 263.677 281.608C255.445 280.022 246.947 279.663 238.959 277.023C231.769 274.649 225.726 277.579 219.729 280.555C185.726 297.473 151.26 313.464 117.662 331.193C114.351 332.918 110.843 334.227 106.582 336.114Z" fill="#007258"/>
<path fill-rule="evenodd" clip-rule="evenodd" d="M482.075 242.758C482.075 247.842 481.785 252.949 482.156 258.009C482.503 262.514 481.172 263.011 476.957 262.085C436.344 253.192 395.683 244.542 355.035 235.834C329.866 230.449 304.696 225.03 279.503 219.773C275.347 218.904 273.194 217.654 273.321 212.616C273.668 199.705 273.367 186.759 273.032 173.836C272.927 169.817 273.286 168.219 278.068 169.424C343.608 185.994 409.171 202.426 474.769 218.73C479.794 219.981 482.48 221.753 481.808 227.508C481.229 232.534 481.693 237.663 481.693 242.758C481.82 242.758 481.947 242.758 482.075 242.758Z" fill="#007258"/>
<path fill-rule="evenodd" clip-rule="evenodd" d="M248.893 66.9313C289.437 44.7328 329.287 23.0092 368.986 1.03079C372.633 -0.984095 374.057 0.150723 376.036 2.83723C401.565 37.3913 427.139 71.899 452.714 106.418C461.235 117.917 469.768 129.416 479.342 142.35C466.005 137.765 454.358 133.723 442.653 129.775C440.187 128.941 439.111 126.833 437.687 125.073C419.058 102.018 400.395 78.9858 381.964 55.7799C378.827 51.8312 376.395 50.8354 371.463 53.1282C346.78 64.6037 321.865 75.5698 297.078 86.8022C294.901 87.7864 293.014 88.7939 290.606 87.5896C277.049 80.827 263.469 74.1455 248.893 66.9313Z" fill="#007258"/>
<path fill-rule="evenodd" clip-rule="evenodd" d="M168.522 448.647C167.04 452.457 170.513 457.922 163.115 457.494C155.08 457.042 155.045 457.563 155.011 449.179C155.011 448.959 155.011 448.751 155.011 448.543C154.964 437.646 154.976 437.484 143.989 437.206C140.273 437.102 138.397 436.256 138.895 432.204C139.15 430.119 138.93 427.977 138.964 425.858C139.196 412.483 139.196 412.205 152.429 411.974C158.333 411.869 156.863 407.828 156.875 405.014C156.956 390.401 157.048 375.775 156.423 361.185C156.168 355.395 158.368 352.905 163.416 351.249C173.94 347.799 173.905 347.66 173.951 358.475C174.021 375.416 174.16 392.369 174.044 409.31C174.009 414.44 175.387 418.424 178.988 422.384C201.622 447.28 223.92 472.49 246.45 497.502C250.039 501.485 252.18 505.596 251.845 511.131C251.59 515.323 252.377 519.573 252.377 523.8C252.377 526.532 254.728 530.794 251.405 531.72C247.33 532.843 242.502 533.666 238.704 529.068C230.079 518.647 220.991 508.607 212.076 498.44C197.755 482.02 183.399 465.634 168.522 448.647Z" fill="#007258"/>
<path fill-rule="evenodd" clip-rule="evenodd" d="M539.487 336.462C525.895 347.787 510.683 348.308 494.034 345.668C463.169 340.758 432.083 337.226 401.079 333.116C377.623 330.012 354.19 326.561 330.676 323.933C308.841 321.489 287.029 319.081 265.356 315.537C263.92 315.306 262.392 315.549 261.153 314.46C252.679 306.968 244.192 299.499 234.259 290.745C337.576 304.456 438.451 321.038 539.487 336.462Z" fill="#007258"/>
<path fill-rule="evenodd" clip-rule="evenodd" d="M224.603 162.649C224.603 184.338 224.591 205.471 224.626 226.616C224.626 229.071 224.128 230.912 221.824 232.383C197.303 248.097 171.509 261.622 146.05 275.714C145.517 276.015 144.834 276.027 142.692 276.548C142.692 259.526 142.704 242.909 142.692 226.292C142.692 224.37 143.839 223.258 145.239 222.181C170.826 202.414 195.949 182.046 222.531 163.599C222.994 163.263 223.596 163.101 224.603 162.649Z" fill="#007258"/>
<path fill-rule="evenodd" clip-rule="evenodd" d="M381.489 441.803C377.669 448.936 373.698 455.988 370.085 463.214C359.388 484.556 347.787 505.388 335.573 525.896C334.6 527.528 333.616 529.173 332.435 530.655C331.37 531.998 329.726 531.709 328.302 531.454C326.566 531.141 326.878 529.613 326.867 528.42C326.762 515.416 326.508 503.049 333.917 490.705C348.239 466.85 360.314 441.653 373.605 417.15C378.525 408.083 378.178 398.368 378.479 388.698C378.803 377.894 378.641 367.091 378.988 356.298C379.116 352.303 378.132 350.995 373.779 350.798C363.359 350.311 354.004 354.654 344.082 356.298C340.551 356.877 336.928 357.479 333.663 358.834C327.307 361.463 326.647 358.406 326.901 353.16C327.214 347.034 327.029 340.874 326.982 334.737C326.959 331.379 328.256 330.522 331.706 331.02C355.313 334.47 378.977 337.643 402.607 341.024C404.806 341.337 407.539 340.886 409.067 342.808C411.29 345.587 408.685 349.559 404.667 349.837C393.889 350.566 393.97 350.566 393.993 361.15C394.097 390.806 393.9 420.473 394.34 450.129C394.433 456.116 391.191 454.935 387.799 455.352C383.504 455.884 382.149 454.182 382.612 450.094C382.902 447.477 382.67 444.802 382.67 442.151C382.288 442.023 381.883 441.919 381.489 441.803Z" fill="#007258"/>
<path fill-rule="evenodd" clip-rule="evenodd" d="M272.626 425.962C275.104 432.504 275.694 439.545 277.014 446.354C282.108 472.883 286.797 499.505 291.961 526.034C292.829 530.481 292.378 531.905 287.527 531.882C275.718 531.813 275.718 532.033 273.286 520.58C268.725 499.123 263.874 477.712 259.799 456.162C258.664 450.152 256.105 449.272 250.895 449.724C244.702 450.256 238.16 451.379 233.413 445.288C232.047 443.54 231.029 442.046 231.052 439.742C231.318 406.508 231.549 373.274 231.665 340.04C231.677 334.922 233.356 331.922 238.832 330.985C244.597 330 252.007 325.276 255.445 327.418C259.405 329.884 256.684 338.257 256.8 344.046C257.367 374.524 257.715 405.014 258.224 435.492C258.259 437.599 256.974 440.819 260.065 441.49C263.283 442.174 266.814 442.058 270.102 441.571C271.469 441.363 270.843 438.954 270.867 437.542C270.936 433.72 270.89 429.899 270.89 426.066C271.469 426.02 272.047 425.985 272.626 425.962ZM245.778 414.035C245.697 414.035 245.616 414.035 245.535 414.035C245.535 409.82 245.639 405.593 245.489 401.39C245.419 399.572 246.473 396.954 242.838 396.92C239.341 396.873 239.897 399.328 239.897 401.251C239.908 410.526 240.036 419.813 240.14 429.1C240.163 430.733 239.793 432.481 242.49 432.551C244.991 432.609 245.848 431.601 245.813 429.239C245.732 424.167 245.778 419.095 245.778 414.035Z" fill="#007258"/>
<path fill-rule="evenodd" clip-rule="evenodd" d="M254.809 315.862C212.053 329.676 170.004 343.248 127.977 356.889C125.129 357.815 122.385 358.232 119.352 358.14C111.005 357.873 102.657 358.047 93.9512 356.576C104.695 351.134 115.404 345.633 126.171 340.249C157.674 324.5 189.211 308.798 220.713 293.038C222.762 292.007 224.383 290.803 226.814 292.876C235.822 300.53 245.06 307.895 254.809 315.862Z" fill="#007258"/>
<path fill-rule="evenodd" clip-rule="evenodd" d="M124.562 404.493C124.562 409.785 124.782 415.1 124.481 420.381C124.272 424.028 124.99 426.194 129.146 425.603C134.021 424.908 135.676 427.329 134.866 431.775C133.696 438.156 136.556 440.09 142.461 439.071C143.699 438.851 145.008 439.117 146.258 439.001C149.928 438.688 150.102 440.854 150.217 443.76C150.345 446.98 149.164 447.663 146.223 447.57C140.504 447.373 134.785 447.362 129.077 447.628C126.241 447.755 121.795 445.544 121.911 451.635C121.934 453.233 119.746 452.966 118.808 452.642C114.455 451.125 107.554 456.903 105.609 448.08C105.505 447.628 102.9 447.686 101.465 447.57C96.2433 447.13 89.3431 449.898 86.2288 446.493C82.9292 442.88 85.6268 435.979 85.1405 430.548C84.8279 427.085 85.8351 425.36 89.5862 425.893C91.045 426.101 92.5501 425.904 94.032 425.893C106.895 425.812 106.906 425.812 106.871 412.622C106.837 397.8 106.814 382.967 106.675 368.133C106.64 365.284 106.675 363.026 110.53 363.594C123.392 365.458 135.109 360.814 146.837 356.773C150.715 355.441 151.642 356.067 151.514 360.004C151.317 366.57 151.294 373.135 151.526 379.701C151.642 383.059 150.542 384.101 147.196 383.962C140.851 383.708 134.495 383.962 128.139 383.8C125.43 383.731 124.4 384.541 124.492 387.367C124.689 393.053 124.55 398.773 124.562 404.493Z" fill="#007258"/>
<path fill-rule="evenodd" clip-rule="evenodd" d="M256.418 544.307C260.69 546.322 264.198 548.187 267.88 549.646C273.333 551.811 277.709 554.428 275.833 561.515C275.162 564.005 277.014 565.186 278.878 566.436C285.199 570.663 292.343 572.736 299.683 573.384C316.042 574.843 332.123 573.083 347.776 567.687C352.615 566.019 355.544 563.646 354.467 558.111C353.842 554.926 355.394 553.143 358.195 551.765C363.07 549.391 367.77 546.681 373.524 543.601C373.524 554.822 373.443 565.07 373.582 575.33C373.617 577.785 372.031 578.375 370.491 579.498C360.685 586.724 349.13 588.218 337.576 589.457C318.624 591.495 299.637 592.78 280.707 588.959C278.647 588.542 276.597 588.044 274.594 587.384C258.247 581.942 256.429 579.429 256.406 562.372C256.406 556.663 256.418 550.954 256.418 544.307Z" fill="#007258"/>
<path fill-rule="evenodd" clip-rule="evenodd" d="M457.183 416.293C451.198 424.074 445.582 431.647 439.689 438.989C415.666 468.865 391.307 498.451 365.86 527.146C364.737 528.408 363.718 529.832 362.387 530.828C360.754 532.056 358.659 531.755 356.899 531.234C354.919 530.666 356.042 528.732 355.938 527.401C355.012 516.133 358.265 506.893 366.23 498.185C377.785 485.574 388.077 471.806 400.176 459.601C402.341 457.412 404.367 456.127 407.296 456.613C411.452 457.297 412.563 455.224 412.066 451.599C411.452 447.06 413.27 443.575 416.071 440.078C420.957 433.963 425.461 427.548 429.918 421.11C432.28 417.705 435.024 415.934 439.377 416.2C445.015 416.547 450.677 416.293 457.183 416.293Z" fill="#007258"/>
<path fill-rule="evenodd" clip-rule="evenodd" d="M450.456 369.962C439.666 369.962 428.887 369.812 418.097 370.043C414.3 370.125 412.17 369.696 412.61 365.087C413.084 360.05 411.174 353.924 413.432 350.149C415.944 345.946 422.705 348.609 427.556 347.752C443.116 344.996 458.178 349.756 473.438 351.435C475.95 351.713 478.451 352.141 480.94 352.581C488.708 353.924 490.734 357.248 489.472 365.319C488.998 368.376 487.087 367.774 485.351 367.785C473.715 367.843 462.08 367.809 450.456 367.809C450.456 368.527 450.456 369.244 450.456 369.962Z" fill="#007258"/>
<path fill-rule="evenodd" clip-rule="evenodd" d="M202.467 380.905C196.145 380.905 189.801 380.627 183.503 381.01C180.145 381.218 178.837 380.477 178.976 377.049C179.196 371.364 177.158 364.346 179.798 360.34C182.623 356.044 189.836 359.83 195.115 359.83C204.805 359.842 214.496 360.757 224.198 360.942C227.358 361 227.902 362.019 227.972 364.937C228.308 379.991 228.4 379.99 213.211 380.164C209.622 380.199 206.044 380.164 202.455 380.164C202.467 380.419 202.467 380.662 202.467 380.905Z" fill="#007258"/>
<path fill-rule="evenodd" clip-rule="evenodd" d="M372.644 408.407C369.738 418.331 364.192 425.418 360.395 433.35C359.446 435.342 357.697 435.075 356.053 435.226C347.625 435.956 339.185 436.523 330.78 437.461C327.434 437.831 326.647 436.604 326.103 433.512C323.428 418.667 324.69 416.768 339.741 414.197C350.323 412.391 360.881 410.48 372.644 408.407Z" fill="#007258"/>
<path fill-rule="evenodd" clip-rule="evenodd" d="M448.106 437.102C452.332 430.05 456.639 424.144 461.374 418.551C462.995 416.629 465.136 415.969 467.591 415.957C476.482 415.888 485.374 415.922 494.265 415.621C497.6 415.506 498.468 416.478 498.549 419.836C498.943 437.032 499.047 437.044 481.646 437.09C470.728 437.125 459.822 437.102 448.106 437.102Z" fill="#007258"/>
<path fill-rule="evenodd" clip-rule="evenodd" d="M203.451 354.631C196.701 354.631 189.963 354.654 183.225 354.608C181.43 354.596 179.127 355.152 179.231 352.083C179.3 349.929 178.339 347.544 181.708 346.56C196.192 342.356 210.698 338.269 225.46 335.107C227.208 334.725 227.729 335.061 227.833 336.636C227.868 337.273 227.833 337.898 227.891 338.535C229.315 355.789 229.315 355.777 212.308 355.314C209.355 355.233 206.403 355.302 203.451 355.302C203.439 355.071 203.439 354.851 203.451 354.631Z" fill="#007258"/>
<path fill-rule="evenodd" clip-rule="evenodd" d="M186.386 415.088C198.75 415.088 210.71 415.135 222.693 415.042C225.494 415.019 226.953 415.575 226.861 418.852C226.733 423.484 226.93 428.15 227.358 432.759C227.764 437.275 226.479 438.63 221.547 438.943C211.648 439.58 204.134 436.974 198.403 428.475C195.115 423.623 190.554 419.651 186.386 415.088Z" fill="#007258"/>
<path fill-rule="evenodd" clip-rule="evenodd" d="M264.696 334.563C264.673 324.176 264.673 324.176 275.44 325.473C286.554 326.816 296.418 344.475 291.799 354.642C291.081 356.24 289.888 355.904 288.673 356.02C273.981 357.479 264.731 349.2 264.696 334.563Z" fill="#007258"/>
<path fill-rule="evenodd" clip-rule="evenodd" d="M214.369 444.837C220.84 444.698 225.83 442.984 230.566 447.165C241.39 456.706 255.689 464.233 248.36 483.039C237.234 471.146 225.691 459.069 214.369 444.837Z" fill="#007258"/>
<path fill-rule="evenodd" clip-rule="evenodd" d="M375.203 364.23C374.994 375.011 374.994 375.127 365.119 374.965C361.646 374.907 356.378 376.76 355.093 373.969C353.402 370.321 354.618 365.307 354.607 360.884C354.595 358.927 356.019 358.626 357.501 358.22C359.921 357.549 362.294 356.669 364.714 355.997C375.353 353.056 375.423 353.125 375.203 364.23Z" fill="#007258"/>
<path fill-rule="evenodd" clip-rule="evenodd" d="M408.662 417.96C408.662 420.705 408.476 423.472 408.708 426.194C408.997 429.598 408.083 430.941 404.262 431.08C399.921 431.219 400.754 428.695 400.743 426.263C400.708 421.191 401.09 416.073 400.523 411.059C399.886 405.431 403.88 405.061 407.18 405.061C410.954 405.072 408.627 408.523 408.905 410.376C409.275 412.854 408.997 415.424 408.997 417.96C408.881 417.96 408.777 417.96 408.662 417.96Z" fill="#007258"/>
<path d="M330.803 407.075H299.208V635H330.803V407.075Z" fill="#007258"/>
</g>
<defs>
<clipPath id="clip0_558_7558">
<rect width="630" height="635" fill="white"/>
</clipPath>
</defs>
</svg>
