<svg width="973" height="810" viewBox="0 0 973 810" fill="none" xmlns="http://www.w3.org/2000/svg">
<g clip-path="url(#clip0_2041_7452)">
<g opacity="0.05" filter="url(#filter0_f_2041_7452)">
<ellipse cx="360.5" cy="327.5" rx="360.5" ry="327.5" transform="matrix(1 0 0 -1 -261 896)" fill="#43A111"/>
</g>
<g opacity="0.05" filter="url(#filter1_f_2041_7452)">
<ellipse cx="360.5" cy="327.5" rx="360.5" ry="327.5" transform="matrix(1 0 0 -1 358 842)" fill="#E777AF"/>
</g>
<g opacity="0.04">
<path fill-rule="evenodd" clip-rule="evenodd" d="M643.591 373.145C647.389 379.784 650.792 386.782 656.295 392.078C662.789 398.328 668.636 405.582 675.523 411.011C687.704 420.606 699.633 430.697 713.827 437.591C723.085 442.081 732.354 446.871 741.423 451.933C749.989 456.723 759.473 457.778 769.173 456.37C770.987 456.107 772.174 454.754 773.028 453.089C761.458 437.179 746.217 425.802 729.733 416.339C719.845 410.672 709.846 405.088 699.917 399.492C687.241 392.363 674.518 385.34 661.808 378.261C655.935 374.99 649.029 377.081 643.591 373.145Z" fill="#E6B55E"/>
<path fill-rule="evenodd" clip-rule="evenodd" d="M718.87 307.43C715.267 311.873 714.247 324.522 716.823 329.911C720.641 337.921 723.569 346.352 726.906 354.573C730.291 362.916 733.68 371.443 738.834 378.86C740.96 381.918 740.927 385.642 742.799 388.97C747.29 396.943 752.626 404.395 758.144 411.284C767.008 422.35 774.297 435.208 786.585 443.01C788.914 436.678 788.011 430.206 786.048 424.356C781.134 409.689 774.681 395.649 769.027 381.28C762.772 365.364 754.498 350.383 744.92 336.218C737.518 325.243 730.148 314.49 718.87 307.43Z" fill="#E6B55E"/>
<path fill-rule="evenodd" clip-rule="evenodd" d="M575.162 254.77C574.313 264.011 579.83 270.839 584.973 276.239C605.207 297.442 624.83 319.461 648.557 336.651C659.603 344.654 671.362 351.456 684.09 356.215C687.631 357.542 690.085 361.191 694.204 361.015C695.079 360.976 695.953 360.407 696.818 360.078C696.565 350.807 689.93 345.097 684.453 340.12C663.375 320.972 643.721 300.071 621.064 282.831C616.084 279.046 610.808 275.667 605.638 272.152C595.924 265.534 585.734 259.807 575.162 254.77Z" fill="#E6B55E"/>
<path fill-rule="evenodd" clip-rule="evenodd" d="M718.781 307.551C730.033 314.61 737.395 325.368 744.795 336.326C754.36 350.486 762.624 365.471 768.869 381.369C774.515 395.732 780.959 409.766 785.866 424.426C787.816 430.275 788.728 436.743 786.403 443.073C789.438 447.146 791.667 446.696 793.54 441.829C795.681 436.268 798.489 430.941 800.293 425.274C803.597 414.911 798.921 405.792 795.542 396.64C790.1 381.874 781.358 368.91 774.478 354.96C765.639 337.038 752.343 324.503 735.962 314.784C732.523 312.75 729.526 309.927 726.26 307.561C723.849 305.81 721.327 304.673 718.781 307.551Z" fill="#B98650"/>
<path fill-rule="evenodd" clip-rule="evenodd" d="M643.56 373.119C648.997 377.045 655.905 374.965 661.789 378.244C674.489 385.325 687.212 392.349 699.898 399.475C709.825 405.061 719.825 410.645 729.714 416.323C746.209 425.785 761.44 437.163 773.01 453.073C774.646 451.827 774.151 450.347 773.49 448.862C769.215 439.315 764.855 429.815 758.613 421.44C748.354 407.671 734.87 398.145 720.33 390.101C706.203 382.279 692.181 374.169 677.346 367.793C666.096 362.959 655.098 366.71 644.197 370.262C642.783 370.726 642.797 371.943 643.56 373.119Z" fill="#B98650"/>
<path fill-rule="evenodd" clip-rule="evenodd" d="M575.152 254.801C585.721 259.837 595.921 265.561 605.645 272.187C610.814 275.702 616.09 279.081 621.069 282.865C643.722 300.103 663.372 320.991 684.449 340.148C689.925 345.124 696.56 350.834 696.813 360.103C698.272 360.765 699.54 362.885 701.312 361.473C702.991 360.143 701.855 358.227 701.543 356.508C698.287 338.896 690.501 324.457 677.733 312.1C661.628 296.524 644.52 282.37 626.397 269.716C615.329 261.988 603.22 255.116 588.707 255.758C584.765 255.936 581.107 252.642 576.818 253.375C576.637 253.643 576.41 253.725 576.117 253.623C575.788 254.013 575.469 254.402 575.152 254.801Z" fill="#B98650"/>
<path fill-rule="evenodd" clip-rule="evenodd" d="M486.57 326.034C486.696 327.921 488.111 328.918 489.513 329.288C497.551 331.383 505.248 334.438 513.694 335.446C521.228 336.347 528.662 336.447 536.213 336.569C545.24 336.714 553.954 335.107 562.447 332.501C568.715 330.576 575.24 330.809 581.39 328.548C587.059 326.463 591.111 322.514 594.406 317.56C595.32 316.189 595.34 314.917 593.97 313.87C592.739 315.631 591.553 315.329 590.082 314.153C587.032 311.693 583.296 310.902 579.525 310.536C572.673 309.876 565.793 310.352 558.913 310.609C546.813 311.05 534.932 313.603 523.042 315.717C510.627 317.91 497.574 317.947 486.57 326.034Z" fill="#E6B55E"/>
<path fill-rule="evenodd" clip-rule="evenodd" d="M486.394 325.533C497.401 317.434 510.455 317.397 522.89 315.177C534.792 313.058 546.665 310.503 558.768 310.061C565.649 309.805 572.542 309.336 579.383 309.988C583.155 310.355 586.892 311.147 589.942 313.611C591.404 314.79 592.601 315.101 593.831 313.327C593.425 312.703 593.03 312.077 592.626 311.464C592.627 311.474 592.346 311.301 592.346 311.301L592.174 311.026C590.926 310.052 589.677 309.067 588.43 308.093L588.295 308.011C576.325 297.436 562.237 295.064 546.614 296.661C534.011 297.955 521.55 299.686 509.213 302.761C498.34 305.471 492.157 314.01 485.647 322.205C484.633 323.522 484.536 324.841 486.394 325.533Z" fill="#B98650"/>
<path fill-rule="evenodd" clip-rule="evenodd" d="M624.185 315.058C624.185 315.058 782.023 382.007 844.629 594.431C844.629 594.431 860.315 592.956 853.927 567.757C853.634 566.586 848.431 558.825 848.114 557.626C830.798 492.051 768.354 363.958 626.783 309.286" fill="#B98650"/>
<path fill-rule="evenodd" clip-rule="evenodd" d="M710.6 217.648C710.6 217.648 848.283 323.253 860.118 545.423C860.118 545.423 890.944 339.369 714.46 212.715" fill="#B98650"/>
<path fill-rule="evenodd" clip-rule="evenodd" d="M935.565 299.947C935.565 299.947 932.667 383.73 903.212 468.442C873.757 553.155 845.563 617.238 832.823 647.254C820.072 677.271 803.702 700.381 803.702 700.381C835.202 603.373 835.161 603.587 866.703 513.12C898.605 421.67 914.908 364.549 911.115 315.088C927.875 299.507 935.565 299.947 935.565 299.947Z" fill="#B98650"/>
<path fill-rule="evenodd" clip-rule="evenodd" d="M909.776 765.45C908.826 762.438 906.295 762.028 903.691 761.232C893.03 758.003 882.705 760.36 872.026 762.546C856.935 765.631 841.892 768.687 827.327 774.025C815.854 778.228 805.319 784.31 795.611 791.9C791.143 795.394 786.556 798.77 782.64 802.979C781.671 804.027 780.627 804.835 781.361 806.423C781.785 806.803 782.151 807.371 782.646 807.518C788.457 809.218 794.525 809.036 800.406 808.245C814.422 806.342 827.892 801.442 841.897 799.078C849.554 797.785 857.281 795.271 864.752 792.254C870.515 789.928 876.233 787.43 882.02 785.131C892.722 780.87 902.693 775.263 909.776 765.45Z" fill="#E6B55E"/>
<path fill-rule="evenodd" clip-rule="evenodd" d="M909.987 765.791C902.889 775.646 892.912 781.277 882.211 785.543C876.43 787.85 870.71 790.368 864.932 792.695C857.456 795.725 849.724 798.249 842.062 799.547C828.048 801.921 814.559 806.843 800.543 808.752C794.66 809.557 788.588 809.74 782.772 808.022C782.277 807.874 781.91 807.304 781.486 806.923C777.444 809.344 777.342 809.731 781.207 811.888C791.015 817.356 800.933 822.583 812.271 824.244C814.471 824.565 816.654 824.456 818.868 824.204C836.121 822.206 852.633 817.21 869.064 811.174C879.377 807.385 888.505 802.406 896.398 794.663C899.771 791.353 902.839 787.843 904.58 783.388C906.404 778.707 910.142 775.051 911.358 770.073C911.052 769.271 910.978 768.502 911.748 767.875C911.735 766.653 911.422 765.725 909.987 765.791Z" fill="#B98650"/>
<path fill-rule="evenodd" clip-rule="evenodd" d="M911.279 767.939C910.494 768.582 910.569 769.37 910.881 770.192C911.495 769.524 911.623 768.767 911.279 767.939Z" fill="#E6B55E"/>
<path fill-rule="evenodd" clip-rule="evenodd" d="M911.284 581.494C908.493 582.429 906.721 584.785 904.997 586.959C897.042 597.026 889.788 607.571 883.884 619.155C873.541 639.468 867.592 661.11 863.639 683.499C862.854 687.941 860.7 692.029 860.975 696.845C861.278 702.154 863.028 707.036 863.938 712.157C864.076 712.924 865.276 713.48 865.991 714.129C869.271 712.678 871.287 709.837 873.514 707.091C878.694 700.685 881.162 692.873 884.435 685.468C887.582 678.354 890.953 671.354 893.465 663.936C900.236 643.943 904.324 623.199 910.218 602.963C912.225 596.095 913.55 588.736 911.284 581.494Z" fill="#E6B55E"/>
<path fill-rule="evenodd" clip-rule="evenodd" d="M981.761 656.005C979.724 654.124 977.804 653.083 974.616 653.007C964.659 652.781 957.051 658.754 948.628 662.651C937.462 667.816 927.565 675.28 917.39 682.157C909.911 687.206 903.357 693.85 897.491 700.851C890.344 709.389 882.849 717.802 878.338 728.378C882.655 729.145 886.918 728.718 891.127 727.451C898.912 725.122 905.031 719.496 912.065 715.703C923.283 709.649 934.861 704.33 945.282 696.702C950.096 693.186 954.174 688.763 958.796 685.053C968.647 677.189 977.206 668.339 981.761 656.005Z" fill="#E6B55E"/>
<path fill-rule="evenodd" clip-rule="evenodd" d="M1042.29 507.922C1039.51 503.307 1035.94 506.94 1032.97 507.441C1025.19 508.742 1021.96 516.548 1016.59 521.316C1006.69 530.116 999.285 541.335 990.537 551.258C976.015 567.712 967.099 587.59 959.079 607.955C958.505 609.411 957.297 611.061 959.039 612.58C964.473 612.754 968.451 609.515 972.011 605.883C977.718 600.055 983.31 594.074 988.609 587.839C996.087 579.047 1005.42 572.123 1011.84 562.269C1015.97 555.928 1020.74 549.988 1024.48 543.412C1029.18 535.11 1035.18 527.581 1038.02 518.072C1039.01 514.7 1039.74 510.79 1042.29 507.922Z" fill="#E6B55E"/>
<path fill-rule="evenodd" clip-rule="evenodd" d="M1033.12 364.408C1030.19 363.818 1028.74 366.011 1027.11 367.921C1021.33 374.7 1017.63 382.647 1014.53 391.024C1007.18 410.952 999.493 430.815 994.407 451.467C990.492 467.381 989.094 483.793 989.259 500.224C989.286 502.658 990.225 505.068 990.739 507.484C994.966 503.978 997.288 499.123 999.659 494.25C1005.34 482.622 1007.41 469.726 1012.33 457.738C1017.59 444.936 1021.66 431.454 1024.39 417.733C1027.73 400.994 1033.74 384.62 1031.83 367.095C1031.75 366.275 1032.66 365.308 1033.12 364.408Z" fill="#E6B55E"/>
<path fill-rule="evenodd" clip-rule="evenodd" d="M981.857 656.073C977.29 668.424 968.737 677.283 958.892 685.167C954.267 688.87 950.178 693.311 945.372 696.83C934.944 704.457 923.371 709.792 912.138 715.855C905.1 719.652 898.978 725.285 891.189 727.618C886.978 728.885 882.712 729.313 878.393 728.545C875.742 731.303 877.782 732.756 879.847 733.946C891.355 740.602 902.77 744.67 916.035 737.104C931.69 728.168 946.924 718.657 959.963 705.913C968.75 697.326 974.886 686.604 978.579 674.498C979.954 669.987 981.78 665.604 983.489 661.197C984.356 658.9 983.899 657.246 981.857 656.073Z" fill="#B98650"/>
<path fill-rule="evenodd" clip-rule="evenodd" d="M911.216 581.556C913.481 588.797 912.157 596.154 910.16 603.008C904.27 623.25 900.172 643.979 893.415 663.966C890.904 671.383 887.536 678.392 884.389 685.493C881.117 692.886 878.65 700.696 873.475 707.111C871.259 709.855 869.234 712.697 865.955 714.147C866.44 714.499 866.915 714.852 867.4 715.203C867.827 715.359 868.264 715.512 868.701 715.666C871.778 715.895 873.731 713.434 875.92 711.917C893.415 699.802 904.3 682.975 910.597 662.07C915.55 645.624 921.151 629.426 923.331 612.311C924.809 600.759 919.637 590.922 915.409 580.926C915.189 580.389 914.033 580.292 913.324 579.978C913.334 579.976 913.048 580.013 913.048 580.013C912.113 580.084 911.614 580.753 911.216 581.556Z" fill="#B98650"/>
<path fill-rule="evenodd" clip-rule="evenodd" d="M1042.34 507.949C1039.79 510.818 1039.06 514.729 1038.05 518.116C1035.21 527.628 1029.21 535.158 1024.51 543.462C1020.78 550.049 1016.01 555.98 1011.86 562.324C1005.44 572.181 996.119 579.105 988.629 587.901C983.33 594.137 977.736 600.12 972.028 605.95C968.466 609.583 964.488 612.822 959.053 612.648C956.602 616.979 957.073 618.055 961.66 618.825C974.719 620.995 985.639 617.299 994.983 606.809C1007.29 592.992 1019.37 579.009 1028.76 562.876C1035.38 551.507 1039.74 539.116 1041 525.768C1041.48 520.7 1043.6 515.875 1043.27 510.662C1043.22 509.613 1043.26 508.614 1042.34 507.949Z" fill="#B98650"/>
<path fill-rule="evenodd" clip-rule="evenodd" d="M964.246 465.844C961.628 467.224 960.8 469.975 959.575 472.362C949.662 491.741 941.735 511.829 938.775 533.512C936.37 551.148 934.801 568.879 935.646 586.585C935.966 593.264 938.576 599.625 943.133 604.721C946.655 599.906 950.009 594.87 951.806 589.17C957.332 571.67 960.004 553.598 961.994 535.47C963.482 521.943 964.049 508.314 965.88 494.825C967.234 484.871 967.027 475.315 964.246 465.844Z" fill="#E6B55E"/>
<path fill-rule="evenodd" clip-rule="evenodd" d="M964.01 465.998C966.784 475.465 967.001 485.013 965.652 494.972C963.825 508.453 963.258 522.064 961.774 535.595C959.79 553.723 957.122 571.774 951.608 589.265C949.815 594.961 946.477 599.982 942.954 604.807C945.998 607.054 947.93 604.698 949.621 602.655C963.821 585.543 973.624 566.763 975.916 543.864C977.491 528.143 980.024 512.506 980.446 496.67C980.671 488.354 978.837 480.923 974.391 474.179L974.413 474.186C973.52 471.883 972.035 470.029 970.294 468.38L970.341 468.416C969.804 467.794 969.265 467.162 968.739 466.549C968.606 466.269 968.483 465.987 968.349 465.696C967.661 464.592 966.879 463.644 965.443 463.686C965.453 463.684 965.179 463.915 965.179 463.915C964.788 464.599 964.399 465.304 964.01 465.998Z" fill="#B98650"/>
<path fill-rule="evenodd" clip-rule="evenodd" d="M1033.12 364.434C1032.67 365.332 1031.74 366.301 1031.84 367.119C1033.74 384.632 1027.74 401.015 1024.4 417.752C1021.66 431.475 1017.6 444.953 1012.34 457.755C1007.43 469.741 1005.35 482.636 999.674 494.263C997.303 499.136 994.972 503.992 990.755 507.496C990.028 508.777 989.623 510.2 991.063 511.052C992.412 511.844 993.417 510.613 994.478 509.784C1006.73 500.324 1016.33 489.187 1021.51 473.58C1028.64 452.088 1035.74 430.656 1038.83 408.153C1040.78 393.99 1039.06 380.043 1034.8 366.523C1034.68 366.392 1034.61 366.242 1034.6 366.048C1034.1 365.504 1033.61 364.969 1033.12 364.434Z" fill="#B98650"/>
<path fill-rule="evenodd" clip-rule="evenodd" d="M912.359 579.957C912.359 579.957 912.642 579.91 912.634 579.922L912.47 579.712L912.359 579.957Z" fill="#E6B55E"/>
<path fill-rule="evenodd" clip-rule="evenodd" d="M840.191 677.373C837.346 677.876 835.767 680.251 833.926 682.154C819.008 697.614 805.74 714.384 796.656 734.212C789.274 750.34 782.628 766.815 778.264 784.026C776.615 790.519 777.204 797.411 779.977 803.709C784.68 800.19 789.276 796.42 792.622 791.52C802.889 776.487 810.643 760.025 817.797 743.29C823.134 730.803 827.638 717.943 833.278 705.608C837.444 696.503 840.03 687.294 840.191 677.373Z" fill="#E6B55E"/>
<path fill-rule="evenodd" clip-rule="evenodd" d="M840.128 677.443C839.967 687.362 837.382 696.568 833.219 705.682C827.581 718.014 823.079 730.871 817.744 743.355C810.593 760.086 802.84 776.533 792.579 791.572C789.234 796.471 784.64 800.24 779.939 803.758C782.131 806.848 784.632 805.198 786.808 803.765C805.095 791.808 819.753 776.869 828.576 755.68C834.633 741.121 841.565 726.938 846.579 711.924C849.216 704.033 849.659 696.35 847.471 688.508L847.494 688.526C847.325 686.045 846.48 683.81 845.327 681.693L845.365 681.741C845.042 680.978 844.73 680.213 844.408 679.45C844.366 679.145 844.324 678.829 844.291 678.511C843.973 677.241 843.525 676.09 842.165 675.679L841.85 675.82C841.275 676.351 840.702 676.902 840.128 677.443Z" fill="#B98650"/>
<path fill-rule="evenodd" clip-rule="evenodd" d="M576.096 252.768C576.39 252.883 576.615 252.803 576.791 252.525L576.332 252.338L576.096 252.768Z" fill="#E6B55E"/>
<path fill-rule="evenodd" clip-rule="evenodd" d="M933.802 284.884C931.706 283.393 929.555 284.047 927.912 285.353C922.385 289.761 916.951 294.024 915.028 301.914C912.856 310.79 909.035 319.215 906.831 328.085C903.616 341.071 899.808 353.994 899.744 367.665C899.684 381.292 901.128 394.786 903.263 408.218C903.516 409.812 904.239 411.252 905.593 412.217C911.083 407.316 915.667 401.971 917.645 394.245C919.338 387.694 920.844 380.991 923.199 374.698C926.077 366.994 928.15 359.057 930.638 351.245C933.368 342.71 934.316 333.801 935.192 324.981C936.018 316.7 937.394 308.317 936.158 299.905C935.425 294.878 934.582 289.881 933.802 284.884Z" fill="#E6B55E"/>
<path fill-rule="evenodd" clip-rule="evenodd" d="M824.975 291.933C822.322 294.45 823.717 297.869 823.964 300.538C825.156 313.717 827.903 326.678 831.389 339.406C832.834 344.682 835.77 349.501 837.947 354.567C844.432 369.654 855.098 382.034 862.704 396.412C865.057 400.863 868.155 404.907 873.514 406.837C876.877 408.061 879.534 411.485 883.441 412.271C885.661 412.712 887.773 413.571 889.594 411.444C889.09 410.672 888.169 409.905 888.143 409.118C887.786 397.068 883.646 386.227 878.915 375.421C873.832 363.806 868.389 352.448 861.522 341.881C854.841 331.597 848.534 321.077 842.207 310.561C837.776 303.249 832.359 296.494 824.975 291.933Z" fill="#E6B55E"/>
<path fill-rule="evenodd" clip-rule="evenodd" d="M904.609 183.012C903.42 178.774 901.588 174.871 897.096 173.867C892.7 172.878 890.562 176.589 888.444 179.623C885.735 183.516 884.231 187.87 883.44 192.765C880.936 208.374 878.632 223.992 878.264 239.84C877.999 251.113 879.424 262.201 882.351 273.19C884.045 279.546 884.491 286.252 887.692 292.16C888.371 293.424 888.914 294.765 890.21 295.503C894.92 291.632 896.796 286.045 898.128 280.311C900.575 269.756 900.552 258.813 902.235 248.105C905.881 224.732 907.305 201.319 898.307 178.567C897.999 177.784 897.778 176.877 898.407 176.359C899.41 175.529 900.008 176.59 900.652 177.231C902.319 178.904 902.402 181.744 904.609 183.012Z" fill="#E6B55E"/>
<path fill-rule="evenodd" clip-rule="evenodd" d="M803.721 187.989C801.255 193.073 804.582 197.681 805.58 202.161C807.808 212.101 810.923 221.988 814.947 231.301C818.559 239.675 823.269 247.713 828.552 255.08C836.91 266.74 846.009 277.821 855.04 288.935C859.526 294.464 866.053 296.422 872.437 298.317C873.674 298.683 874.891 298.305 875.293 296.709C874.254 295.671 873.91 294.396 873.581 292.935C872.553 288.47 871.881 283.719 869.887 279.71C861.006 261.756 851.883 243.93 839.059 228.524C835.471 224.209 832.002 219.776 829.003 214.907C825.467 209.174 822.049 203.238 817.354 198.372C813.327 194.195 809.673 189.404 803.721 187.989Z" fill="#E6B55E"/>
<path fill-rule="evenodd" clip-rule="evenodd" d="M822.946 43.0696C818.063 45.9689 815.216 53.404 817.144 60.5422C819.352 68.6979 819.106 77.1325 820.801 85.3085C822.249 92.2445 823.634 99.1908 824.979 106.144C827.68 120.135 833.037 133.26 839.251 145.753C843.4 154.106 846.671 163.388 853.631 170.11C853.211 164.349 856.036 159.155 855.53 153.158C854.605 142.15 851.612 131.552 850.371 120.618C848.21 101.411 842.684 83.0376 835.761 65.0487C832.639 56.8936 828.628 49.5274 822.946 43.0696Z" fill="#E6B55E"/>
<path fill-rule="evenodd" clip-rule="evenodd" d="M751.622 82.417C751.205 84.5639 751.657 86.8455 752.693 88.4015C757.344 95.3727 759.905 103.496 764.461 110.527C773.256 124.1 784.224 135.696 794.492 147.93C796.63 150.479 798.84 152.799 802.034 153.916C803.278 154.356 804.618 155.265 805.362 156.362C809.551 162.546 815.978 166.028 821.625 170.019C826.468 173.443 832.732 176.724 839.401 173.665C838.884 171.665 838.394 169.703 837.446 167.808C830.75 154.486 820.871 143.713 811.362 132.758C801.764 121.688 790.349 112.547 779.607 102.719C772.097 95.8508 765.799 87.3293 756.184 83.2275C754.686 82.5931 753.405 81.0675 751.622 82.417Z" fill="#E6B55E"/>
<path fill-rule="evenodd" clip-rule="evenodd" d="M933.708 284.981C934.489 289.986 935.329 294.97 936.059 299.983C937.294 308.4 935.919 316.769 935.095 325.045C934.22 333.861 933.274 342.764 930.548 351.295C928.065 359.102 925.995 367.035 923.122 374.734C920.771 381.024 919.267 387.714 917.578 394.271C915.593 401.995 911.017 407.337 905.547 412.233C905.421 416.036 907.79 416.006 910.142 415.253C926.043 410.196 937.5 400.966 942.386 382.981C946.282 368.652 949.544 354.255 951.26 339.599C952.792 326.458 949.969 313.594 943.696 301.744C941.549 297.694 939.768 293.432 937.844 289.259C936.947 287.308 935.655 285.802 933.708 284.981Z" fill="#B98650"/>
<path fill-rule="evenodd" clip-rule="evenodd" d="M824.929 291.999C832.302 296.547 837.712 303.299 842.133 310.652C848.452 321.164 854.751 331.68 861.423 341.96C868.28 352.522 873.717 363.877 878.793 375.487C883.518 386.289 887.653 397.125 888.009 409.171C888.035 409.957 888.953 410.713 889.458 411.495C890.496 410.801 891.21 409.868 891.469 408.589C891.185 407.672 891.438 406.947 892.105 406.347C892.456 398.702 895.532 391.476 894.997 383.677C894.194 371.934 892.196 360.662 885.889 350.462C882.325 344.7 879.503 338.422 876.475 332.32C872.414 324.181 866.759 317.166 861.958 309.552C855.933 300.031 847.203 294.941 837.117 291.857C833.897 290.871 830.65 289.921 827.373 289.204C825.416 288.763 823.85 289.265 824.929 291.999Z" fill="#B98650"/>
<path fill-rule="evenodd" clip-rule="evenodd" d="M716.587 -30.6987C714.405 -27.2449 716.086 -23.8345 716.818 -20.4484C718.64 -11.9929 724.681 -5.79616 728.03 1.67675C734.142 15.3241 744.701 25.6563 751.249 38.9269C755.131 46.7974 761.146 53.551 767.937 59.1559C775.821 65.6601 781.938 74.346 790.895 79.5215C792.445 80.4196 793.469 82.3267 795.598 82.0012C794.627 75.1787 792.493 68.8877 789.036 62.8841C785.414 56.5837 781.115 50.8084 777.316 44.6568C772.2 36.3657 767.643 27.5364 761.58 20.0652C747.288 2.48723 735.597 -17.6946 716.587 -30.6987Z" fill="#E6B55E"/>
<path fill-rule="evenodd" clip-rule="evenodd" d="M904.487 183.103C902.273 181.837 902.2 178.997 900.534 177.313C899.901 176.671 899.304 175.61 898.292 176.442C897.664 176.959 897.885 177.866 898.192 178.649C907.177 201.394 905.756 224.8 902.114 248.166C900.444 258.87 900.467 269.809 898.013 280.362C896.683 286.095 894.81 291.681 890.106 295.55C889.861 299.702 891.136 300.529 894.885 298.653C899.854 296.16 904.624 293.288 908.963 289.871C914.514 285.49 916.229 278.543 917.561 271.856C920.732 255.89 921.859 239.496 920.413 223.383C919.099 208.744 914.304 194.602 904.487 183.103Z" fill="#B98650"/>
<path fill-rule="evenodd" clip-rule="evenodd" d="M803.685 188.012C809.644 189.415 813.288 194.218 817.311 198.383C822.002 203.237 825.421 209.183 828.955 214.915C831.964 219.792 835.42 224.215 839.006 228.53C851.824 243.933 860.942 261.745 869.82 279.706C871.803 283.717 872.475 288.467 873.513 292.929C873.851 294.388 874.196 295.673 875.224 296.703C875.609 296.183 875.996 295.674 876.392 295.153L876.607 294.759C878.261 281.309 877.51 268.295 872.703 255.293C869.833 247.532 865.735 240.813 861.465 234.057C853.021 220.702 844.424 207.449 833.236 196.354C825.546 188.722 815.711 186.444 805.786 184.496C802.46 183.842 802.427 185.548 803.685 188.012Z" fill="#B98650"/>
<path fill-rule="evenodd" clip-rule="evenodd" d="M822.753 43.1967C828.407 49.6534 832.407 57.0271 835.541 65.1752C842.442 83.1563 847.949 101.512 850.105 120.72C851.333 131.662 854.315 142.245 855.248 153.246C855.75 159.23 852.946 164.431 853.354 170.191C855.051 171.828 856.259 170.346 857.269 169.319C864.593 161.951 870.359 153.943 869.354 142.28C867.542 121.408 862.872 101.089 854.941 82.0428C848.872 67.4608 838.864 54.9162 827.161 44.2722C826.018 43.226 824.826 40.7011 822.753 43.1967Z" fill="#B98650"/>
<path fill-rule="evenodd" clip-rule="evenodd" d="M751.601 82.409C753.386 81.0701 754.664 82.5851 756.164 83.23C765.788 87.3298 772.076 95.8527 779.585 102.721C790.327 112.548 801.741 121.689 811.338 132.758C820.837 143.714 830.715 154.487 837.421 167.807C838.367 169.691 838.859 171.663 839.376 173.663C841.673 172.509 841.582 170.361 841.12 168.308C837.353 151.509 832.276 135.211 820.369 122.595C811.2 112.892 802.61 102.508 791.907 94.4477C788.397 91.8053 785.255 88.6034 782.023 85.5682C773.351 77.4253 762.719 76.7399 752.054 77.3144C746.989 77.5837 750.7 80.5492 751.601 82.409Z" fill="#B98650"/>
<path fill-rule="evenodd" clip-rule="evenodd" d="M716.56 -30.6575C735.562 -17.666 747.259 2.51093 761.527 20.1002C767.588 27.5702 772.153 36.3964 777.258 44.6879C781.056 50.8385 785.352 56.6129 788.973 62.9124C792.429 68.9149 794.552 75.2067 795.532 82.0264C799.038 85.0316 799.607 82.6185 799.705 79.5157C800.176 63.9293 796.282 49.9221 787.852 36.7107C779.252 23.2464 769.555 10.7139 759.937 -1.85341C750.239 -14.5374 738.418 -24.8605 723.013 -29.556C720.875 -30.2033 719.138 -33.0513 716.56 -30.6575Z" fill="#B98650"/>
<path fill-rule="evenodd" clip-rule="evenodd" d="M876.64 295.222C876.64 295.222 876.414 295.617 876.424 295.616C876.523 295.653 876.62 295.68 876.729 295.716C876.697 295.559 876.663 295.391 876.64 295.222Z" fill="#E6B55E"/>
<path fill-rule="evenodd" clip-rule="evenodd" d="M990.404 163.292C986.223 169.895 981.561 176.274 979.287 183.881C976.599 192.859 972.747 201.663 970.938 210.645C967.738 226.511 963.993 242.371 964.008 258.935C964.012 269.74 963.774 280.683 963.202 291.552C962.653 301.842 965.763 311.292 971.102 319.857C972.102 321.469 973.784 321.979 975.591 322.034C984.549 303.891 988.015 284.313 989.271 264.422C990.03 252.491 990.654 240.496 991.309 228.572C992.15 213.34 992.876 198.105 993.666 182.882C994.028 175.823 989.279 170.207 990.404 163.292Z" fill="#E6B55E"/>
<path fill-rule="evenodd" clip-rule="evenodd" d="M1078.57 206.686C1077.2 220.383 1071.03 232.081 1064.71 243.913C1056.53 259.2 1047.11 273.628 1036.05 286.592C1026.07 298.296 1016.71 310.607 1006.17 321.746C1001.96 326.191 996.789 329.925 990.379 330.573C988.147 335.225 989.458 337.132 994.419 336.706C1000.09 336.226 1005.84 336.477 1011.46 335.639C1021.73 334.102 1027.61 325.638 1034.06 318.396C1044.47 306.695 1051.96 292.723 1061.08 280.042C1072.79 263.76 1078.01 245.7 1079.53 226.006C1079.84 221.882 1081.02 217.807 1081.69 213.688C1082.17 210.659 1082.1 207.787 1078.57 206.686Z" fill="#B98650"/>
<path fill-rule="evenodd" clip-rule="evenodd" d="M990.204 163.406C989.081 170.33 993.824 175.934 993.462 182.99C992.684 198.219 991.948 213.441 991.108 228.669C990.443 240.593 989.82 252.585 989.072 264.512C987.818 284.408 984.355 303.97 975.407 322.11C977.186 323.102 978.26 321.968 979.279 320.658C985.78 312.3 992.201 303.891 996.856 294.205C1004.49 278.271 1007.08 261.198 1007.93 243.799C1008.76 226.881 1009.88 209.935 1009.15 193.006C1008.6 180.169 1000.67 171.435 992.96 162.716C991.965 161.581 990.906 162.149 990.204 163.406Z" fill="#B98650"/>
<path fill-rule="evenodd" clip-rule="evenodd" d="M961.586 -6.18418C959.936 -5.17548 959.636 -3.36121 959.892 -1.85912C961.369 6.75371 961.846 15.517 964.472 23.9969C966.808 31.5858 969.823 38.6792 972.878 45.9065C976.524 54.5458 981.616 62.0603 987.509 68.8961C991.865 73.942 994.383 80.2451 998.997 85.0196C1003.24 89.4245 1008.5 91.3964 1014.34 92.1967C1015.94 92.4173 1017.11 91.8387 1017.47 90.0455C1015.38 89.7143 1015.14 88.4359 1015.59 86.4876C1016.53 82.4326 1015.68 78.5129 1014.44 74.759C1012.16 67.9485 1008.85 61.6302 1005.75 55.2219C1000.29 43.944 993.028 33.8722 986.15 23.5835C978.965 12.8177 973.475 0.440842 961.586 -6.18418Z" fill="#E6B55E"/>
<path fill-rule="evenodd" clip-rule="evenodd" d="M961.515 -6.09661C973.382 0.524136 978.862 12.893 986.032 23.6412C992.897 33.9233 1000.14 43.9992 1005.6 55.2592C1008.69 61.6634 1012 67.9776 1014.26 74.7837C1015.52 78.5334 1016.36 82.4524 1015.42 86.5047C1014.97 88.4517 1015.19 89.7311 1017.29 90.0603C1017.69 89.3877 1018.08 88.715 1018.47 88.0424L1018.5 87.7026L1018.68 87.4121C1019.04 85.7714 1019.4 84.122 1019.75 82.4831L1019.77 82.3176C1024.27 65.9808 1020.51 51.4985 1012.56 37.4385C1006.15 26.0947 999.385 15.0927 991.473 4.82901C984.505 -4.20336 974.263 -6.04684 964.188 -8.36214C962.587 -8.71289 961.367 -8.18919 961.515 -6.09661Z" fill="#B98650"/>
<path fill-rule="evenodd" clip-rule="evenodd" d="M656.135 225.588C660.044 232.003 663.577 238.74 669.032 243.979C675.457 250.172 681.315 257.271 688.065 262.726C700.002 272.354 711.74 282.449 725.445 289.659C734.39 294.366 743.351 299.332 752.135 304.566C760.446 309.517 769.419 311.011 778.494 310.226C780.199 310.081 781.248 308.877 781.965 307.369C770.288 291.869 755.381 280.395 739.387 270.651C729.796 264.809 720.103 259.048 710.482 253.287C698.196 245.934 685.861 238.676 673.558 231.358C667.858 227.975 661.448 229.557 656.135 225.588Z" fill="#E6B55E"/>
<path fill-rule="evenodd" clip-rule="evenodd" d="M724.592 168.493C721.441 172.43 721.1 184.144 723.768 189.303C727.721 196.95 730.863 204.957 734.38 212.784C737.943 220.724 741.523 228.845 746.691 236.013C748.826 238.973 748.966 242.431 750.889 245.633C755.47 253.287 760.821 260.513 766.303 267.217C775.117 277.992 782.556 290.339 794.401 298.264C796.269 292.49 795.104 286.425 792.997 280.882C787.706 266.969 780.989 253.57 775.014 239.898C768.395 224.764 759.951 210.372 750.313 196.673C742.869 186.067 735.465 175.662 724.592 168.493Z" fill="#E6B55E"/>
<path fill-rule="evenodd" clip-rule="evenodd" d="M586.492 112.606C586.139 121.179 591.659 127.866 596.764 133.173C616.825 154.059 636.354 175.672 659.499 193.002C670.275 201.067 681.656 208.055 693.857 213.181C697.25 214.611 699.746 218.155 703.609 218.214C704.433 218.222 705.215 217.737 706.032 217.485C705.344 208.819 698.827 203.131 693.436 198.185C672.688 179.162 653.187 158.599 631.041 141.282C626.175 137.48 621.053 134.046 616.015 130.479C606.546 123.78 596.678 117.873 586.492 112.606Z" fill="#E6B55E"/>
<path fill-rule="evenodd" clip-rule="evenodd" d="M724.592 168.493C735.465 175.661 742.87 186.067 750.323 196.672C759.962 210.37 768.404 224.752 775.024 239.896C780.999 253.568 787.717 266.967 793.008 280.881C795.115 286.423 796.281 292.499 794.412 298.262C797.439 302.209 799.514 301.917 801.032 297.494C802.766 292.428 805.135 287.628 806.545 282.451C809.132 272.983 804.312 264.247 800.711 255.552C794.899 241.517 786.098 228.988 778.986 215.631C769.854 198.468 756.81 186.093 741.006 176.167C737.693 174.082 734.753 171.306 731.581 168.916C729.248 167.141 726.836 165.954 724.592 168.493Z" fill="#B98650"/>
<path fill-rule="evenodd" clip-rule="evenodd" d="M656.136 225.588C661.448 229.557 667.85 227.987 673.549 231.36C685.86 238.665 698.185 245.925 710.473 253.288C720.094 259.05 729.786 264.811 739.378 270.653C755.371 280.396 770.277 291.86 781.956 307.371C783.434 306.294 782.892 304.892 782.192 303.461C777.702 294.301 773.136 285.187 766.846 277.015C756.506 263.583 743.344 253.946 729.264 245.633C715.566 237.552 701.974 229.203 687.687 222.446C676.852 217.317 666.676 220.226 656.578 222.961C655.291 223.3 655.364 224.441 656.136 225.588Z" fill="#B98650"/>
<path fill-rule="evenodd" clip-rule="evenodd" d="M586.495 112.605C596.681 117.873 606.549 123.779 616.018 130.479C621.046 134.047 626.178 137.48 631.044 141.281C653.19 158.599 672.691 179.162 693.439 198.185C698.83 203.13 705.357 208.817 706.035 217.484C707.441 218.181 708.733 220.223 710.335 219.006C711.845 217.859 710.692 216.001 710.305 214.389C706.391 197.773 698.368 183.878 685.745 171.642C669.846 156.227 653.073 142.086 635.405 129.296C624.624 121.482 612.892 114.409 599.279 114.232C595.572 114.18 591.985 110.911 587.98 111.364C587.83 111.606 587.614 111.673 587.329 111.556C587.061 111.904 586.773 112.256 586.495 112.605Z" fill="#B98650"/>
<path fill-rule="evenodd" clip-rule="evenodd" d="M1008.43 93.7295C1008.43 93.7295 1044.96 269.481 914.251 443.781C914.251 443.781 1066.71 311.519 1014.41 92.76" fill="#B98650"/>
<path fill-rule="evenodd" clip-rule="evenodd" d="M804.9 112.699C804.9 112.699 916.521 248.455 880.699 467.718C880.699 467.718 954.655 274.342 809.714 108.819" fill="#B98650"/>
</g>
<g opacity="0.05" filter="url(#filter2_f_2041_7452)">
<ellipse cx="360.5" cy="327.5" rx="360.5" ry="327.5" transform="matrix(1 0 0 -1 521 606)" fill="#F5C267"/>
</g>
</g>
<defs>
<filter id="filter0_f_2041_7452" x="-501" y="1" width="1201" height="1135" filterUnits="userSpaceOnUse" color-interpolation-filters="sRGB">
<feFlood flood-opacity="0" result="BackgroundImageFix"/>
<feBlend mode="normal" in="SourceGraphic" in2="BackgroundImageFix" result="shape"/>
<feGaussianBlur stdDeviation="120" result="effect1_foregroundBlur_2041_7452"/>
</filter>
<filter id="filter1_f_2041_7452" x="118" y="-53" width="1201" height="1135" filterUnits="userSpaceOnUse" color-interpolation-filters="sRGB">
<feFlood flood-opacity="0" result="BackgroundImageFix"/>
<feBlend mode="normal" in="SourceGraphic" in2="BackgroundImageFix" result="shape"/>
<feGaussianBlur stdDeviation="120" result="effect1_foregroundBlur_2041_7452"/>
</filter>
<filter id="filter2_f_2041_7452" x="281" y="-289" width="1201" height="1135" filterUnits="userSpaceOnUse" color-interpolation-filters="sRGB">
<feFlood flood-opacity="0" result="BackgroundImageFix"/>
<feBlend mode="normal" in="SourceGraphic" in2="BackgroundImageFix" result="shape"/>
<feGaussianBlur stdDeviation="120" result="effect1_foregroundBlur_2041_7452"/>
</filter>
<clipPath id="clip0_2041_7452">
<rect width="973" height="810" fill="white"/>
</clipPath>
</defs>
</svg>
