<svg width="766" height="766" viewBox="0 0 766 766" fill="none" xmlns="http://www.w3.org/2000/svg">
<path d="M382.567 23.77C383.699 26.5022 385.043 29.3678 386.638 32.2987C395.701 48.9496 412.792 67.5035 444.407 75.5839C453.878 78.0079 464.538 80.2075 475.522 82.4739C481.885 83.7867 488.356 85.1219 494.767 86.5361C512.507 90.4492 530.267 95.0538 546.044 101.695C561.825 108.339 575.248 116.869 584.643 128.41C593.934 139.824 599.602 154.564 599.299 174.34L599.198 180.896L605.716 180.418L605.718 180.418L605.726 180.417L605.731 180.417L605.737 180.416L605.759 180.415C605.809 180.412 605.9 180.408 606.03 180.403C606.291 180.394 606.709 180.384 607.268 180.387C608.387 180.394 610.062 180.452 612.165 180.669C616.38 181.103 622.256 182.167 628.788 184.684C641.719 189.667 657.518 200.443 668.164 224.15L668.165 224.151C671.967 232.612 676.013 242.484 680.434 253.272C681.761 256.51 683.122 259.83 684.52 263.219C690.547 277.828 697.215 293.59 704.68 309.042C718.242 337.12 734.767 364.916 755.51 383C734.767 401.084 718.242 428.88 704.68 456.958C697.215 472.41 690.547 488.172 684.52 502.781C683.122 506.17 681.761 509.491 680.434 512.729C676.013 523.515 671.967 533.387 668.166 541.847C657.477 565.614 641.676 576.387 628.761 581.355C622.236 583.865 616.37 584.919 612.164 585.345C610.065 585.558 608.393 585.613 607.277 585.617C606.72 585.619 606.303 585.608 606.043 585.598C605.913 585.594 605.823 585.589 605.773 585.586L605.752 585.585L605.746 585.584L605.74 585.584L605.733 585.583L605.731 585.583L599.198 585.088L599.299 591.66C599.602 611.464 593.933 626.226 584.64 637.653C575.244 649.207 561.819 657.742 546.034 664.385C530.254 671.026 512.488 675.624 494.738 679.523C488.239 680.951 481.677 682.297 475.227 683.62C464.323 685.856 453.742 688.027 444.336 690.414L444.326 690.416C412.711 698.497 395.621 717.05 386.558 733.701C384.962 736.632 383.618 739.498 382.486 742.23C381.354 739.498 380.01 736.632 378.415 733.701C369.352 717.05 352.262 698.497 320.647 690.416C311.172 687.994 300.511 685.797 289.528 683.532C283.151 682.217 276.665 680.88 270.239 679.464C252.488 675.551 234.72 670.946 218.938 664.304C203.152 657.661 189.727 649.131 180.331 637.59C171.038 626.176 165.371 611.435 165.674 591.66L165.775 585.104L159.257 585.582L159.255 585.582L159.247 585.583L159.242 585.583L159.236 585.584L159.214 585.585C159.164 585.588 159.073 585.592 158.943 585.597C158.682 585.606 158.263 585.616 157.705 585.613C156.586 585.606 154.911 585.548 152.807 585.331C148.593 584.897 142.717 583.833 136.185 581.316C123.254 576.333 107.455 565.557 96.8085 541.85C93.0579 533.469 89.0661 523.707 84.7051 513.042C83.3411 509.706 81.941 506.282 80.501 502.784C74.4855 488.174 67.8245 472.412 60.3648 456.959C46.8106 428.881 30.2872 401.084 9.54359 383C30.2871 364.916 46.8113 337.12 60.3742 309.042C67.8387 293.59 74.5072 277.828 80.5336 263.219C81.9316 259.83 83.2924 256.51 84.6193 253.273C89.0403 242.485 93.0862 232.614 96.8881 224.153C107.577 200.386 123.378 189.613 136.293 184.645C142.817 182.135 148.684 181.081 152.89 180.655C154.989 180.442 156.661 180.387 157.776 180.383C158.334 180.381 158.75 180.392 159.011 180.402C159.141 180.407 159.231 180.411 159.281 180.414L159.308 180.416L159.313 180.416L159.32 180.416L159.321 180.417L159.323 180.417L165.856 180.912L165.755 174.34C165.452 154.535 171.121 139.774 180.414 128.347C189.81 116.793 203.235 108.258 219.019 101.615C234.8 94.9737 252.566 90.3758 270.316 86.4765C276.814 85.049 283.376 83.703 289.826 82.3803C300.73 80.1438 311.312 77.9735 320.718 75.5865L320.728 75.5839C352.343 67.5035 369.433 48.9496 378.496 32.2987C380.091 29.3678 381.435 26.5022 382.567 23.77Z" stroke="url(#paint0_linear_2060_7370)" stroke-width="12"/>
<defs>
<linearGradient id="paint0_linear_2060_7370" x1="-542.03" y1="1773.53" x2="223.008" y2="1773.53" gradientUnits="userSpaceOnUse">
<stop stop-color="#E4C773"/>
<stop offset="0.0443" stop-color="#DBB95F"/>
<stop offset="0.102" stop-color="#D3AC4C"/>
<stop offset="0.1614" stop-color="#CEA441"/>
<stop offset="0.2246" stop-color="#CCA13D"/>
<stop offset="0.4219" stop-color="#6D4616"/>
<stop offset="0.6739" stop-color="#CCA13D"/>
<stop offset="0.893" stop-color="#CCA13D"/>
<stop offset="1" stop-color="#956B1C"/>
</linearGradient>
</defs>
</svg>
