<svg width="204" height="253" viewBox="0 0 204 253" fill="none" xmlns="http://www.w3.org/2000/svg">
<g opacity="0.17" clip-path="url(#clip0_683_16403)">
<path fill-rule="evenodd" clip-rule="evenodd" d="M1.82343 77.6975C4.71229 87.7786 13.7014 93.238 24.241 91.7167C27.3417 91.269 29.5083 90.0413 31.6364 87.8316C42.1422 76.9176 52.7203 66.0518 64.0831 56.0285C73.5056 47.7191 77.6752 36.8918 80.3281 25.1498C81.0407 22.0013 81.4836 18.8191 81.3007 15.4298C94.262 33.9359 112.861 43.5403 133.411 49.9818C167.779 60.7561 202.247 71.2175 236.649 81.9004C242.316 83.6624 247.395 81.7463 252.49 79.9603C255.773 78.8096 258.98 77.3076 261.517 74.7705C262.355 75.3289 261.878 76.0414 261.7 76.4458C258.585 83.6817 254.382 90.051 247.535 94.3742C245.455 95.6885 243.462 95.9918 241.054 95.3322C192.271 81.9341 143.464 68.666 94.7194 55.1379C89.9865 53.8236 86.8521 54.2858 83.1544 57.7857C68.5175 71.6508 53.3847 84.9864 38.1845 98.2448C35.0694 100.965 31.7809 103.502 28.8294 106.391C26.4846 108.687 23.7884 108.807 21.0151 108.239C10.2252 106.034 0.648629 94.6871 0.00345154 83.5517C-0.0880289 81.886 0.682333 79.4162 1.82343 77.6975Z" fill="#007258"/>
<path fill-rule="evenodd" clip-rule="evenodd" d="M44.3232 139.739C44.3232 128.296 44.328 117.213 44.3183 106.135C44.3183 105.601 44.2606 105.081 44.7757 104.715C47.549 102.741 50.3224 100.758 53.1582 98.7359C53.9334 100.267 53.5675 101.697 53.5675 103.069C53.5675 110.825 53.5242 118.576 53.4327 126.326C53.4134 128.127 53.4375 129.018 55.609 127.752C68.811 120.054 82.0709 112.461 95.3452 104.884C96.5392 104.2 97.0737 103.531 97.0785 102.063C97.1315 90.6095 97.2952 79.1611 97.4348 67.708C97.4829 64.0395 97.6515 63.9673 101.185 65.2864C103.4 66.1096 105.62 67.0147 107.921 67.5058C109.679 67.8813 110.126 68.6034 110.112 70.3125C110.045 79.4741 109.799 88.6308 109.631 97.7923C109.52 103.945 108.735 102.52 114.469 103.488C136.117 107.156 157.788 110.675 179.324 114.974C187.331 116.573 195.353 118.113 203.345 119.794C205.011 120.145 205.218 119.635 205.247 118.166C205.348 111.734 205.574 105.307 205.738 98.8804C205.791 96.6706 208.795 94.095 211.02 94.3838C214.563 94.846 215.218 95.573 215.141 99.1548C214.929 109.814 214.636 120.468 214.51 131.126C214.482 133.538 213.682 134.049 211.381 133.692C190.624 130.462 169.839 127.443 149.097 124.122C135.91 122.013 122.765 119.606 109.655 117.078C106.231 116.419 102.697 116.27 99.3751 115.172C96.3852 114.185 93.8719 115.403 91.3778 116.64C77.2369 123.674 62.9033 130.322 48.9309 137.693C47.5539 138.41 46.095 138.954 44.3232 139.739Z" fill="#007258"/>
<path fill-rule="evenodd" clip-rule="evenodd" d="M200.48 100.926C200.48 103.04 200.36 105.163 200.514 107.267C200.658 109.14 200.105 109.347 198.352 108.961C181.462 105.264 164.552 101.668 147.648 98.0475C137.181 95.8088 126.713 93.5558 116.236 91.3701C114.508 91.009 113.612 90.4891 113.665 88.3949C113.81 83.027 113.685 77.6446 113.545 72.2719C113.502 70.6013 113.651 69.937 115.639 70.4376C142.896 77.3269 170.162 84.1583 197.442 90.9368C199.532 91.4567 200.649 92.1933 200.369 94.586C200.129 96.6754 200.321 98.8081 200.321 100.926C200.374 100.926 200.427 100.926 200.48 100.926Z" fill="#007258"/>
<path fill-rule="evenodd" clip-rule="evenodd" d="M103.508 27.8265C120.369 18.5976 136.942 9.56601 153.451 0.42853C154.968 -0.409152 155.56 0.0626461 156.384 1.17956C167 15.5453 177.636 29.8918 188.272 44.2432C191.815 49.0237 195.364 53.8043 199.346 59.1819C193.799 57.2754 188.955 55.5952 184.088 53.9536C183.062 53.6069 182.614 52.7307 182.022 51.999C174.275 42.4138 166.514 32.8382 158.849 23.1904C157.544 21.5487 156.533 21.1347 154.482 22.0879C144.217 26.8589 133.855 31.418 123.547 36.0878C122.642 36.497 121.857 36.9159 120.855 36.4152C115.217 33.6036 109.57 30.8258 103.508 27.8265Z" fill="#007258"/>
<path fill-rule="evenodd" clip-rule="evenodd" d="M70.0843 186.524C69.468 188.108 70.9124 190.38 67.8358 190.202C64.4943 190.014 64.4799 190.231 64.4654 186.746C64.4654 186.654 64.4654 186.567 64.4654 186.481C64.4462 181.951 64.451 181.883 59.8818 181.768C58.3363 181.724 57.5563 181.373 57.7633 179.688C57.8692 178.821 57.7777 177.931 57.7922 177.05C57.8885 171.489 57.8885 171.374 63.3918 171.277C65.8473 171.234 65.2358 169.554 65.2406 168.384C65.2743 162.308 65.3128 156.228 65.0528 150.162C64.9469 147.755 65.8617 146.72 67.961 146.031C72.3376 144.597 72.3231 144.539 72.3424 149.035C72.3713 156.079 72.4291 163.127 72.3809 170.17C72.3665 172.303 72.9394 173.959 74.4368 175.605C83.8497 185.956 93.1229 196.437 102.492 206.836C103.985 208.492 104.876 210.201 104.736 212.502C104.63 214.245 104.958 216.011 104.958 217.769C104.958 218.905 105.935 220.677 104.553 221.062C102.858 221.529 100.851 221.87 99.2713 219.959C95.6843 215.626 91.9048 211.452 88.1974 207.225C82.2415 200.399 76.2712 193.587 70.0843 186.524Z" fill="#007258"/>
<path fill-rule="evenodd" clip-rule="evenodd" d="M224.358 139.883C218.706 144.592 212.379 144.808 205.455 143.711C192.619 141.67 179.692 140.201 166.798 138.492C157.043 137.202 147.298 135.767 137.519 134.674C128.439 133.659 119.368 132.657 110.354 131.184C109.757 131.088 109.122 131.189 108.607 130.736C105.082 127.621 101.553 124.516 97.4219 120.877C140.389 126.577 182.34 133.471 224.358 139.883Z" fill="#007258"/>
<path fill-rule="evenodd" clip-rule="evenodd" d="M93.4043 67.6213C93.4043 76.6385 93.3995 85.4245 93.4139 94.2153C93.4139 95.236 93.2069 96.0014 92.2487 96.6129C82.0511 103.146 71.3238 108.769 60.7361 114.628C60.5146 114.753 60.2306 114.758 59.3398 114.974C59.3398 107.898 59.3447 100.989 59.3398 94.0805C59.3398 93.2814 59.8165 92.8192 60.3991 92.3715C71.0397 84.1535 81.4877 75.6852 92.5424 68.0161C92.735 67.8765 92.9854 67.8091 93.4043 67.6213Z" fill="#007258"/>
<path fill-rule="evenodd" clip-rule="evenodd" d="M158.651 183.679C157.062 186.644 155.411 189.576 153.908 192.58C149.46 201.453 144.635 210.114 139.556 218.64C139.151 219.319 138.742 220.002 138.251 220.619C137.808 221.177 137.124 221.057 136.532 220.951C135.81 220.821 135.94 220.185 135.935 219.69C135.892 214.283 135.786 209.141 138.867 204.009C144.823 194.092 149.845 183.616 155.372 173.429C157.418 169.66 157.274 165.62 157.399 161.601C157.534 157.109 157.466 152.617 157.611 148.13C157.664 146.469 157.255 145.925 155.444 145.843C151.111 145.641 147.221 147.447 143.094 148.13C141.626 148.371 140.119 148.621 138.761 149.185C136.118 150.277 135.843 149.006 135.949 146.826C136.079 144.279 136.002 141.718 135.983 139.166C135.973 137.77 136.513 137.414 137.947 137.621C147.765 139.055 157.606 140.374 167.433 141.78C168.348 141.91 169.484 141.722 170.12 142.522C171.044 143.677 169.961 145.328 168.29 145.444C163.808 145.747 163.841 145.747 163.851 150.147C163.894 162.477 163.812 174.811 163.995 187.14C164.034 189.629 162.686 189.138 161.275 189.311C159.489 189.533 158.925 188.825 159.118 187.126C159.238 186.038 159.142 184.926 159.142 183.823C158.983 183.77 158.815 183.727 158.651 183.679Z" fill="#007258"/>
<path fill-rule="evenodd" clip-rule="evenodd" d="M113.376 177.093C114.406 179.813 114.652 182.74 115.201 185.571C117.319 196.6 119.269 207.668 121.417 218.698C121.778 220.546 121.59 221.139 119.573 221.129C114.661 221.1 114.661 221.192 113.65 216.43C111.753 207.509 109.736 198.608 108.041 189.648C107.569 187.15 106.505 186.784 104.339 186.972C101.763 187.193 99.0424 187.66 97.0683 185.128C96.5002 184.401 96.0765 183.78 96.0861 182.822C96.1968 169.005 96.2931 155.188 96.3413 141.371C96.3461 139.243 97.0442 137.996 99.3216 137.606C101.719 137.197 104.801 135.233 106.231 136.123C107.877 137.149 106.746 140.63 106.794 143.037C107.03 155.708 107.174 168.384 107.386 181.055C107.401 181.931 106.866 183.27 108.152 183.549C109.49 183.833 110.959 183.785 112.326 183.583C112.894 183.496 112.634 182.494 112.644 181.907C112.673 180.318 112.654 178.73 112.654 177.136C112.894 177.117 113.135 177.103 113.376 177.093ZM102.21 172.134C102.177 172.134 102.143 172.134 102.109 172.134C102.109 170.382 102.153 168.625 102.09 166.877C102.061 166.121 102.499 165.033 100.988 165.019C99.5335 164.999 99.7646 166.02 99.7646 166.819C99.7694 170.675 99.8223 174.537 99.8657 178.398C99.8753 179.076 99.7212 179.803 100.843 179.832C101.883 179.856 102.239 179.437 102.225 178.455C102.191 176.347 102.21 174.238 102.21 172.134Z" fill="#007258"/>
<path fill-rule="evenodd" clip-rule="evenodd" d="M105.967 131.319C88.1857 137.062 70.6985 142.705 53.2209 148.376C52.0365 148.761 50.8954 148.934 49.6339 148.896C46.1625 148.785 42.691 148.857 39.0703 148.246C43.5384 145.983 47.9921 143.696 52.4698 141.458C65.5708 134.91 78.6862 128.382 91.7871 121.83C92.6393 121.402 93.3134 120.901 94.3245 121.763C98.0704 124.945 101.913 128.007 105.967 131.319Z" fill="#007258"/>
<path fill-rule="evenodd" clip-rule="evenodd" d="M51.7997 168.167C51.7997 170.367 51.8912 172.577 51.766 174.772C51.6793 176.289 51.9779 177.189 53.7064 176.944C55.7334 176.655 56.4219 177.661 56.0848 179.51C55.5986 182.162 56.7878 182.966 59.2433 182.543C59.7585 182.451 60.3026 182.562 60.8226 182.514C62.3489 182.384 62.4211 183.284 62.4692 184.492C62.5222 185.831 62.0311 186.115 60.8081 186.076C58.4296 185.994 56.0511 185.99 53.6775 186.1C52.4979 186.153 50.649 185.234 50.6971 187.766C50.7068 188.43 49.7968 188.32 49.4068 188.185C47.5964 187.554 44.7268 189.957 43.9179 186.288C43.8746 186.1 42.7913 186.124 42.1943 186.076C40.0228 185.893 37.1532 187.044 35.858 185.629C34.4858 184.127 35.6077 181.257 35.4055 178.999C35.2755 177.56 35.6943 176.843 37.2543 177.064C37.861 177.151 38.4869 177.069 39.1032 177.064C44.4524 177.03 44.4572 177.03 44.4428 171.547C44.4283 165.385 44.4187 159.218 44.3609 153.05C44.3465 151.866 44.3609 150.927 45.9642 151.163C51.3134 151.938 56.186 150.008 61.0633 148.328C62.6763 147.774 63.0614 148.034 63.0085 149.671C62.9266 152.401 62.917 155.13 63.0133 157.86C63.0614 159.256 62.604 159.689 61.2126 159.632C58.5741 159.526 55.9308 159.632 53.2875 159.564C52.1608 159.535 51.7323 159.872 51.7708 161.047C51.8527 163.411 51.7949 165.789 51.7997 168.167Z" fill="#007258"/>
<path fill-rule="evenodd" clip-rule="evenodd" d="M106.638 226.295C108.414 227.132 109.873 227.908 111.404 228.514C113.672 229.414 115.492 230.502 114.712 233.449C114.433 234.484 115.203 234.975 115.978 235.495C118.607 237.252 121.578 238.114 124.63 238.383C131.434 238.99 138.121 238.258 144.631 236.015C146.643 235.322 147.862 234.335 147.414 232.033C147.154 230.709 147.799 229.968 148.964 229.395C150.991 228.408 152.946 227.282 155.339 226.001C155.339 230.666 155.305 234.927 155.363 239.192C155.377 240.213 154.718 240.458 154.077 240.925C149.999 243.929 145.194 244.55 140.389 245.066C132.507 245.913 124.611 246.447 116.739 244.859C115.882 244.685 115.03 244.478 114.197 244.204C107.398 241.941 106.642 240.896 106.633 233.805C106.633 231.432 106.638 229.058 106.638 226.295Z" fill="#007258"/>
<path fill-rule="evenodd" clip-rule="evenodd" d="M190.128 173.073C187.639 176.308 185.304 179.457 182.853 182.509C172.862 194.93 162.732 207.23 152.149 219.16C151.682 219.685 151.258 220.277 150.705 220.691C150.026 221.201 149.154 221.076 148.423 220.859C147.599 220.623 148.066 219.82 148.023 219.266C147.638 214.582 148.991 210.74 152.303 207.119C157.108 201.877 161.389 196.153 166.42 191.078C167.32 190.168 168.163 189.634 169.381 189.836C171.11 190.12 171.572 189.259 171.365 187.752C171.11 185.864 171.866 184.415 173.031 182.961C175.063 180.42 176.936 177.752 178.789 175.076C179.771 173.66 180.913 172.924 182.723 173.034C185.068 173.179 187.422 173.073 190.128 173.073Z" fill="#007258"/>
<path fill-rule="evenodd" clip-rule="evenodd" d="M187.332 153.811C182.844 153.811 178.362 153.749 173.874 153.845C172.295 153.878 171.409 153.7 171.592 151.784C171.79 149.69 170.995 147.143 171.934 145.574C172.979 143.826 175.791 144.934 177.808 144.577C184.279 143.432 190.543 145.41 196.889 146.108C197.934 146.224 198.974 146.402 200.009 146.585C203.24 147.143 204.082 148.525 203.557 151.881C203.36 153.152 202.566 152.901 201.843 152.906C197.005 152.93 192.166 152.916 187.332 152.916C187.332 153.214 187.332 153.513 187.332 153.811Z" fill="#007258"/>
<path fill-rule="evenodd" clip-rule="evenodd" d="M84.1987 158.361C81.5698 158.361 78.9313 158.245 76.3121 158.404C74.9158 158.491 74.3717 158.182 74.4295 156.757C74.521 154.394 73.6736 151.476 74.7714 149.81C75.9462 148.024 78.9457 149.599 81.1413 149.599C85.1712 149.603 89.2012 149.984 93.236 150.061C94.5504 150.085 94.7767 150.509 94.8056 151.722C94.9452 157.98 94.9837 157.98 88.6668 158.053C87.1742 158.067 85.6864 158.053 84.1938 158.053C84.1987 158.158 84.1987 158.26 84.1987 158.361Z" fill="#007258"/>
<path fill-rule="evenodd" clip-rule="evenodd" d="M154.971 169.794C153.763 173.92 151.456 176.867 149.877 180.164C149.482 180.992 148.755 180.882 148.072 180.944C144.567 181.248 141.057 181.483 137.561 181.873C136.17 182.027 135.842 181.517 135.616 180.232C134.504 174.06 135.029 173.27 141.288 172.202C145.688 171.451 150.079 170.656 154.971 169.794Z" fill="#007258"/>
<path fill-rule="evenodd" clip-rule="evenodd" d="M186.355 181.724C188.113 178.792 189.904 176.337 191.873 174.012C192.547 173.213 193.438 172.938 194.459 172.933C198.156 172.905 201.854 172.919 205.552 172.794C206.939 172.746 207.3 173.15 207.333 174.546C207.497 181.695 207.54 181.7 200.304 181.719C195.764 181.734 191.228 181.724 186.355 181.724Z" fill="#007258"/>
<path fill-rule="evenodd" clip-rule="evenodd" d="M84.608 147.437C81.801 147.437 78.9988 147.447 76.1966 147.427C75.4503 147.423 74.4921 147.654 74.5355 146.378C74.5644 145.482 74.1647 144.491 75.5658 144.082C81.5891 142.334 87.622 140.635 93.7608 139.32C94.4879 139.161 94.7045 139.301 94.7478 139.956C94.7623 140.22 94.7479 140.48 94.7719 140.745C95.3641 147.918 95.3641 147.914 88.2913 147.721C87.0635 147.687 85.8357 147.716 84.608 147.716C84.6031 147.62 84.6031 147.529 84.608 147.437Z" fill="#007258"/>
<path fill-rule="evenodd" clip-rule="evenodd" d="M77.5117 172.572C82.6539 172.572 87.6275 172.592 92.6108 172.553C93.776 172.544 94.3826 172.775 94.3441 174.137C94.2912 176.063 94.373 178.003 94.5512 179.919C94.7197 181.797 94.1852 182.36 92.1341 182.49C88.0175 182.755 84.8927 181.671 82.5094 178.138C81.142 176.12 79.245 174.469 77.5117 172.572Z" fill="#007258"/>
<path fill-rule="evenodd" clip-rule="evenodd" d="M110.079 139.094C110.069 134.776 110.069 134.776 114.547 135.315C119.169 135.873 123.271 143.215 121.35 147.442C121.052 148.106 120.556 147.967 120.05 148.015C113.94 148.621 110.093 145.179 110.079 139.094Z" fill="#007258"/>
<path fill-rule="evenodd" clip-rule="evenodd" d="M89.1484 184.94C91.8399 184.882 93.915 184.17 95.8843 185.908C100.386 189.875 106.332 193.004 103.285 200.822C98.6576 195.878 93.8573 190.857 89.1484 184.94Z" fill="#007258"/>
<path fill-rule="evenodd" clip-rule="evenodd" d="M156.034 151.428C155.947 155.91 155.947 155.958 151.84 155.891C150.396 155.867 148.205 156.637 147.671 155.477C146.968 153.96 147.473 151.876 147.468 150.037C147.463 149.223 148.056 149.098 148.672 148.929C149.678 148.65 150.665 148.284 151.672 148.005C156.096 146.782 156.125 146.811 156.034 151.428Z" fill="#007258"/>
<path fill-rule="evenodd" clip-rule="evenodd" d="M169.952 173.766C169.952 174.907 169.875 176.058 169.971 177.189C170.092 178.605 169.711 179.163 168.122 179.221C166.317 179.279 166.663 178.229 166.659 177.218C166.644 175.109 166.803 172.982 166.567 170.897C166.302 168.557 167.963 168.403 169.336 168.403C170.905 168.408 169.937 169.843 170.053 170.613C170.207 171.643 170.092 172.712 170.092 173.766C170.043 173.766 170 173.766 169.952 173.766Z" fill="#007258"/>
<path d="M137.569 169.241H124.43V264H137.569V169.241Z" fill="#007258"/>
</g>
<defs>
<clipPath id="clip0_683_16403">
<rect width="262" height="264" fill="white"/>
</clipPath>
</defs>
</svg>
