<svg width="36" height="36" viewBox="0 0 36 36" fill="none" xmlns="http://www.w3.org/2000/svg">
<rect width="36" height="36" rx="18" fill="#005937"/>
<path d="M9 14L14.4499 17.6333C15.7329 18.4886 16.3745 18.9163 17.0678 19.0825C17.6806 19.2293 18.3194 19.2293 18.9322 19.0825C19.6255 18.9163 20.2671 18.4886 21.5501 17.6333L27 14M12.2 25H23.8C24.9201 25 25.4802 25 25.908 24.782C26.2843 24.5903 26.5903 24.2843 26.782 23.908C27 23.4802 27 22.9201 27 21.8V14.2C27 13.0799 27 12.5198 26.782 12.092C26.5903 11.7157 26.2843 11.4097 25.908 11.218C25.4802 11 24.9201 11 23.8 11H12.2C11.0799 11 10.5198 11 10.092 11.218C9.71569 11.4097 9.40973 11.7157 9.21799 12.092C9 12.5198 9 13.0799 9 14.2V21.8C9 22.9201 9 23.4802 9.21799 23.908C9.40973 24.2843 9.71569 24.5903 10.092 24.782C10.5198 25 11.0799 25 12.2 25Z" stroke="white" stroke-width="2" stroke-linecap="round" stroke-linejoin="round"/>
</svg>
