<svg width="32" height="33" viewBox="0 0 32 33" fill="none" xmlns="http://www.w3.org/2000/svg">
<path d="M17.6796 2.95129C17.7679 2.4061 18.2833 2.03627 18.8285 2.12453C18.8622 2.13099 18.9708 2.15128 19.0277 2.16395C19.1415 2.18929 19.3002 2.2283 19.4981 2.28594C19.8938 2.40119 20.4466 2.59107 21.11 2.89525C22.4384 3.50425 24.2062 4.56959 26.0406 6.40399C27.875 8.23839 28.9403 10.0061 29.5493 11.3345C29.8535 11.998 30.0434 12.5508 30.1586 12.9465C30.2163 13.1444 30.2553 13.3031 30.2806 13.4169C30.2933 13.4738 30.3025 13.5194 30.309 13.5532L30.3167 13.5948C30.4049 14.14 30.0385 14.6767 29.4933 14.7649C28.9497 14.8529 28.4375 14.4849 28.3471 13.9423C28.3443 13.9277 28.3367 13.8885 28.3284 13.8516C28.312 13.7778 28.2835 13.6607 28.2384 13.5058C28.1482 13.196 27.9915 12.7356 27.7313 12.168C27.2115 11.0343 26.2768 9.46869 24.6264 7.81821C22.9759 6.16773 21.4103 5.23307 20.2765 4.71329C19.709 4.45308 19.2485 4.29637 18.9388 4.20614C18.7839 4.16103 18.5892 4.11635 18.5154 4.09991C17.9727 4.00948 17.5916 3.49492 17.6796 2.95129Z" fill="white"/>
<path fill-rule="evenodd" clip-rule="evenodd" d="M17.9813 7.55057C18.133 7.01954 18.6865 6.71205 19.2176 6.86377L18.9428 7.82529C19.2176 6.86377 19.2176 6.86377 19.2176 6.86377L19.2195 6.86432L19.2215 6.86491L19.226 6.86621L19.2363 6.86929L19.2627 6.87751C19.2828 6.88394 19.3079 6.89232 19.3378 6.90294C19.3977 6.92419 19.4769 6.95441 19.5739 6.99601C19.7682 7.07926 20.0336 7.20782 20.3596 7.40077C21.0122 7.78701 21.9031 8.42858 22.9498 9.47521C23.9964 10.5218 24.638 11.4128 25.0242 12.0654C25.2172 12.3914 25.3457 12.6568 25.429 12.8511C25.4706 12.9481 25.5008 13.0273 25.522 13.0872C25.5327 13.1171 25.541 13.1422 25.5475 13.1623L25.5557 13.1887L25.5588 13.199L25.5601 13.2035L25.5607 13.2055C25.5607 13.2055 25.5612 13.2074 24.5997 13.4821L25.5612 13.2074C25.7129 13.7385 25.4054 14.2919 24.8744 14.4437C24.3479 14.5941 23.7993 14.2931 23.6421 13.7703L23.6372 13.756C23.6301 13.7359 23.6154 13.6965 23.5907 13.6389C23.5414 13.5238 23.4519 13.3355 23.3031 13.084C23.0058 12.5817 22.4688 11.8227 21.5356 10.8894C20.6023 9.95615 19.8433 9.41921 19.341 9.12192C19.0895 8.9731 18.9012 8.88364 18.7861 8.8343C18.7285 8.80961 18.689 8.7949 18.669 8.78779L18.6546 8.78287C18.1319 8.6257 17.8309 8.0771 17.9813 7.55057Z" fill="white"/>
<path fill-rule="evenodd" clip-rule="evenodd" d="M6.67676 6.3203C8.91685 4.08021 12.697 4.2505 14.2568 7.04533L15.1222 8.5959C16.1407 10.421 15.7067 12.7238 14.2156 14.2331C14.1957 14.2603 14.0905 14.4135 14.0774 14.6813C14.0606 15.023 14.182 15.8134 15.4066 17.038C16.6308 18.2621 17.421 18.3838 17.7629 18.3672C18.0309 18.3542 18.1843 18.2488 18.2115 18.229C19.7208 16.7379 22.0236 16.3039 23.8487 17.3224L25.3992 18.1878C28.1941 19.7475 28.3644 23.5277 26.1243 25.7678C24.926 26.966 23.3328 28.0307 21.4606 28.1016C18.686 28.2068 14.079 27.4903 9.51663 22.9279C4.95425 18.3656 4.23773 13.7586 4.34292 10.984C4.41389 9.11174 5.47855 7.51852 6.67676 6.3203ZM12.5104 8.01999C11.7117 6.58887 9.56542 6.26008 8.09098 7.73452C7.05718 8.76831 6.38509 9.9094 6.34148 11.0598C6.25376 13.3736 6.82502 17.4079 10.9308 21.5137C15.0367 25.6195 19.071 26.1908 21.3848 26.1031C22.5352 26.0595 23.6763 25.3874 24.71 24.3536C26.1845 22.8791 25.8557 20.7329 24.4246 19.9342L22.874 19.0688C21.9095 18.5306 20.5546 18.7142 19.6035 19.6652C19.5101 19.7586 18.9154 20.3135 17.8601 20.3648C16.7798 20.4174 15.4722 19.932 13.9924 18.4522C12.5121 16.9719 12.0269 15.6639 12.0798 14.5835C12.1314 13.5281 12.6864 12.934 12.7793 12.8411C13.7303 11.89 13.914 10.5351 13.3757 9.57057L12.5104 8.01999Z" fill="white"/>
</svg>
