<svg width="36" height="36" viewBox="0 0 36 36" fill="none" xmlns="http://www.w3.org/2000/svg">
<path d="M35.8177 16.3442C35.0067 7.19817 27.3027 0 17.9457 0C8.05208 0 0 8.05207 0 17.944C0 21.5757 1.0854 24.9621 2.95096 27.7896L0.713308 32.745C0.125177 34.0482 1.17455 35.497 2.59601 35.3462L10.9224 34.4597C13.0795 35.3805 15.456 35.8897 17.9457 35.8897C18.5801 35.8897 19.2094 35.8554 19.8267 35.792C20.396 35.7302 20.955 35.6445 21.5088 35.5348C29.6706 33.8835 35.84 26.6734 35.8897 18.0486V17.944C35.8897 17.4073 35.8674 16.8689 35.8177 16.3442ZM27.9148 13.9042L24.146 19.7152L22.1535 22.7896C21.7283 23.4446 20.8366 23.6007 20.2142 23.1291L16.9083 20.624L14.8713 19.0808C14.7067 18.9556 14.4769 18.9591 14.3158 19.0911L9.3158 23.1703C8.51162 23.827 7.4108 22.8394 7.97492 21.9683L11.5037 16.5277L13.4962 13.4533C13.9214 12.7983 14.813 12.6422 15.4354 13.1138L18.6436 15.5452L20.6806 17.0867C20.8469 17.2118 21.0767 17.2084 21.2379 17.0764L26.5722 12.704C27.3764 12.0438 28.4806 13.0315 27.9148 13.9042Z" fill="white"/>
</svg>
