<svg width="32" height="33" viewBox="0 0 32 33" fill="none" xmlns="http://www.w3.org/2000/svg">
<path fill-rule="evenodd" clip-rule="evenodd" d="M9.67031 6.2295C10.7919 3.86155 13.2033 2.22221 15.9998 2.22221C18.7963 2.22221 21.2078 3.86155 22.3294 6.22951C22.4412 6.22466 22.5536 6.22221 22.6665 6.22221C26.9007 6.22221 30.3332 9.65469 30.3332 13.8889C30.3332 16.7963 28.7149 19.3239 26.3332 20.6233L26.3332 24.6249C26.3332 25.8228 26.3332 26.8218 26.2266 27.6148C26.1141 28.4519 25.8665 29.2076 25.2592 29.8149C24.6519 30.4222 23.8962 30.6698 23.0591 30.7823C22.2661 30.8889 21.2671 30.8889 20.0692 30.8889H11.9305C10.7325 30.8889 9.73357 30.8889 8.94053 30.7823C8.10347 30.6698 7.34774 30.4222 6.74045 29.8149C6.13315 29.2076 5.88559 28.4519 5.77305 27.6148C5.66643 26.8218 5.66646 25.8228 5.6665 24.6249L5.6665 20.6233C3.28479 19.3239 1.6665 16.7963 1.6665 13.8889C1.6665 9.65469 5.09899 6.22221 9.33317 6.22221C9.44609 6.22221 9.55848 6.22465 9.67031 6.2295ZM9.07 8.22821C6.06256 8.36569 3.6665 10.8475 3.6665 13.8889C3.6665 16.211 5.06343 18.2091 7.06688 19.0845C7.4311 19.2436 7.6665 19.6033 7.6665 20.0008V23.5555H24.3332L24.3332 20.0008C24.3332 19.6033 24.5686 19.2436 24.9328 19.0845C26.9362 18.2091 28.3332 16.211 28.3332 13.8889C28.3332 10.8475 25.9371 8.36569 22.9297 8.22821C22.9759 8.5532 22.9998 8.88511 22.9998 9.22221V9.88887C22.9998 10.4412 22.5521 10.8889 21.9998 10.8889C21.4476 10.8889 20.9998 10.4412 20.9998 9.88887V9.22221C20.9998 8.6584 20.9069 8.11837 20.7363 7.61535C20.0668 5.6409 18.1977 4.22221 15.9998 4.22221C13.802 4.22221 11.9329 5.6409 11.2633 7.61535C11.0928 8.11837 10.9998 8.6584 10.9998 9.22221V9.88887C10.9998 10.4412 10.5521 10.8889 9.99984 10.8889C9.44755 10.8889 8.99984 10.4412 8.99984 9.88887V9.22221C8.99984 8.88511 9.02374 8.55321 9.07 8.22821ZM24.3308 25.5555H7.66892C7.67456 26.3148 7.69328 26.8877 7.75522 27.3484C7.83794 27.9636 7.9809 28.227 8.15466 28.4007C8.32842 28.5745 8.59174 28.7174 9.20703 28.8002C9.85108 28.8868 10.7145 28.8889 11.9998 28.8889H19.9998C21.2852 28.8889 22.1486 28.8868 22.7926 28.8002C23.4079 28.7174 23.6713 28.5745 23.845 28.4007C24.0188 28.227 24.1617 27.9636 24.2445 27.3484C24.3064 26.8877 24.3251 26.3148 24.3308 25.5555Z" fill="#F9FAFB"/>
</svg>
