<svg width="22" height="22" viewBox="0 0 22 22" fill="none" xmlns="http://www.w3.org/2000/svg">
<path fill-rule="evenodd" clip-rule="evenodd" d="M11 2.03449C10.9419 2.13513 10.8772 2.25103 10.801 2.38769L10.7027 2.56405C10.6958 2.5765 10.6884 2.59009 10.6804 2.60466C10.6019 2.74827 10.4718 2.9861 10.255 3.15071C10.0336 3.31877 9.76731 3.37659 9.61159 3.4104C9.59599 3.41379 9.5815 3.41693 9.56828 3.41992L9.37737 3.46312C9.20221 3.50275 9.05951 3.53509 8.9375 3.56575C9.01686 3.66345 9.11995 3.78474 9.25403 3.94154L9.38418 4.09372C9.39341 4.10452 9.40345 4.11609 9.41415 4.1284C9.52208 4.25273 9.69635 4.45346 9.77693 4.71261C9.85657 4.96869 9.8291 5.23243 9.81177 5.39882C9.81004 5.41542 9.80841 5.43105 9.807 5.4456L9.78733 5.64866C9.76908 5.83692 9.7549 5.98718 9.74546 6.10937C9.84966 6.06347 9.9682 6.00894 10.109 5.9441L10.2878 5.8618C10.3001 5.85613 10.3136 5.84977 10.3281 5.8429C10.4716 5.77522 10.7213 5.65745 11 5.65745C11.2787 5.65745 11.5284 5.77522 11.6719 5.8429C11.6864 5.84977 11.6999 5.85613 11.7122 5.8618L11.891 5.9441C12.0318 6.00894 12.1503 6.06347 12.2546 6.10937C12.2451 5.98718 12.2309 5.83692 12.2127 5.64866L12.193 5.4456C12.1916 5.43105 12.19 5.41542 12.1882 5.39882C12.1709 5.23243 12.1434 4.96869 12.2231 4.71261C12.3037 4.45346 12.4779 4.25273 12.5859 4.1284C12.5966 4.11609 12.6066 4.10452 12.6158 4.09372L12.746 3.94153C12.8801 3.78474 12.9831 3.66345 13.0625 3.56575C12.9405 3.53509 12.7978 3.50275 12.6226 3.46312L12.4317 3.41992C12.4185 3.41693 12.404 3.41379 12.3884 3.4104C12.2327 3.37659 11.9664 3.31877 11.745 3.15071C11.5282 2.9861 11.3981 2.74827 11.3196 2.60466C11.3116 2.59009 11.3042 2.5765 11.2973 2.56405L11.199 2.38769C11.1228 2.25103 11.0581 2.13513 11 2.03449ZM10.0135 0.799631C10.1857 0.574809 10.4983 0.25 11 0.25C11.5017 0.25 11.8143 0.574809 11.9865 0.799631C12.1508 1.01421 12.3163 1.31124 12.486 1.61576C12.4937 1.62961 12.5014 1.64347 12.5091 1.65734L12.6075 1.83369C12.6303 1.87459 12.6482 1.90677 12.6639 1.93429C12.6912 1.94071 12.723 1.94792 12.7627 1.95691L12.9537 2.0001C12.9693 2.00364 12.9849 2.00717 13.0006 2.0107C13.3284 2.08478 13.6542 2.15839 13.9042 2.25695C14.1804 2.36577 14.5547 2.5777 14.6989 3.04161C14.8407 3.49734 14.6618 3.88336 14.5056 4.13146C14.3611 4.36108 14.1414 4.61786 13.9165 4.88075C13.9063 4.89263 13.8962 4.90452 13.886 4.91642L13.7558 5.06861C13.7213 5.10894 13.6954 5.13935 13.6735 5.16566C13.6764 5.202 13.6805 5.24433 13.686 5.30093L13.7057 5.50398C13.7072 5.51947 13.7087 5.53494 13.7102 5.55039C13.7444 5.90232 13.7774 6.24242 13.7653 6.51447C13.7526 6.79972 13.6841 7.23152 13.2969 7.52544C12.8975 7.82864 12.4564 7.76256 12.1767 7.68241C11.919 7.60856 11.6144 7.46823 11.3077 7.3269C11.293 7.32014 11.2783 7.31337 11.2636 7.30661L11.0849 7.22431C11.0514 7.20891 11.024 7.19626 11 7.18542C10.9761 7.19626 10.9486 7.20891 10.9151 7.22431L10.7364 7.30661C10.7217 7.31337 10.707 7.32014 10.6923 7.3269C10.3856 7.46823 10.0811 7.60856 9.8233 7.68241C9.54358 7.76256 9.10247 7.82864 8.70306 7.52544C8.3159 7.23153 8.24744 6.79972 8.23473 6.51447C8.22261 6.24242 8.25564 5.90232 8.28982 5.55039C8.29132 5.53494 8.29282 5.51947 8.29432 5.50398L8.314 5.30093C8.31948 5.24433 8.32356 5.202 8.32655 5.16567C8.30466 5.13935 8.27867 5.10894 8.24418 5.06861L8.11403 4.91642C8.10385 4.90452 8.09368 4.89262 8.08351 4.88074C7.8586 4.61786 7.63891 4.36108 7.49436 4.13146C7.33818 3.88336 7.15934 3.49734 7.30106 3.04161C7.44532 2.5777 7.81962 2.36577 8.09577 2.25695C8.34585 2.1584 8.67164 2.08478 8.99945 2.0107C9.01508 2.00717 9.03072 2.00364 9.04635 2.0001L9.23726 1.95691C9.27699 1.94792 9.30877 1.94071 9.3361 1.9343C9.3518 1.90677 9.36975 1.87459 9.39255 1.83369L9.49086 1.65734C9.49859 1.64347 9.50631 1.62961 9.51403 1.61576C9.68369 1.31124 9.84917 1.01421 10.0135 0.799631ZM9.95063 8.25H12.0494C12.7142 8.24996 13.2871 8.24993 13.7458 8.31161C14.2375 8.3777 14.7087 8.52676 15.091 8.90901C15.4732 9.29126 15.6223 9.76252 15.6884 10.2542C15.7501 10.7129 15.75 11.2858 15.75 11.9506L15.75 14.4174C15.9136 14.3678 16.0827 14.3347 16.2542 14.3116C16.7129 14.2499 17.2858 14.25 17.9506 14.25H18.0494C18.7142 14.25 19.2871 14.2499 19.7458 14.3116C20.2375 14.3777 20.7087 14.5268 21.091 14.909C21.4732 15.2913 21.6223 15.7625 21.6884 16.2542C21.7501 16.7129 21.75 17.2858 21.75 17.9506V21C21.75 21.4142 21.4142 21.75 21 21.75C20.5858 21.75 20.25 21.4142 20.25 21V18C20.25 17.2717 20.2484 16.8009 20.2018 16.454C20.158 16.1287 20.0874 16.0268 20.0303 15.9697C19.9732 15.9126 19.8713 15.842 19.546 15.7982C19.1991 15.7516 18.7283 15.75 18 15.75C17.2717 15.75 16.8009 15.7516 16.454 15.7982C16.1287 15.842 16.0268 15.9126 15.9697 15.9697C15.9126 16.0268 15.842 16.1287 15.7982 16.454C15.7516 16.8009 15.75 17.2717 15.75 18V21C15.75 21.4142 15.4142 21.75 15 21.75C14.5858 21.75 14.25 21.4142 14.25 21L14.25 17.9506C14.25 17.9179 14.25 17.8854 14.25 17.8531V12C14.25 11.2717 14.2484 10.8009 14.2018 10.454C14.158 10.1287 14.0874 10.0268 14.0303 9.96967C13.9732 9.91258 13.8713 9.84197 13.546 9.79823C13.1991 9.75159 12.7283 9.75 12 9.75H10C9.27169 9.75 8.80091 9.75159 8.45403 9.79823C8.12873 9.84197 8.02677 9.91258 7.96967 9.96967C7.91258 10.0268 7.84197 10.1287 7.79823 10.454C7.7516 10.8009 7.75 11.2717 7.75 12V20.8531C7.75001 20.8854 7.75001 20.9179 7.75001 20.9506L7.75 21C7.75 21.4142 7.41422 21.75 7 21.75C6.58579 21.75 6.25 21.4142 6.25 21C6.25 20.2717 6.24841 19.8009 6.20177 19.454C6.15804 19.1287 6.08743 19.0268 6.03033 18.9697C5.97324 18.9126 5.87128 18.842 5.54598 18.7982C5.1991 18.7516 4.72831 18.75 4 18.75C3.27169 18.75 2.80091 18.7516 2.45403 18.7982C2.12873 18.842 2.02677 18.9126 1.96967 18.9697C1.91258 19.0268 1.84197 19.1287 1.79823 19.454C1.7516 19.8009 1.75 20.2717 1.75 21C1.75 21.4142 1.41422 21.75 1 21.75C0.58579 21.75 0.250004 21.4142 0.250004 21L0.250002 20.9506C0.249965 20.2858 0.249932 19.7129 0.311609 19.2542C0.377708 18.7625 0.526767 18.2913 0.909013 17.909C1.29126 17.5268 1.76252 17.3777 2.25416 17.3116C2.71291 17.2499 3.28577 17.25 3.95064 17.25H4.04937C4.71424 17.25 5.2871 17.2499 5.74585 17.3116C5.91735 17.3347 6.08637 17.3678 6.25 17.4174L6.25 11.9506C6.24996 11.2858 6.24993 10.7129 6.31161 10.2542C6.37771 9.76252 6.52677 9.29126 6.90901 8.90901C7.29126 8.52676 7.76252 8.3777 8.25416 8.31161C8.71291 8.24993 9.28577 8.24996 9.95063 8.25Z" fill="#1C274C"/>
</svg>
