<svg width="22" height="22" viewBox="0 0 22 22" fill="none" xmlns="http://www.w3.org/2000/svg">
<path fill-rule="evenodd" clip-rule="evenodd" d="M15.52 5.27261C16.7923 5.21011 17.75 6.25695 17.75 7.45154V12.9108C17.75 14.1716 16.7316 15.1365 15.5459 15.2249C15.0529 15.2617 14.5551 15.3216 14.178 15.4138C13.4402 15.594 12.4666 16.0647 11.857 16.3858C11.3214 16.6681 10.6786 16.6681 10.143 16.3858C9.53345 16.0647 8.55979 15.594 7.82199 15.4138C7.44487 15.3216 6.94708 15.2617 6.45414 15.2249C5.26836 15.1365 4.25 14.1716 4.25 12.9108V7.49649C4.25 6.27528 5.248 5.21817 6.54194 5.31291C7.06744 5.35139 7.67286 5.41879 8.17802 5.54222C9.09977 5.76744 10.1985 6.30646 10.8132 6.6291C10.9157 6.6829 11.0434 6.68078 11.1463 6.62125C11.7018 6.29984 12.6675 5.77873 13.4997 5.54804C14.1227 5.37535 14.8904 5.30353 15.52 5.27261ZM16.25 7.45154C16.25 7.03391 15.9314 6.7542 15.5935 6.7708C14.9907 6.80041 14.3582 6.86663 13.9003 6.99354C13.2696 7.16839 12.4487 7.6007 11.8975 7.91959C11.8493 7.94749 11.8001 7.97306 11.75 7.99628V14.7586C12.3591 14.4625 13.1393 14.1234 13.822 13.9566C14.3199 13.835 14.9149 13.7678 15.4343 13.7291C15.9097 13.6936 16.25 13.3157 16.25 12.9108V7.45154ZM10.116 7.95726C10.16 7.98035 10.2047 8.00154 10.25 8.02081V14.7586C9.64094 14.4625 8.86071 14.1234 8.17802 13.9566C7.68009 13.835 7.08508 13.7678 6.56568 13.7291C6.09031 13.6936 5.75 13.3157 5.75 12.9108V7.49649C5.75 7.06975 6.08277 6.78331 6.4324 6.80891C6.9319 6.84548 7.43898 6.90578 7.82199 6.99936C8.54804 7.17676 9.50348 7.63574 10.116 7.95726Z" fill="#1F3731"/>
<path fill-rule="evenodd" clip-rule="evenodd" d="M8.94358 0.25C7.10583 0.249985 5.65019 0.249973 4.51098 0.403136C3.33856 0.560764 2.38961 0.892881 1.64124 1.64124C0.892881 2.38961 0.560764 3.33856 0.403136 4.51098C0.249973 5.65019 0.249985 7.10582 0.25 8.94357V13.0564C0.249985 14.8942 0.249973 16.3498 0.403136 17.489C0.560764 18.6614 0.892881 19.6104 1.64124 20.3588C2.38961 21.1071 3.33856 21.4392 4.51098 21.5969C5.65018 21.75 7.1058 21.75 8.94354 21.75H13.0564C14.8942 21.75 16.3498 21.75 17.489 21.5969C18.6614 21.4392 19.6104 21.1071 20.3588 20.3588C21.1071 19.6104 21.4392 18.6614 21.5969 17.489C21.75 16.3498 21.75 14.8942 21.75 13.0565V8.94359C21.75 7.10585 21.75 5.65018 21.5969 4.51098C21.4392 3.33856 21.1071 2.38961 20.3588 1.64124C19.6104 0.892881 18.6614 0.560764 17.489 0.403136C16.3498 0.249973 14.8942 0.249985 13.0564 0.25H8.94358ZM2.7019 2.7019C3.12511 2.27869 3.70476 2.02503 4.71085 1.88976C5.73851 1.75159 7.09318 1.75 9 1.75H13C14.9068 1.75 16.2615 1.75159 17.2892 1.88976C18.2952 2.02503 18.8749 2.27869 19.2981 2.7019C19.7213 3.12511 19.975 3.70476 20.1102 4.71085C20.2484 5.73851 20.25 7.09318 20.25 9V13C20.25 14.9068 20.2484 16.2615 20.1102 17.2892C19.975 18.2952 19.7213 18.8749 19.2981 19.2981C18.8749 19.7213 18.2952 19.975 17.2892 20.1102C16.2615 20.2484 14.9068 20.25 13 20.25H9C7.09318 20.25 5.73851 20.2484 4.71085 20.1102C3.70476 19.975 3.12511 19.7213 2.7019 19.2981C2.27869 18.8749 2.02503 18.2952 1.88976 17.2892C1.75159 16.2615 1.75 14.9068 1.75 13V9C1.75 7.09318 1.75159 5.73851 1.88976 4.71085C2.02503 3.70476 2.27869 3.12511 2.7019 2.7019Z" fill="#1F3731"/>
</svg>
