<svg width="22" height="22" viewBox="0 0 22 22" fill="none" xmlns="http://www.w3.org/2000/svg">
<path fill-rule="evenodd" clip-rule="evenodd" d="M10.9426 0.25C8.63423 0.249987 6.82519 0.249977 5.41371 0.439746C3.96897 0.633986 2.82895 1.03933 1.93414 1.93414C1.03933 2.82895 0.633986 3.96897 0.439746 5.41371C0.249977 6.82519 0.249987 8.63423 0.25 10.9426V11.0574C0.249987 13.3658 0.249977 15.1748 0.439746 16.5863C0.633986 18.031 1.03933 19.1711 1.93414 20.0659C2.82895 20.9607 3.96897 21.366 5.41371 21.5603C6.82519 21.75 8.63423 21.75 10.9426 21.75H11.0574C13.3658 21.75 15.1748 21.75 16.5863 21.5603C18.031 21.366 19.1711 20.9607 20.0659 20.0659C20.9607 19.1711 21.366 18.031 21.5603 16.5863C21.75 15.1748 21.75 13.3658 21.75 11.0574V10.9426C21.75 8.63423 21.75 6.82519 21.5603 5.41371C21.366 3.96897 20.9607 2.82895 20.0659 1.93414C19.1711 1.03933 18.031 0.633986 16.5863 0.439746C15.1748 0.249977 13.3658 0.249987 11.0574 0.25H10.9426ZM5.25 1.98181C4.18517 2.16506 3.50829 2.4813 2.9948 2.9948C2.42514 3.56445 2.09825 4.33517 1.92637 5.61358C1.75159 6.91356 1.75 8.62177 1.75 11C1.75 13.3782 1.75159 15.0864 1.92637 16.3864C2.09825 17.6648 2.42514 18.4355 2.9948 19.0052C3.56445 19.5749 4.33517 19.9018 5.61358 20.0736C6.91356 20.2484 8.62177 20.25 11 20.25C13.3782 20.25 15.0864 20.2484 16.3864 20.0736C17.6648 19.9018 18.4355 19.5749 19.0052 19.0052C19.5749 18.4355 19.9018 17.6648 20.0736 16.3864C20.2484 15.0864 20.25 13.3782 20.25 11C20.25 8.62177 20.2484 6.91356 20.0736 5.61358C19.9018 4.33517 19.5749 3.56445 19.0052 2.9948C18.4917 2.4813 17.8148 2.16506 16.75 1.98181V7.83102C16.75 8.29856 16.75 8.68212 16.7326 8.98389C16.7155 9.28157 16.6786 9.58992 16.5563 9.86519C16.1149 10.859 15.0259 11.3949 13.9691 11.1383C13.6764 11.0673 13.4096 10.9084 13.1633 10.7404C12.9136 10.57 12.6097 10.336 12.2392 10.0508L12.2207 10.0365C11.7513 9.6751 11.6192 9.58036 11.4981 9.52773C11.1804 9.38969 10.8196 9.38969 10.5019 9.52773C10.3808 9.58036 10.2487 9.6751 9.77934 10.0365L9.7608 10.0508C9.39033 10.336 9.08645 10.57 8.83672 10.7404C8.59039 10.9084 8.32356 11.0673 8.03086 11.1383C6.97413 11.3949 5.88513 10.859 5.44371 9.86519C5.32145 9.58992 5.28454 9.28157 5.26739 8.98389C5.24999 8.68211 5.25 8.29859 5.25 7.83103V1.98181ZM15.25 1.81997C14.1242 1.75085 12.7418 1.75 11 1.75C9.25823 1.75 7.87584 1.75085 6.75 1.81997V7.8076C6.75 8.30433 6.7503 8.64424 6.7649 8.89758C6.78003 9.16006 6.80769 9.24081 6.81457 9.25629C6.96171 9.58756 7.32471 9.7662 7.67695 9.68067C7.69342 9.67668 7.77428 9.64933 7.99148 9.50118C8.20112 9.35819 8.47062 9.15105 8.86419 8.84799L8.9312 8.79636C9.3014 8.51094 9.5899 8.28851 9.90419 8.15196C10.6032 7.84828 11.3968 7.84828 12.0958 8.15196C12.4101 8.28851 12.6986 8.51094 13.0688 8.79636L13.1358 8.84799C13.5294 9.15105 13.7989 9.35819 14.0085 9.50118C14.2257 9.64933 14.3066 9.67668 14.323 9.68067C14.6753 9.7662 15.0383 9.58756 15.1854 9.25629C15.1923 9.24081 15.22 9.16005 15.2351 8.89758C15.2497 8.64424 15.25 8.30433 15.25 7.8076V1.81997Z" fill="#1F3731"/>
</svg>
