<svg width="15" height="16" viewBox="0 0 15 16" fill="none" xmlns="http://www.w3.org/2000/svg">
<path d="M14.9603 5.88475C14.9131 5.7459 14.8264 5.62389 14.7107 5.53379C14.595 5.44369 14.4554 5.38945 14.3093 5.37775L10.0335 5.038L8.18327 0.942249C8.12434 0.810333 8.0285 0.69829 7.9073 0.619642C7.78611 0.540994 7.64474 0.499103 7.50026 0.499024C7.35578 0.498944 7.21437 0.540681 7.09309 0.619195C6.97181 0.69771 6.87584 0.809648 6.81677 0.941499L4.96652 5.038L0.69077 5.37775C0.547111 5.38913 0.409773 5.44166 0.295186 5.52905C0.180599 5.61644 0.0936144 5.73499 0.0446396 5.87052C-0.00433528 6.00605 -0.013227 6.15282 0.0190284 6.29328C0.0512838 6.43373 0.12332 6.56191 0.22652 6.6625L3.38627 9.74275L2.26877 14.5817C2.23484 14.7282 2.24571 14.8815 2.29998 15.0217C2.35426 15.1619 2.44942 15.2826 2.57312 15.3681C2.69682 15.4535 2.84336 15.4998 2.99371 15.501C3.14406 15.5021 3.29128 15.4581 3.41627 15.3745L7.50002 12.652L11.5838 15.3745C11.7115 15.4593 11.8622 15.503 12.0155 15.4996C12.1688 15.4963 12.3174 15.446 12.4413 15.3557C12.5652 15.2654 12.6585 15.1392 12.7086 14.9943C12.7587 14.8494 12.7632 14.6926 12.7215 14.545L11.3498 9.745L14.7518 6.6835C14.9745 6.4825 15.0563 6.169 14.9603 5.88475Z" fill="#6BBC3A"/>
</svg>
