<svg width="64" height="64" viewBox="0 0 64 64" fill="none" xmlns="http://www.w3.org/2000/svg">
<path d="M51.0559 8.05347H12.9437C5.80878 8.05347 0.00390625 13.8583 0.00390625 20.9932C0.00390625 28.1281 5.80878 33.933 12.9437 33.933H51.0559C58.1908 33.933 63.9957 28.1281 63.9957 20.9932C63.9957 13.8583 58.1907 8.05347 51.0559 8.05347ZM51.0559 31.9332H12.9437C6.91128 31.9332 2.00366 27.0256 2.00366 20.9932C2.00366 14.9608 6.91128 10.0532 12.9437 10.0532H51.0559C57.0883 10.0532 61.9959 14.9608 61.9959 20.9932C61.9959 27.0256 57.0883 31.9332 51.0559 31.9332Z" fill="#E7B55E"/>
<path d="M14.2263 15.7634C11.3425 15.7634 8.99609 18.1093 8.99609 20.9932C8.99609 23.8771 11.3425 26.2234 14.2263 26.2234C17.1102 26.2234 19.4566 23.8771 19.4566 20.9932C19.4566 18.1093 17.1103 15.7634 14.2263 15.7634ZM14.2263 24.2237C12.4448 24.2237 10.9958 22.7747 10.9958 20.9932C10.9958 19.2122 12.4448 17.7632 14.2263 17.7632C16.0078 17.7632 17.4568 19.2122 17.4568 20.9932C17.457 22.7747 16.0078 24.2237 14.2263 24.2237Z" fill="#E7B55E"/>
<path d="M28.2925 18.8783C28.2925 17.1608 26.8953 15.7634 25.1777 15.7634H22.2899C21.7378 15.7634 21.29 16.2112 21.29 16.7633V25.2237C21.29 25.7758 21.7378 26.2236 22.2899 26.2236C22.842 26.2236 23.2898 25.7758 23.2898 25.2237V21.9932H24.5595L26.3983 25.6709C26.6478 26.1701 27.2518 26.3622 27.7399 26.1182C28.234 25.8712 28.4342 25.2707 28.1872 24.7766L26.6124 21.6267C27.6058 21.1056 28.2925 20.0759 28.2925 18.8783ZM23.2898 17.7633H25.1778C25.7924 17.7633 26.2929 18.2637 26.2929 18.8784C26.2929 19.4932 25.7925 19.9936 25.1778 19.9936H23.2898V17.7633Z" fill="#E7B55E"/>
<path d="M55.003 18.8783C55.003 17.1608 53.6058 15.7634 51.8876 15.7634H48.9999C48.4478 15.7634 48 16.2112 48 16.7633V25.2237C48 25.7758 48.4478 26.2236 48.9999 26.2236C49.552 26.2236 49.9998 25.7758 49.9998 25.2237V21.9932H51.2696L53.1086 25.6709C53.3581 26.1701 53.9621 26.3622 54.4503 26.1182C54.9444 25.8712 55.1445 25.2707 54.8975 24.7766L53.3225 21.6268C54.3163 21.1056 55.003 20.0759 55.003 18.8783ZM49.9998 17.7633H51.8876C52.5028 17.7633 53.0033 18.2637 53.0033 18.8784C53.0033 19.4932 52.5029 19.9936 51.8876 19.9936H49.9998V17.7633Z" fill="#E7B55E"/>
<path d="M33.1926 15.7634H31.6522C31.1001 15.7634 30.6523 16.2112 30.6523 16.7633V25.2237C30.6523 25.7758 31.1001 26.2236 31.6522 26.2236H33.1926C36.0765 26.2236 38.4228 23.8772 38.4228 20.9933C38.4228 18.1094 36.0765 15.7634 33.1926 15.7634ZM33.1926 24.2237H32.6521V17.7631H33.1926C34.9741 17.7631 36.4231 19.2121 36.4231 20.9931C36.4231 22.7747 34.9741 24.2237 33.1926 24.2237Z" fill="#E7B55E"/>
<path d="M45.1956 17.7632C45.7478 17.7632 46.1955 17.3154 46.1955 16.7633C46.1955 16.2112 45.7478 15.7634 45.1956 15.7634H41.2284C40.6763 15.7634 40.2285 16.2112 40.2285 16.7633V25.2237C40.2285 25.7758 40.6763 26.2236 41.2284 26.2236H45.1956C45.7478 26.2236 46.1955 25.7758 46.1955 25.2237C46.1955 24.6716 45.7478 24.2238 45.1956 24.2238H42.2283V21.9932H45.1956C45.7478 21.9932 46.1955 21.5454 46.1955 20.9933C46.1955 20.4412 45.7478 19.9934 45.1956 19.9934H42.2283V17.7633H45.1956V17.7632Z" fill="#E7B55E"/>
<path d="M50.7745 48.1376L51.7866 47.1251C52.3392 46.5729 52.519 45.7732 52.2562 45.0379C51.9936 44.3022 51.3472 43.7969 50.5695 43.7197L43.6779 43.0372C42.4305 42.9074 41.3659 43.9633 41.4892 45.2219L42.162 52.1102C42.3254 53.7897 44.3702 54.5262 45.5674 53.3302L46.577 52.3206L49.6181 55.3622C50.3995 56.1426 51.6692 56.1403 52.4469 55.3617L53.8085 54.0001C54.5886 53.2204 54.5886 51.9511 53.8085 51.1713L50.7745 48.1376ZM51.0314 53.9479L47.2839 50.1999C46.8941 49.8102 46.2611 49.8088 45.87 50.1999L44.152 51.9161L43.4802 45.0273L50.3782 45.7049C50.3782 45.7049 50.3767 45.7069 50.3729 45.7108V45.7113L48.6539 47.4308C48.2632 47.8214 48.2632 48.4541 48.6539 48.8447L52.3946 52.5864L51.0314 53.9479Z" fill="#E7B55E"/>
<path d="M39.8191 39.9556C39.4295 39.5649 38.7959 39.5649 38.4053 39.9556C38.0146 40.3457 38.0146 40.9788 38.4053 41.3694L39.5253 42.4899C39.9149 42.8804 40.5485 42.8806 40.9391 42.4899C41.3298 42.0998 41.3298 41.4667 40.9391 41.0761L39.8191 39.9556Z" fill="#E7B55E"/>
<path d="M45.2205 40.1308V38.5465C45.2205 37.9944 44.7727 37.5466 44.2206 37.5466C43.6685 37.5466 43.2207 37.9944 43.2207 38.5465V40.1308C43.2207 40.6829 43.6685 41.1306 44.2206 41.1306C44.7727 41.1306 45.2205 40.683 45.2205 40.1308Z" fill="#E7B55E"/>
<path d="M38.5802 44.7712H36.996C36.4438 44.7712 35.9961 45.219 35.9961 45.7711C35.9961 46.3232 36.4438 46.771 36.996 46.771H38.5802C39.1323 46.771 39.5801 46.3232 39.5801 45.7711C39.5801 45.219 39.1323 44.7712 38.5802 44.7712Z" fill="#E7B55E"/>
</svg>
