<svg width="42" height="42" viewBox="0 0 42 42" fill="none" xmlns="http://www.w3.org/2000/svg">
<path d="M41.7852 21.2094C41.7852 31.7103 34.0036 40.3916 23.8947 41.8004C22.9495 41.9315 21.9824 42 21.0008 42C19.8677 42 18.755 41.9097 17.6714 41.7349C7.77363 40.1411 0.214844 31.5574 0.214844 21.2094C0.214844 9.72658 9.52133 0.417358 20.9993 0.417358C32.4773 0.417358 41.7852 9.72658 41.7852 21.2094Z" fill="#1877F2"/>
<path d="M23.8931 17.1114V21.6407H29.4944L28.6075 27.7419H23.8931V41.799C22.9478 41.9301 21.9808 41.9986 20.9992 41.9986C19.8661 41.9986 18.7534 41.9083 17.6698 41.7335V27.7419H12.5039V21.6407H17.6698V16.0989C17.6698 12.6607 20.4559 9.87231 23.8945 9.87231V9.87523C23.9047 9.87523 23.9134 9.87231 23.9236 9.87231H29.4959V15.149H25.8548C24.7727 15.149 23.8945 16.0275 23.8945 17.1099L23.8931 17.1114Z" fill="white"/>
</svg>
