<svg width="20" height="20" viewBox="0 0 20 20" fill="none" xmlns="http://www.w3.org/2000/svg">
<path d="M3.39623 10.7268L6.43483 7.08666C6.74283 6.69067 6.89683 6.49267 6.97753 6.27061C7.04894 6.07411 7.07848 5.86486 7.06427 5.65628C7.04821 5.42055 6.95505 5.18766 6.76873 4.72187L6.05804 2.94513C5.78231 2.25581 5.64445 1.91116 5.40662 1.68525C5.19706 1.48618 4.93444 1.3519 4.65036 1.29856C4.32798 1.23803 3.96785 1.32806 3.24761 1.50812L1.28027 2.00002C1.28027 12 8.27997 19 18.2803 19L18.7719 17.0324C18.952 16.3122 19.042 15.952 18.9815 15.6297C18.9281 15.3456 18.7938 15.083 18.5948 14.8734C18.3689 14.6356 18.0242 14.4977 17.3349 14.222L15.7494 13.5878C15.218 13.3752 14.9523 13.2689 14.6874 13.2608C14.4532 13.2536 14.2207 13.3013 14.0083 13.4002C13.768 13.512 13.5657 13.7144 13.161 14.1191L10.0746 17.1569" stroke="white" stroke-width="2" stroke-linecap="round" stroke-linejoin="round"/>
</svg>
