<svg width="36" height="36" viewBox="0 0 36 36" fill="none" xmlns="http://www.w3.org/2000/svg">
<rect width="36" height="36" rx="18" transform="matrix(-1 0 0 1 36 0)" fill="#005937"/>
<path d="M11.3957 18.7268L14.4343 15.0867C14.7423 14.6907 14.8963 14.4927 14.977 14.2706C15.0485 14.0741 15.078 13.8649 15.0638 13.6563C15.0477 13.4206 14.9546 13.1877 14.7682 12.7219L14.0575 10.9451C13.7818 10.2558 13.644 9.91116 13.4061 9.68525C13.1966 9.48618 12.934 9.3519 12.6499 9.29856C12.3275 9.23803 11.9674 9.32806 11.2471 9.50812L9.27979 10C9.27979 20 16.2795 27 26.2798 27L26.7714 25.0324C26.9515 24.3122 27.0415 23.952 26.981 23.6297C26.9276 23.3456 26.7934 23.083 26.5943 22.8734C26.3684 22.6356 26.0237 22.4977 25.3344 22.222L23.7489 21.5878C23.2175 21.3752 22.9518 21.2689 22.6869 21.2608C22.4527 21.2536 22.2202 21.3013 22.0078 21.4002C21.7675 21.512 21.5652 21.7144 21.1605 22.1191L18.0741 25.1569" stroke="white" stroke-width="2" stroke-linecap="round" stroke-linejoin="round"/>
</svg>
